<svg width="100" height="27" viewBox="0 0 100 27" fill="none" xmlns="http://www.w3.org/2000/svg">
<g clip-path="url(#clip0_328_4150)">
<path d="M32.5596 19.2023C32.5596 15.669 30.5136 13.6744 27.3105 12.8125C29.6952 11.8366 31.4025 9.77072 31.4025 6.91417C31.4025 3.11731 28.7568 0.638306 23.7688 0.638306H18.033V26.5752H23.7688C28.905 26.5752 32.5525 23.9466 32.5525 19.2094M29.5823 6.9854C29.5823 9.80634 27.6068 12.2141 23.7335 12.2141H19.825V2.24823H23.6983C27.5363 2.24823 29.5823 4.01488 29.5823 6.9854ZM30.7393 19.3875C30.7393 22.8068 28.0584 24.951 23.924 24.951H19.832V13.7457H23.7759C27.9102 13.7457 30.7393 15.434 30.7393 19.3875Z" fill="black"/>
<path d="M41.6326 14.4082C37.5688 14.4082 35.1418 11.801 35.1418 7.44135C35.1418 3.08173 37.5688 0.431763 41.4774 0.431763C43.0719 0.431763 44.3559 0.795065 45.5129 1.56441L45.2378 3.33105C44.109 2.46198 42.839 2.02032 41.4562 2.02032C38.5777 2.02032 36.9268 3.98642 36.9268 7.41998C36.9268 10.8535 38.6412 12.8054 41.6326 12.8054C42.7262 12.8054 43.5234 12.6131 44.3841 12.1287L44.4123 12.1144V8.43153H41.3081L41.0682 6.84297H46.1197V13.1188C44.8427 13.938 43.213 14.4153 41.6326 14.4153" fill="black"/>
<path d="M14.5195 19.2024C14.5195 15.6691 12.4735 13.6745 9.2705 12.8125C11.6551 11.8366 13.3625 9.77076 13.3625 6.91421C13.3625 3.11023 10.7239 0.631226 5.73585 0.631226H0V26.5681H5.73585C10.872 26.5681 14.5195 23.9395 14.5195 19.2024ZM11.5423 6.98545C11.5423 9.80638 9.56681 12.2141 5.70058 12.2141H1.78496V2.24828H5.65825C9.49626 2.24828 11.5423 4.01492 11.5423 6.98545ZM12.6923 19.3876C12.6923 22.8069 10.0113 24.9511 5.87696 24.9511H1.78496V13.7457H5.7288C9.86313 13.7457 12.6923 15.434 12.6923 19.3876Z" fill="black"/>
<path d="M99.9999 13.361V11.2453H98.1938L98.3208 12.0432H99.0686V12.8197C98.8923 12.9051 98.7229 12.955 98.4901 12.955C97.7493 12.955 97.3754 12.3851 97.3754 11.5659C97.3754 10.7467 97.7352 10.1982 98.4831 10.1982C98.9275 10.1982 99.3085 10.362 99.633 10.5686L99.7741 9.6283C99.4284 9.43596 98.991 9.30774 98.4548 9.30774C97.1285 9.30774 96.3101 10.2196 96.3101 11.573C96.3101 12.9265 97.065 13.8241 98.4337 13.8241C99.0263 13.8241 99.5554 13.6602 100.007 13.361M94.9907 13.7457V9.40035H93.996V11.8295L92.4085 9.40035H91.3714V13.7457H92.3662V11.1456L94.0665 13.7457H94.9907ZM89.9534 12.0147V9.39322H88.881V12.0289C88.881 12.5846 88.6411 12.9051 88.1543 12.9051C87.6675 12.9051 87.4276 12.5775 87.4276 12.0147V9.39322H86.3552V12.0218C86.3552 13.2399 87.089 13.8098 88.1472 13.8098C89.2055 13.8098 89.9604 13.2257 89.9604 12.0147M85.1488 10.2979V9.40035H82.5736V13.7457H83.6319V12.0859H84.9018L84.7537 11.1884H83.6319V10.2979H85.1488ZM81.3249 10.2979V9.40035H78.7497V13.7457H79.808V12.0859H81.0779L80.9298 11.1884H79.808V10.2979H81.3249ZM75.4409 10.4831L75.9206 11.9933H74.947L75.4409 10.4831ZM73.3666 13.7457H74.4108L74.7001 12.8482H76.1958L76.5132 13.7956L77.5856 13.6175L76.0899 9.3861H74.9188L73.3737 13.7528L73.3666 13.7457ZM72.2096 13.7457V9.40035H71.1372V11.0245H69.6486V9.40035H68.5832V13.7457H69.6486V11.972H71.1372V13.7457H72.2096ZM67.278 13.4964L67.144 12.6131C66.8194 12.7983 66.5161 12.9123 66.1633 12.9123C65.5142 12.9123 65.0345 12.435 65.0345 11.5659C65.0345 10.6968 65.4578 10.2196 66.1069 10.2196C66.4808 10.2196 66.8053 10.3692 67.0664 10.5757L67.2145 9.60693C66.9041 9.42884 66.509 9.32199 66.0222 9.32199C64.8017 9.32199 63.9621 10.2267 63.9621 11.5802C63.9621 12.9336 64.7452 13.8241 66.0504 13.8241C66.5231 13.8241 66.9253 13.6959 67.271 13.5035M62.8544 12.435C62.8544 11.744 62.4876 11.4163 61.5422 11.0673C61.006 10.8607 60.886 10.7538 60.886 10.533C60.886 10.3335 61.0413 10.1911 61.3658 10.1911C61.6903 10.1911 62.0995 10.3193 62.4876 10.5472L62.6498 9.64255C62.2759 9.45733 61.9161 9.35048 61.3517 9.35048C60.5262 9.35048 59.8772 9.79927 59.8772 10.6327C59.8772 11.3522 60.2511 11.6371 61.1118 11.972C61.7186 12.207 61.8385 12.321 61.8385 12.5632C61.8385 12.8197 61.6268 12.955 61.3235 12.955C60.8931 12.955 60.3992 12.7912 59.9548 12.549L59.7996 13.4679C60.237 13.6674 60.7238 13.7956 61.3023 13.7956C62.156 13.7956 62.8403 13.3824 62.8403 12.435M58.6989 13.7457V12.8695H57.0057V11.9292H58.3885L58.2545 11.0673H57.0057V10.2694H58.6425V9.40035H55.9615V13.7457H58.6989ZM53.6615 12.4136C53.6615 12.784 53.4146 12.9693 52.9843 12.9693H52.5892V11.8509H52.9701C53.4287 11.8509 53.6615 12.0432 53.6615 12.4207M53.5557 10.6398C53.5557 10.9533 53.3441 11.1527 52.9419 11.1527H52.5892V10.1697H52.9701C53.3793 10.1697 53.5557 10.3549 53.5557 10.6398ZM54.6634 12.492C54.6634 11.9007 54.353 11.5944 53.8803 11.4448C54.233 11.2881 54.5011 10.996 54.5011 10.5259C54.5011 9.82064 54.0143 9.40035 53.0336 9.40035H51.5662V13.7457H53.0054C54.0284 13.7457 54.6493 13.3326 54.6493 12.492" fill="black"/>
<path d="M78.0089 3.71573C78.0089 3.02474 77.6421 2.69706 76.6967 2.34801C76.1605 2.14142 76.0406 2.03457 76.0406 1.81374C76.0406 1.61428 76.1958 1.47181 76.5203 1.47181C76.8448 1.47181 77.254 1.60003 77.6421 1.82798L77.8043 0.923292C77.4304 0.738079 77.0706 0.631226 76.5062 0.631226C75.6807 0.631226 75.0317 1.08001 75.0317 1.91347C75.0317 2.63295 75.4056 2.91789 76.2663 3.2527C76.8731 3.48778 76.993 3.60175 76.993 3.84395C76.993 4.1004 76.7813 4.23575 76.478 4.23575C76.0476 4.23575 75.5537 4.07191 75.1093 3.82971L74.9541 4.74865C75.3915 4.94811 75.8783 5.07633 76.4568 5.07633C77.3105 5.07633 77.9948 4.66316 77.9948 3.71573M73.8535 5.02647V4.15027H72.1602V3.20996H73.543L73.409 2.34801H72.1602V1.55017H73.797V0.681091H71.116V5.02647H73.8535ZM68.7173 2.85378C68.7173 3.78697 68.2446 4.19301 67.4826 4.19301H67.0946V1.51455H67.4826C68.2093 1.51455 68.7173 1.93484 68.7173 2.85378ZM69.7897 2.84665C69.7897 1.55729 69.0065 0.681091 67.5109 0.681091H66.0222V5.02647H67.532C68.9854 5.02647 69.7826 4.13602 69.7826 2.84665M64.5547 5.02647V0.681091H63.56V3.11023L61.9725 0.681091H60.9354V5.02647H61.9302V2.42636L63.6305 5.02647H64.5547ZM59.5173 3.30256V0.681091H58.445V3.31681C58.445 3.87245 58.2051 4.19301 57.7183 4.19301C57.2315 4.19301 56.9916 3.86532 56.9916 3.30256V0.681091H55.9192V3.30969C55.9192 4.52782 56.6529 5.0977 57.7112 5.0977C58.7695 5.0977 59.5244 4.51357 59.5244 3.30256M53.6615 3.69436C53.6615 4.06478 53.4146 4.25 52.9843 4.25H52.5892V3.1316H52.9701C53.4287 3.1316 53.6615 3.32393 53.6615 3.70148M53.5557 1.92771C53.5557 2.24115 53.3441 2.44061 52.9419 2.44061H52.5892V1.45756H52.9701C53.3793 1.45756 53.5557 1.64277 53.5557 1.92771ZM54.6634 3.77272C54.6634 3.18146 54.353 2.87515 53.8803 2.72555C54.233 2.56884 54.5011 2.27677 54.5011 1.80661C54.5011 1.10138 54.0143 0.681091 53.0336 0.681091H51.5662V5.02647H53.0054C54.0284 5.02647 54.6493 4.6133 54.6493 3.77272" fill="black"/>
</g>
<defs>
<clipPath id="clip0_328_4150">
<rect width="100" height="26.1364" fill="white" transform="translate(0 0.431763)"/>
</clipPath>
</defs>
</svg>
