<svg width="90" height="20" viewBox="0 0 90 20" fill="none" xmlns="http://www.w3.org/2000/svg">
<g clip-path="url(#clip0_328_5237)">
<path fill-rule="evenodd" clip-rule="evenodd" d="M37.3524 12.5452C37.3524 11.7832 36.7915 11.2583 35.6104 11.2583H33.2504V13.8533H35.6697C36.6561 13.8533 37.3524 13.502 37.3524 12.5452ZM36.927 7.39548C36.927 6.65255 36.4232 6.14667 35.6697 6.14667H33.2504V8.60619H35.6104C36.4613 8.60619 36.927 7.98179 36.927 7.39548ZM40.8745 12.9178C40.8745 15.1423 38.8235 16.607 36.7513 16.607H29.9971V3.39294H36.1904C38.5716 3.39294 40.2925 4.58249 40.2925 7.02296C40.2925 9.11207 38.4743 9.73647 38.4743 9.73647C38.4743 9.75552 40.8745 10.3016 40.8745 12.9178Z" fill="black"/>
<path fill-rule="evenodd" clip-rule="evenodd" d="M50.8482 9.99046C50.8482 7.92252 49.8999 6.24403 48.0225 6.24403C46.145 6.24403 45.2158 7.92252 45.2158 9.99046C45.2158 12.0584 46.145 13.7559 48.0225 13.7559C49.8999 13.7559 50.8482 12.0775 50.8482 9.99046ZM54.0994 9.99046C54.0994 13.8745 51.8727 16.9182 48.0225 16.9182C44.1723 16.9182 41.9456 13.8745 41.9456 9.99046C41.9456 6.10645 44.1892 3.06274 48.0225 3.06274C51.8557 3.06274 54.0994 6.12762 54.0994 9.99046Z" fill="black"/>
<path fill-rule="evenodd" clip-rule="evenodd" d="M65.3115 12.6045C65.3115 15.5127 62.6805 16.9181 60.2019 16.9181C57.338 16.9181 55.867 15.826 54.707 14.4396L56.8173 12.3695C57.7084 13.5019 58.8684 14.067 60.1659 14.067C61.2306 14.067 61.946 13.54 61.946 12.759C61.946 11.9208 61.3131 11.6583 59.5838 11.2943L59.1202 11.1969C57.0375 10.7588 55.3272 9.57768 55.3272 7.21553C55.3272 4.62054 57.4375 3.05847 60.223 3.05847C62.5852 3.05847 64.1134 4.07234 65.0426 5.12642L62.9916 7.15626C62.3524 6.47259 61.3851 5.9265 60.2823 5.9265C59.5288 5.9265 58.6758 6.27786 58.6758 7.15626C58.6758 7.95635 59.5626 8.24632 60.6887 8.48339L61.1544 8.58075C63.0382 8.97656 65.3157 9.55651 65.3157 12.6002L65.3115 12.6045Z" fill="black"/>
<path fill-rule="evenodd" clip-rule="evenodd" d="M77.7425 14.0501C76.3878 16.0017 75.1305 16.9182 72.5186 16.9182C68.8017 16.9182 66.4036 13.8342 66.4036 9.91214C66.4036 5.99003 68.571 3.08179 72.5588 3.08179C74.7453 3.08179 76.3116 3.94114 77.6472 5.94982L74.976 7.72566C74.4341 6.788 73.7378 6.24191 72.5757 6.24191C71.1046 6.24191 69.6928 7.55633 69.6928 9.91002C69.6928 12.5495 71.2211 13.7538 72.6731 13.7538C73.9304 13.7538 74.5103 13.1294 75.0522 12.232L77.7425 14.048V14.0501Z" fill="black"/>
<path fill-rule="evenodd" clip-rule="evenodd" d="M90.0001 16.6049H86.516V11.3959H82.5113V16.6049H79.0464V3.39294H82.5113V8.25272H86.516V3.39294H90.0001V16.6049Z" fill="black"/>
<path d="M5.44826 14.5116C4.27775 13.2988 3.63217 11.6944 3.63217 9.99683C3.63217 8.29929 4.27775 6.69701 5.44826 5.48418L5.48213 5.45031L5.47366 5.49688C5.39746 5.97524 5.35936 6.49169 5.35936 7.02932V12.9643C5.35936 13.5041 5.39746 14.0205 5.47366 14.4989L5.48213 14.5455L5.44826 14.5116ZM6.56162 11.4594V8.53424C6.56162 8.37972 6.68438 8.25484 6.83467 8.25484H13.1656C13.3159 8.25484 13.4386 8.37972 13.4386 8.53424V11.4594C13.4386 11.6139 13.3159 11.7409 13.1656 11.7409H6.83467C6.68438 11.7409 6.56162 11.6139 6.56162 11.4594ZM14.5245 14.4989C14.6007 14.0205 14.6409 13.5062 14.6409 12.9643V7.02932C14.6409 6.48958 14.6028 5.97312 14.5245 5.49688L14.5181 5.45031L14.552 5.48418C15.7225 6.69912 16.3681 8.30141 16.3681 9.99683C16.3681 11.6922 15.7225 13.2988 14.552 14.5116L14.5181 14.5455L14.5245 14.4989ZM0 9.99894C0 4.47666 4.47672 0 9.99906 0C15.5214 0 19.9981 4.47666 19.9981 9.99894C19.9981 15.5212 15.5214 19.9979 9.99906 19.9979C4.47672 19.9979 0 15.5233 0 9.99894ZM1.09219 9.99894C1.09219 14.9095 5.08843 18.9057 9.99906 18.9057C14.9097 18.9057 18.9059 14.9095 18.9059 9.99894C18.9059 5.08837 14.9118 1.09218 9.99906 1.09218C5.08631 1.09218 1.09219 5.08837 1.09219 9.99894ZM13.4386 3.56863V6.90443C13.4386 6.94888 13.4386 7.02085 13.2439 7.02085H6.75847C6.56373 7.02085 6.56373 6.951 6.56373 6.90443V3.56863C6.56373 3.46492 6.47907 3.38025 6.37535 3.38025C6.34149 3.38025 6.30762 3.38872 6.2801 3.40565C6.19755 3.45645 6.16157 3.47127 6.08114 3.52207C3.77822 4.93809 2.43415 7.32776 2.43415 9.99471C2.43415 12.6617 3.82267 15.1021 6.07902 16.4695C6.15945 16.5182 6.19967 16.5414 6.2801 16.5922C6.30762 16.6092 6.34149 16.6176 6.37535 16.6176C6.47907 16.6176 6.56373 16.533 6.56373 16.4293V13.0871C6.56373 13.0405 6.56373 12.9728 6.75847 12.9728H13.2439C13.4386 12.9728 13.4386 13.0427 13.4386 13.0871V16.4293C13.4386 16.533 13.5233 16.6176 13.627 16.6176C13.6609 16.6176 13.6947 16.6092 13.7222 16.5922C13.8111 16.5393 13.8344 16.5245 13.9212 16.4695C16.2157 15.0619 17.5682 12.6638 17.5682 9.99471C17.5682 7.32564 16.2093 4.92962 13.9212 3.52207C13.8471 3.4755 13.7963 3.45222 13.7201 3.40565C13.6926 3.38872 13.6587 3.38025 13.6249 3.38025C13.5212 3.38025 13.4365 3.46492 13.4365 3.56863H13.4386Z" fill="black"/>
</g>
<defs>
<clipPath id="clip0_328_5237">
<rect width="90" height="20" fill="white"/>
</clipPath>
</defs>
</svg>
