<svg width="100" height="20" viewBox="0 0 100 20" fill="none" xmlns="http://www.w3.org/2000/svg">
<g clip-path="url(#clip0_328_5932)">
<path d="M98.123 16.2835H98.7069V17.913C98.7069 18.3418 98.9474 18.6849 99.4724 18.6849C99.7423 18.6849 100.002 18.53 100.002 18.53L99.8846 18.2727C99.8846 18.2727 99.6957 18.3919 99.4847 18.3919C99.1191 18.3919 99.0136 18.1465 99.0136 17.8534V16.2811H99.9263V16.0071H99.0136V15.1661H98.7069V16.0071H98.123V16.2811V16.2835ZM95.8315 16.2835H96.4081V18.6158H96.7148V16.2835H97.4213V16.0095H96.7148V15.0661C96.7148 14.7468 96.8374 14.5181 97.1858 14.5181C97.3674 14.5181 97.5268 14.6087 97.5268 14.6087L97.6569 14.3514C97.4459 14.2418 97.3036 14.2251 97.1441 14.2251C96.7785 14.2251 96.4081 14.4872 96.4081 14.9851V16.0095H95.8315V16.2835ZM93.6995 18.3942C93.3511 18.3942 92.9683 18.218 92.9683 17.8058C92.9683 17.3937 93.405 17.2102 93.7583 17.2102C94.2932 17.2102 94.6121 17.427 94.6121 17.427V17.8677C94.6121 17.8677 94.2883 18.3942 93.6995 18.3942ZM93.8172 15.9404C93.2529 15.9404 92.8113 16.2144 92.8113 16.2144L92.9463 16.4717C92.9463 16.4717 93.3339 16.2311 93.8246 16.2311C94.119 16.2311 94.6146 16.3406 94.6146 16.9744V17.1697C94.6146 17.1697 94.2662 16.9243 93.7191 16.9243C93.172 16.9243 92.6543 17.234 92.6543 17.8058C92.6543 18.3776 93.1793 18.6873 93.6308 18.6873C94.2907 18.6873 94.644 18.1679 94.644 18.1679V18.6206H94.9213V16.91C94.9213 16.3788 94.568 15.9428 93.8197 15.9428M89.6954 16.4383V14.2942H89.3888V18.6158H89.6954V16.8147C89.6954 16.8147 89.931 16.2311 90.5247 16.2311C90.9614 16.2311 91.2853 16.4598 91.2853 16.9982V18.6158H91.5919V16.9529C91.5919 16.243 91.0865 15.9404 90.586 15.9404C89.9555 15.9404 89.6979 16.4383 89.6979 16.4383M87.2763 18.3942C86.6335 18.3942 86.2115 17.8916 86.2115 17.3126C86.2115 16.7337 86.636 16.2311 87.2763 16.2311C87.8406 16.2311 88.1301 16.6194 88.1301 16.6194L88.3485 16.4312C88.3485 16.4312 87.978 15.9404 87.2763 15.9404C86.4765 15.9404 85.8926 16.5574 85.8926 17.3126C85.8926 18.0679 86.4765 18.6849 87.2763 18.6849C88.0075 18.6849 88.3779 18.1536 88.3779 18.1536L88.1669 17.9583C88.1669 17.9583 87.8725 18.3919 87.2788 18.3919M82.9362 18.1298C82.9362 18.1298 83.2895 18.6849 84.0844 18.6849C84.5898 18.6849 85.1026 18.4324 85.1026 17.9368C85.1026 17.4675 84.7027 17.296 84.2022 17.1888C83.7483 17.0911 83.395 17.0006 83.395 16.6789C83.395 16.4097 83.6649 16.2334 84.0304 16.2334C84.5138 16.2334 84.791 16.5241 84.791 16.5241L84.9922 16.3073C84.9922 16.3073 84.6634 15.9404 84.0329 15.9404C83.4441 15.9404 83.0859 16.3073 83.0859 16.6789C83.0859 17.1125 83.4514 17.3317 84.0402 17.4556C84.4573 17.5461 84.7885 17.639 84.7885 17.9368C84.7885 18.2799 84.3813 18.3942 84.0869 18.3942C83.4514 18.3942 83.1791 17.9321 83.1791 17.9321L82.9386 18.1322L82.9362 18.1298ZM80.3036 16.2835H80.8876V17.913C80.8876 18.3418 81.128 18.6849 81.653 18.6849C81.9229 18.6849 82.183 18.53 82.183 18.53L82.0652 18.2727C82.0652 18.2727 81.8763 18.3919 81.6653 18.3919C81.2997 18.3919 81.1942 18.1465 81.1942 17.8534V16.2811H82.1069V16.0071H81.1942V15.1661H80.8876V16.0071H80.3036V16.2811V16.2835ZM79.3321 15.9404C78.7776 15.9404 78.5494 16.4312 78.5494 16.4312V16.0071H78.2722V18.6134H78.5789V16.7314C78.5789 16.7314 78.7972 16.2287 79.2609 16.2287C79.5087 16.2287 79.6191 16.2906 79.6191 16.2906L79.7492 16.0047C79.7492 16.0047 79.5848 15.9356 79.3321 15.9356M76.6014 15.1638C76.6014 15.29 76.7069 15.3925 76.8369 15.3925C76.967 15.3925 77.0725 15.29 77.0725 15.1638C77.0725 15.0375 76.967 14.935 76.8369 14.935C76.7069 14.935 76.6014 15.0375 76.6014 15.1638ZM76.6824 18.6158H76.989V16.0095H76.6824V18.6158ZM71.508 16.0095L72.7029 18.7302L73.6401 16.5527L74.5699 18.7302L75.7721 16.0095H75.4532L74.5871 18.0512L73.7382 16.0095H73.5616L72.7078 18.0512L71.8368 16.0095H71.508ZM70.6469 15.9404C70.0924 15.9404 69.8642 16.4312 69.8642 16.4312V16.0071H69.587V18.6134H69.8937V16.7314C69.8937 16.7314 70.112 16.2287 70.5757 16.2287C70.8235 16.2287 70.9339 16.2906 70.9339 16.2906L71.064 16.0047C71.064 16.0047 70.8996 15.9356 70.6469 15.9356M66.3018 17.1578C66.3141 16.8719 66.5619 16.2311 67.3077 16.2311C68.0143 16.2311 68.2793 16.86 68.2916 17.1578H66.3018ZM67.3102 15.9404C66.5104 15.9404 65.9853 16.5741 65.9853 17.3126C65.9853 18.0512 66.5619 18.6849 67.3642 18.6849C67.8058 18.6849 68.2302 18.4562 68.4879 18.1536L68.2818 17.9487C68.1002 18.1727 67.7764 18.3942 67.3642 18.3942C66.6527 18.3942 66.3166 17.8272 66.292 17.4342H68.6056C68.6105 17.3722 68.6105 17.3651 68.6105 17.315C68.6105 16.5146 68.0217 15.9428 67.3102 15.9428M63.0289 18.1298C63.0289 18.1298 63.3822 18.6849 64.1771 18.6849C64.6826 18.6849 65.1953 18.4324 65.1953 17.9368C65.1953 17.4675 64.7954 17.296 64.2949 17.1888C63.841 17.0911 63.4877 17.0006 63.4877 16.6789C63.4877 16.4097 63.7576 16.2334 64.1232 16.2334C64.6065 16.2334 64.8837 16.5241 64.8837 16.5241L65.0849 16.3073C65.0849 16.3073 64.7562 15.9404 64.1256 15.9404C63.5368 15.9404 63.1786 16.3073 63.1786 16.6789C63.1786 17.1125 63.5442 17.3317 64.133 17.4556C64.5501 17.5461 64.8813 17.639 64.8813 17.9368C64.8813 18.2799 64.474 18.3942 64.1796 18.3942C63.5442 18.3942 63.2718 17.9321 63.2718 17.9321L63.0314 18.1322L63.0289 18.1298ZM60.048 18.1298C60.048 18.1298 60.4013 18.6849 61.1962 18.6849C61.7016 18.6849 62.2144 18.4324 62.2144 17.9368C62.2144 17.4675 61.8145 17.296 61.314 17.1888C60.8601 17.0911 60.5068 17.0006 60.5068 16.6789C60.5068 16.4097 60.7767 16.2334 61.1422 16.2334C61.6256 16.2334 61.9028 16.5241 61.9028 16.5241L62.104 16.3073C62.104 16.3073 61.7752 15.9404 61.1447 15.9404C60.5559 15.9404 60.1977 16.3073 60.1977 16.6789C60.1977 17.1125 60.5632 17.3317 61.152 17.4556C61.5691 17.5461 61.9003 17.639 61.9003 17.9368C61.9003 18.2799 61.4931 18.3942 61.1987 18.3942C60.5632 18.3942 60.2909 17.9321 60.2909 17.9321L60.0504 18.1322L60.048 18.1298ZM57.8301 18.3942C57.4817 18.3942 57.099 18.218 57.099 17.8058C57.099 17.3937 57.5357 17.2102 57.889 17.2102C58.4238 17.2102 58.7428 17.427 58.7428 17.427V17.8677C58.7428 17.8677 58.4189 18.3942 57.8301 18.3942ZM57.9478 15.9404C57.3836 15.9404 56.9419 16.2144 56.9419 16.2144L57.0769 16.4717C57.0769 16.4717 57.4645 16.2311 57.9552 16.2311C58.2496 16.2311 58.7452 16.3406 58.7452 16.9744V17.1697C58.7452 17.1697 58.3968 16.9243 57.8497 16.9243C57.3026 16.9243 56.7849 17.234 56.7849 17.8058C56.7849 18.3776 57.3099 18.6873 57.7614 18.6873C58.4214 18.6873 58.7747 18.1679 58.7747 18.1679V18.6206H59.0519V16.91C59.0519 16.3788 58.6986 15.9428 57.9503 15.9428M56.3163 14.6134H55.9925L54.8025 17.8844L53.7304 14.6134H53.4188L52.3638 17.8844L51.1616 14.6134H50.8329L52.3515 18.7302L53.5758 15.1042L54.7952 18.7302L56.3139 14.6134H56.3163ZM47.6949 17.7867C47.6949 17.7867 47.4005 18.3919 46.7282 18.3919C46.1271 18.3919 45.7101 17.9178 45.7101 17.3103C45.7101 16.7028 46.1271 16.2287 46.7282 16.2287C47.4054 16.2287 47.6949 16.8338 47.6949 16.8338V17.782V17.7867ZM48.0016 18.6158V14.2942H47.7023V16.4502C47.6311 16.3478 47.3195 15.9404 46.7307 15.9404C45.9824 15.9404 45.3936 16.5003 45.3936 17.3126C45.3936 18.125 45.9824 18.6849 46.7307 18.6849C47.4128 18.6849 47.7268 18.1369 47.7268 18.1369V18.6182H48.004L48.0016 18.6158ZM43.4087 15.9404C42.7487 15.9404 42.4911 16.4836 42.4911 16.4836V16.0095H42.2139V18.6158H42.5206V16.8147C42.5206 16.8147 42.7561 16.2311 43.3498 16.2311C43.7866 16.2311 44.1104 16.4598 44.1104 16.9982V18.6158H44.4171V16.9529C44.4171 16.243 43.9117 15.9404 43.4112 15.9404M39.812 18.6849C40.472 18.6849 40.7296 18.1536 40.7296 18.1536V18.6158H41.0068V16.0095H40.7001V17.8225C40.7001 17.8225 40.4646 18.3942 39.8709 18.3942C39.4243 18.3942 39.1103 18.1655 39.1103 17.6271V16.0095H38.8036V17.6724C38.8036 18.3823 39.2992 18.6849 39.8095 18.6849M34.6769 15.9404C34.0169 15.9404 33.7593 16.4836 33.7593 16.4836V16.0095H33.4821V18.6158H33.7888V16.8147C33.7888 16.8147 34.0243 16.2311 34.618 16.2311C35.0547 16.2311 35.3786 16.4598 35.3786 16.9982V18.6158H35.6853V16.9529C35.6853 16.243 35.1799 15.9404 34.6794 15.9404M30.1945 17.1578C30.2067 16.8719 30.4545 16.2311 31.2004 16.2311C31.907 16.2311 32.1719 16.86 32.1842 17.1578H30.1945ZM31.2028 15.9404C30.403 15.9404 29.878 16.5741 29.878 17.3126C29.878 18.0512 30.4545 18.6849 31.2568 18.6849C31.6984 18.6849 32.1229 18.4562 32.3805 18.1536L32.1744 17.9487C31.9928 18.1727 31.669 18.3942 31.2568 18.3942C30.5453 18.3942 30.2092 17.8272 30.1847 17.4342H32.4983C32.5032 17.3722 32.5032 17.3651 32.5032 17.315C32.5032 16.5146 31.9143 15.9428 31.2028 15.9428M27.8931 15.9404C27.2332 15.9404 26.9755 16.4836 26.9755 16.4836V16.0095H26.6983V18.6158H27.005V16.8147C27.005 16.8147 27.2405 16.2311 27.8342 16.2311C28.271 16.2311 28.5948 16.4598 28.5948 16.9982V18.6158H28.9015V16.9529C28.9015 16.243 28.3961 15.9404 27.8956 15.9404M24.3553 18.3942C23.683 18.3942 23.3076 17.9035 23.3076 17.3126C23.3076 16.7218 23.6855 16.2311 24.3553 16.2311C25.0251 16.2311 25.4029 16.7218 25.4029 17.3126C25.4029 17.9035 25.0251 18.3942 24.3553 18.3942ZM24.3553 15.9404C23.5554 15.9404 22.9887 16.5574 22.9887 17.3126C22.9887 18.0679 23.553 18.6849 24.3553 18.6849C25.1575 18.6849 25.7218 18.0679 25.7218 17.3126C25.7218 16.5574 25.1575 15.9404 24.3553 15.9404ZM21.5461 15.1638C21.5461 15.29 21.6516 15.3925 21.7816 15.3925C21.9116 15.3925 22.0171 15.29 22.0171 15.1638C22.0171 15.0375 21.9116 14.935 21.7816 14.935C21.6516 14.935 21.5461 15.0375 21.5461 15.1638ZM21.6295 18.6158H21.9362V16.0095H21.6295V18.6158ZM20.0397 17.7867C20.0397 17.7867 19.7624 18.3919 19.0681 18.3919C18.467 18.3919 18.0548 17.9178 18.0548 17.3103C18.0548 16.7028 18.467 16.2287 19.0681 16.2287C19.7624 16.2287 20.0397 16.8338 20.0397 16.8338V17.782V17.7867ZM20.0691 16.0095V16.4907C20.0691 16.4907 19.7747 15.9428 19.0681 15.9428C18.3271 15.9428 17.7383 16.5026 17.7383 17.315C17.7383 18.1274 18.3271 18.6873 19.0681 18.6873C19.6618 18.6873 19.9513 18.3037 20.0397 18.1846V18.6944C20.0397 19.2781 19.7207 19.7117 19.0337 19.7117C18.3468 19.7117 18.0082 19.259 18.0082 19.259L17.8021 19.4711C17.8021 19.4711 18.2437 20.0023 19.0337 20.0023C19.8238 20.0023 20.3463 19.4997 20.3463 18.6825V16.0119H20.0691V16.0095ZM14.6813 17.1578C14.6936 16.8719 14.9414 16.2311 15.6872 16.2311C16.3938 16.2311 16.6588 16.86 16.6711 17.1578H14.6813ZM15.6872 15.9404C14.8874 15.9404 14.3624 16.5741 14.3624 17.3126C14.3624 18.0512 14.9389 18.6849 15.7412 18.6849C16.1828 18.6849 16.6073 18.4562 16.8649 18.1536L16.6588 17.9487C16.4773 18.1727 16.1534 18.3942 15.7412 18.3942C15.0297 18.3942 14.6936 17.8272 14.6691 17.4342H16.9827C16.9876 17.3722 16.9876 17.3651 16.9876 17.315C16.9876 16.5146 16.3987 15.9428 15.6872 15.9428M11.1655 18.6158H11.4722V16.8767H12.0856L13.2387 18.6158H13.6092L12.4315 16.86C12.721 16.8314 13.4963 16.6075 13.4963 15.745C13.4963 15.0875 13.0081 14.6134 12.1592 14.6134H11.1631V18.6158H11.1655ZM11.4722 16.5932V14.9017H12.1788C12.7922 14.9017 13.1798 15.2209 13.1798 15.7474C13.1798 16.2739 12.7971 16.5932 12.1788 16.5932H11.4722Z" fill="black"/>
<path d="M84.7665 12.3097L85.0363 12.4002L85.5368 11.0613L85.2547 10.9636L84.7665 12.3073V12.3097ZM82.1658 9.13637H82.7497V10.7659C82.7497 11.1947 82.9902 11.5378 83.5152 11.5378C83.7851 11.5378 84.0452 11.3829 84.0452 11.3829L83.9274 11.1257C83.9274 11.1257 83.7385 11.2448 83.5275 11.2448C83.1619 11.2448 83.0564 10.9994 83.0564 10.7064V9.13399H83.9691V8.86002H83.0564V8.01904H82.7497V8.86002H82.1658V9.13399V9.13637ZM79.8743 9.13637H80.4509V11.4687H80.7575V9.13637H81.4641V8.8624H80.7575V7.91898C80.7575 7.59974 80.8802 7.37103 81.2286 7.37103C81.4101 7.37103 81.5696 7.46156 81.5696 7.46156L81.6997 7.20427C81.4887 7.09468 81.3464 7.078 81.1869 7.078C80.8213 7.078 80.4509 7.34006 80.4509 7.83798V8.8624H79.8743V9.13637ZM77.7422 11.2472C77.3939 11.2472 77.0111 11.0709 77.0111 10.6587C77.0111 10.2466 77.4478 10.0631 77.8011 10.0631C78.336 10.0631 78.6549 10.2799 78.6549 10.2799V10.7206C78.6549 10.7206 78.3311 11.2472 77.7422 11.2472ZM77.86 8.79331C77.2957 8.79331 76.8541 9.06728 76.8541 9.06728L76.989 9.32458C76.989 9.32458 77.3767 9.08396 77.8674 9.08396C78.1618 9.08396 78.6574 9.19355 78.6574 9.82726V10.0226C78.6574 10.0226 78.309 9.77723 77.7619 9.77723C77.2148 9.77723 76.6971 10.0869 76.6971 10.6587C76.6971 11.2305 77.2221 11.5402 77.6736 11.5402C78.3335 11.5402 78.6868 11.0208 78.6868 11.0208V11.4735H78.9641V9.76293C78.9641 9.23167 78.6108 8.79569 77.8625 8.79569M73.7382 9.29123V7.14709H73.4315V11.4687H73.7382V9.66764C73.7382 9.66764 73.9738 9.08396 74.5675 9.08396C75.0042 9.08396 75.3281 9.31267 75.3281 9.85108V11.4687H75.6347V9.80582C75.6347 9.09587 75.1293 8.79331 74.6288 8.79331C73.9983 8.79331 73.7407 9.29123 73.7407 9.29123M71.3191 11.2472C70.6763 11.2472 70.2543 10.7445 70.2543 10.1656C70.2543 9.58664 70.6788 9.08396 71.3191 9.08396C71.8834 9.08396 72.1729 9.47229 72.1729 9.47229L72.3913 9.28408C72.3913 9.28408 72.0208 8.79331 71.3191 8.79331C70.5193 8.79331 69.9354 9.41034 69.9354 10.1656C69.9354 10.9208 70.5193 11.5378 71.3191 11.5378C72.0503 11.5378 72.4207 11.0065 72.4207 11.0065L72.2097 10.8112C72.2097 10.8112 71.9153 11.2448 71.3216 11.2448M66.979 10.9827C66.979 10.9827 67.3323 11.5378 68.1272 11.5378C68.6326 11.5378 69.1454 11.2853 69.1454 10.7897C69.1454 10.3204 68.7455 10.1489 68.245 10.0417C67.7911 9.944 67.4378 9.85346 67.4378 9.53184C67.4378 9.26264 67.7077 9.08634 68.0732 9.08634C68.5565 9.08634 68.8338 9.37699 68.8338 9.37699L69.035 9.1602C69.035 9.1602 68.7062 8.79331 68.0757 8.79331C67.4868 8.79331 67.1286 9.16019 67.1286 9.53184C67.1286 9.96544 67.4942 10.1846 68.083 10.3085C68.5001 10.399 68.8313 10.4919 68.8313 10.7897C68.8313 11.1328 68.4241 11.2472 68.1296 11.2472C67.4942 11.2472 67.2219 10.785 67.2219 10.785L66.9814 10.9851L66.979 10.9827ZM64.3464 9.13637H64.9304V10.7659C64.9304 11.1947 65.1708 11.5378 65.6958 11.5378C65.9657 11.5378 66.2258 11.3829 66.2258 11.3829L66.108 11.1257C66.108 11.1257 65.9191 11.2448 65.7081 11.2448C65.3425 11.2448 65.237 10.9994 65.237 10.7064V9.13399H66.1497V8.86002H65.237V8.01904H64.9304V8.86002H64.3464V9.13399V9.13637ZM63.3749 8.79331C62.8204 8.79331 62.5922 9.28408 62.5922 9.28408V8.86002H62.315V11.4663H62.6217V9.58426C62.6217 9.58426 62.84 9.08158 63.3037 9.08158C63.5515 9.08158 63.6619 9.14352 63.6619 9.14352L63.792 8.85763C63.792 8.85763 63.6276 8.78855 63.3749 8.78855M60.6442 8.01666C60.6442 8.14292 60.7497 8.24536 60.8797 8.24536C61.0097 8.24536 61.1152 8.14292 61.1152 8.01666C61.1152 7.89039 61.0097 7.78795 60.8797 7.78795C60.7497 7.78795 60.6442 7.89039 60.6442 8.01666ZM60.7251 11.4687H61.0318V8.8624H60.7251V11.4687ZM55.5508 8.8624L56.7457 11.5831L57.6829 9.40558L58.6127 11.5831L59.8149 8.8624H59.496L58.6299 10.9041L57.781 8.8624H57.6044L56.7506 10.9041L55.8796 8.8624H55.5508ZM53.0827 9.13637H53.6666V10.7659C53.6666 11.1947 53.907 11.5378 54.4321 11.5378C54.7019 11.5378 54.962 11.3829 54.962 11.3829L54.8442 11.1257C54.8442 11.1257 54.6553 11.2448 54.4443 11.2448C54.0788 11.2448 53.9733 10.9994 53.9733 10.7064V9.13399H54.8859V8.86002H53.9733V8.01904H53.6666V8.86002H53.0827V9.13399V9.13637ZM50.1557 10.9827C50.1557 10.9827 50.509 11.5378 51.3039 11.5378C51.8093 11.5378 52.3221 11.2853 52.3221 10.7897C52.3221 10.3204 51.9222 10.1489 51.4217 10.0417C50.9678 9.944 50.6145 9.85346 50.6145 9.53184C50.6145 9.26264 50.8844 9.08634 51.2499 9.08634C51.7333 9.08634 52.0105 9.37699 52.0105 9.37699L52.2117 9.1602C52.2117 9.1602 51.8829 8.79331 51.2524 8.79331C50.6636 8.79331 50.3054 9.16019 50.3054 9.53184C50.3054 9.96544 50.6709 10.1846 51.2598 10.3085C51.6768 10.399 52.0081 10.4919 52.0081 10.7897C52.0081 11.1328 51.6008 11.2472 51.3064 11.2472C50.6709 11.2472 50.3986 10.785 50.3986 10.785L50.1582 10.9851L50.1557 10.9827ZM49.2038 8.79331C48.6493 8.79331 48.4211 9.28408 48.4211 9.28408V8.86002H48.1439V11.4663H48.4506V9.58426C48.4506 9.58426 48.6689 9.08158 49.1326 9.08158C49.3804 9.08158 49.4908 9.14352 49.4908 9.14352L49.6208 8.85763C49.6208 8.85763 49.4565 8.78855 49.2038 8.78855M45.7984 11.2472C45.1261 11.2472 44.7508 10.7564 44.7508 10.1656C44.7508 9.57473 45.1286 9.08396 45.7984 9.08396C46.4682 9.08396 46.846 9.57473 46.846 10.1656C46.846 10.7564 46.4682 11.2472 45.7984 11.2472ZM45.7984 8.79331C44.9986 8.79331 44.4318 9.41034 44.4318 10.1656C44.4318 10.9208 44.9961 11.5378 45.7984 11.5378C46.6007 11.5378 47.165 10.9208 47.165 10.1656C47.165 9.41034 46.6007 8.79331 45.7984 8.79331ZM41.7845 7.75221H43.7326V7.46633H41.4779V11.4687H41.7845V9.55329H43.6148V9.27931H41.7845V7.75221ZM37.8566 10.6396C37.8566 10.6396 37.5622 11.2448 36.8899 11.2448C36.2888 11.2448 35.8717 10.7707 35.8717 10.1632C35.8717 9.55567 36.2888 9.08158 36.8899 9.08158C37.5671 9.08158 37.8566 9.6867 37.8566 9.6867V10.6349V10.6396ZM38.1633 11.4687V7.14709H37.8639V9.30314C37.7928 9.2007 37.4812 8.79331 36.8924 8.79331C36.1441 8.79331 35.5552 9.35317 35.5552 10.1656C35.5552 10.9779 36.1441 11.5378 36.8924 11.5378C37.5744 11.5378 37.8885 10.9899 37.8885 10.9899V11.4711H38.1657L38.1633 11.4687ZM33.5704 8.79331C32.9104 8.79331 32.6528 9.33649 32.6528 9.33649V8.8624H32.3756V11.4687H32.6823V9.66764C32.6823 9.66764 32.9178 9.08396 33.5115 9.08396C33.9482 9.08396 34.2721 9.31267 34.2721 9.85108V11.4687H34.5788V9.80582C34.5788 9.09587 34.0734 8.79331 33.5729 8.79331M29.9712 11.5378C30.6312 11.5378 30.8888 11.0065 30.8888 11.0065V11.4687H31.166V8.8624H30.8594V10.6754C30.8594 10.6754 30.6238 11.2472 30.0301 11.2472C29.5836 11.2472 29.2695 11.0184 29.2695 10.48V8.8624H28.9628V10.5253C28.9628 11.2352 29.4584 11.5378 29.9688 11.5378M24.5025 10.2513H26.0751V9.97735H24.5025V10.2513ZM23.1114 10.6396C23.1114 10.6396 22.817 11.2448 22.1447 11.2448C21.5436 11.2448 21.1265 10.7707 21.1265 10.1632C21.1265 9.55567 21.5436 9.08158 22.1447 9.08158C22.8219 9.08158 23.1114 9.6867 23.1114 9.6867V10.6349V10.6396ZM23.418 11.4687V7.14709H23.1187V9.30314C23.0476 9.2007 22.736 8.79331 22.1472 8.79331C21.3989 8.79331 20.81 9.35317 20.81 10.1656C20.81 10.9779 21.3989 11.5378 22.1472 11.5378C22.8292 11.5378 23.1433 10.9899 23.1433 10.9899V11.4711H23.4205L23.418 11.4687ZM18.8252 8.79331C18.1652 8.79331 17.9076 9.33649 17.9076 9.33649V8.8624H17.6304V11.4687H17.9371V9.66764C17.9371 9.66764 18.1726 9.08396 18.7663 9.08396C19.203 9.08396 19.5269 9.31267 19.5269 9.85108V11.4687H19.8336V9.80582C19.8336 9.09587 19.3282 8.79331 18.8277 8.79331M15.2039 11.2472C14.8555 11.2472 14.4728 11.0709 14.4728 10.6587C14.4728 10.2466 14.9095 10.0631 15.2628 10.0631C15.7976 10.0631 16.1166 10.2799 16.1166 10.2799V10.7206C16.1166 10.7206 15.7927 11.2472 15.2039 11.2472ZM15.3217 8.79331C14.7574 8.79331 14.3158 9.06728 14.3158 9.06728L14.4507 9.32458C14.4507 9.32458 14.8383 9.08396 15.329 9.08396C15.6235 9.08396 16.119 9.19355 16.119 9.82726V10.0226C16.119 10.0226 15.7707 9.77723 15.2235 9.77723C14.6764 9.77723 14.1587 10.0869 14.1587 10.6587C14.1587 11.2305 14.6838 11.5402 15.1352 11.5402C15.7952 11.5402 16.1485 11.0208 16.1485 11.0208V11.4735H16.4257V9.76293C16.4257 9.23167 16.0724 8.79569 15.3241 8.79569M11.1655 11.4687H13.4374V11.1947H11.4698V7.46633H11.1631V11.4687H11.1655Z" fill="black"/>
<path d="M63.0217 1.61286C62.428 1.61286 62.2096 2.10363 62.2096 2.10363C62.2096 2.10363 62.0379 1.61286 61.3607 1.61286C60.8062 1.61286 60.6075 2.07028 60.6075 2.07028V1.68195H60.1487V4.324H60.6443V2.48243C60.6443 2.48243 60.8259 2.05837 61.2282 2.05837C61.5815 2.05837 61.8121 2.2704 61.8121 2.69923V4.324H62.3077V2.48243C62.3077 2.48243 62.4844 2.05837 62.8917 2.05837C63.245 2.05837 63.4756 2.2704 63.4756 2.69923V4.324H63.9712V2.62537C63.9712 1.9726 63.5933 1.61286 63.029 1.61286M57.7468 4.39071C58.3356 4.39071 58.5834 3.91662 58.5834 3.91662V4.32162H59.0422V1.68195H58.5466V3.51161C58.5466 3.51161 58.3282 3.94521 57.8695 3.94521C57.5039 3.94521 57.2168 3.74985 57.2168 3.29958V1.68195H56.7212V3.38058C56.7212 4.03335 57.2046 4.39309 57.7468 4.39309M54.9425 0.83383C54.9425 1.01013 55.0946 1.16021 55.2786 1.16021C55.4626 1.16021 55.6147 1.01251 55.6147 0.83383C55.6147 0.655152 55.4626 0.507445 55.2786 0.507445C55.0946 0.507445 54.9425 0.655152 54.9425 0.83383ZM55.0308 4.32162H55.5264V1.68195H55.0308V4.324V4.32162ZM53.8065 1.61286C53.2889 1.61286 53.046 2.08696 53.046 2.08696V1.68195H52.5872V4.324H53.0828V2.50625C53.0828 2.50625 53.2766 2.06075 53.706 2.06075C53.912 2.06075 54.0175 2.11793 54.0175 2.11793L54.1991 1.68434C54.1991 1.68434 54.0274 1.61525 53.8041 1.61525M49.4787 2.77308C49.513 2.49911 49.7559 2.05837 50.3447 2.05837C50.8919 2.05837 51.1691 2.47528 51.1863 2.77308H49.4787ZM50.3447 1.61286C49.5253 1.61286 48.9855 2.2299 48.9855 3.00179C48.9855 3.77367 49.5793 4.39071 50.4036 4.39071C51.1225 4.39071 51.5347 3.87135 51.5347 3.87135L51.2231 3.55688C51.2231 3.55688 50.9409 3.94521 50.4036 3.94521C49.8663 3.94521 49.4958 3.57356 49.4664 3.17332H51.6622C51.6671 3.11138 51.6671 3.07088 51.6671 3.01846C51.6671 2.16557 51.1029 1.61286 50.3423 1.61286M46.3702 2.11555H46.9001V3.56164C46.9001 4.14532 47.3294 4.39071 47.7195 4.39071C47.879 4.39071 48.0483 4.35736 48.2838 4.23109L48.1023 3.83562C48.1023 3.83562 47.9428 3.94521 47.7907 3.94521C47.5257 3.94521 47.3957 3.7975 47.3957 3.5402V2.11555H48.2446V1.68195H47.3957V0.876712H46.9001V1.68195H46.3702V2.11555ZM43.3966 3.83562C43.3966 3.83562 43.7965 4.39071 44.562 4.39071C45.087 4.39071 45.639 4.12865 45.639 3.61882C45.639 3.0804 45.1974 2.8922 44.6797 2.78499C44.2332 2.69446 44.0198 2.58487 44.0198 2.38475C44.0198 2.21322 44.1915 2.04646 44.5374 2.04646C44.9496 2.04646 45.2195 2.33711 45.2195 2.33711L45.5433 2.01072C45.5433 2.01072 45.1778 1.61048 44.5374 1.61048C43.9314 1.61048 43.5364 1.9869 43.5364 2.37046C43.5364 2.86837 43.9486 3.08993 44.5325 3.20429C44.9496 3.28529 45.1508 3.39964 45.1508 3.62835C45.1508 3.84038 44.8392 3.95474 44.562 3.95474C44.0271 3.95474 43.7376 3.52591 43.7376 3.52591L43.3966 3.83562ZM41.7945 0.83383C41.7945 1.01013 41.9466 1.16021 42.1306 1.16021C42.3146 1.16021 42.4667 1.01251 42.4667 0.83383C42.4667 0.655152 42.3146 0.507445 42.1306 0.507445C41.9466 0.507445 41.7945 0.655152 41.7945 0.83383ZM41.8828 4.32162H42.3784V1.68195H41.8828V4.324V4.32162ZM39.6649 1.61286C39.0761 1.61286 38.8283 2.0536 38.8283 2.0536V1.68195H38.3695V4.324H38.8651V2.50625C38.8651 2.50625 39.1006 2.06075 39.5422 2.06075C39.9078 2.06075 40.1948 2.2561 40.1948 2.70637V4.324H40.6904V2.62537C40.6904 1.9726 40.2071 1.61286 39.6649 1.61286ZM36.5907 0.83383C36.5907 1.01013 36.7428 1.16021 36.9268 1.16021C37.1108 1.16021 37.263 1.01251 37.263 0.83383C37.263 0.655152 37.1108 0.507445 36.9268 0.507445C36.7428 0.507445 36.5907 0.655152 36.5907 0.83383ZM36.679 4.32162H37.1746V1.68195H36.679V4.324V4.32162ZM34.5421 1.61286C33.9484 1.61286 33.73 2.10363 33.73 2.10363C33.73 2.10363 33.5583 1.61286 32.8811 1.61286C32.3266 1.61286 32.1279 2.07028 32.1279 2.07028V1.68195H31.6691V4.324H32.1647V2.48243C32.1647 2.48243 32.3463 2.05837 32.7486 2.05837C33.1019 2.05837 33.3325 2.2704 33.3325 2.69923V4.324H33.8281V2.48243C33.8281 2.48243 34.0048 2.05837 34.4121 2.05837C34.7654 2.05837 34.996 2.2704 34.996 2.69923V4.324H35.4916V2.62537C35.4916 1.9726 35.1137 1.61286 34.5495 1.61286M28.46 3.83562C28.46 3.83562 28.8599 4.39071 29.6254 4.39071C30.1504 4.39071 30.7024 4.12865 30.7024 3.61882C30.7024 3.0804 30.2608 2.8922 29.7431 2.78499C29.2966 2.69446 29.0832 2.58487 29.0832 2.38475C29.0832 2.21322 29.2549 2.04646 29.6008 2.04646C30.013 2.04646 30.2829 2.33711 30.2829 2.33711L30.6068 2.01072C30.6068 2.01072 30.2412 1.61048 29.6008 1.61048C28.9948 1.61048 28.5998 1.9869 28.5998 2.37046C28.5998 2.86837 29.012 3.08993 29.5959 3.20429C30.013 3.28529 30.2142 3.39964 30.2142 3.62835C30.2142 3.84038 29.9026 3.95474 29.6254 3.95474C29.0905 3.95474 28.801 3.52591 28.801 3.52591L28.46 3.83562ZM25.5257 2.77308C25.56 2.49911 25.8029 2.05837 26.3917 2.05837C26.9389 2.05837 27.2161 2.47528 27.2333 2.77308H25.5257ZM26.3917 1.61286C25.5723 1.61286 25.0325 2.2299 25.0325 3.00179C25.0325 3.77367 25.6263 4.39071 26.4506 4.39071C27.1695 4.39071 27.5817 3.87135 27.5817 3.87135L27.2701 3.55688C27.2701 3.55688 26.9879 3.94521 26.4506 3.94521C25.9133 3.94521 25.5428 3.57356 25.5134 3.17332H27.7092C27.7142 3.11138 27.7141 3.07088 27.7141 3.01846C27.7141 2.16557 27.1499 1.61286 26.3893 1.61286M23.5138 3.48779C23.5138 3.48779 23.2538 3.94521 22.714 3.94521C22.1743 3.94521 21.8136 3.52114 21.8136 3.00179C21.8136 2.48243 22.1718 2.05837 22.714 2.05837C23.2562 2.05837 23.5138 2.51578 23.5138 2.51578V3.48779ZM22.6355 1.61286C21.8995 1.61286 21.3156 2.22513 21.3156 3.00179C21.3156 3.77844 21.8995 4.39071 22.6355 4.39071C23.2881 4.39071 23.5531 3.93806 23.5531 3.93806V4.32162H24.007V0H23.5114V2.00596C23.5114 2.00596 23.2342 1.61048 22.6331 1.61048M19.3724 1.61286C18.7836 1.61286 18.5358 2.0536 18.5358 2.0536V1.68195H18.077V4.324H18.5726V2.50625C18.5726 2.50625 18.8081 2.06075 19.2498 2.06075C19.6153 2.06075 19.9024 2.2561 19.9024 2.70637V4.324H20.398V2.62537C20.398 1.9726 19.9146 1.61286 19.3724 1.61286ZM15.6751 4.39071C16.2639 4.39071 16.5117 3.91662 16.5117 3.91662V4.32162H16.9705V1.68195H16.4749V3.51161C16.4749 3.51161 16.2566 3.94521 15.7978 3.94521C15.4322 3.94521 15.1451 3.74985 15.1451 3.29958V1.68195H14.6495V3.38058C14.6495 4.03335 15.1329 4.39309 15.6751 4.39309M11.5827 2.04646V0.776653H12.255C12.7211 0.776653 13.0033 1.02204 13.0033 1.41036C13.0033 1.79869 12.7211 2.04407 12.255 2.04407H11.5827V2.04646ZM12.3777 3.8642H11.5827V2.49196H12.3777C12.9665 2.49196 13.2266 2.80167 13.2266 3.17808C13.2266 3.5545 12.9665 3.8642 12.3777 3.8642ZM11.0896 4.32162H12.3801C13.1922 4.32162 13.7221 3.87612 13.7221 3.17808C13.7221 2.38237 13.0916 2.20607 13.0327 2.19416C13.0916 2.18225 13.4989 1.95354 13.4989 1.41036C13.4989 0.740917 13.0229 0.319238 12.174 0.319238H11.0896V4.32162Z" fill="black"/>
<path d="M6.43293 1.62717V0.276367H0L0.64771 1.62717H6.43293Z" fill="black"/>
<path d="M1.94557 4.32871H6.43293V2.97791H1.29541L1.94557 4.32871Z" fill="black"/>
</g>
<defs>
<clipPath id="clip0_328_5932">
<rect width="100" height="20" fill="white"/>
</clipPath>
</defs>
</svg>
