<svg width="66" height="67" viewBox="0 0 66 67" fill="none" xmlns="http://www.w3.org/2000/svg">
<g clip-path="url(#clip0_328_4859)">
<path d="M28.043 0.380731L29.0035 4.91807C29.3022 6.33097 29.5054 7.63035 27.7564 8.00409C26.0074 8.37784 25.667 7.1064 25.3665 5.697L24.4061 1.15966L22.6223 1.54039L23.7304 6.77108C24.2011 8.9926 26.0161 9.73135 28.0308 9.30172C30.0438 8.87034 31.4038 7.4557 30.9331 5.23244L29.8267 0L28.043 0.380731Z" fill="black"/>
<path fill-rule="evenodd" clip-rule="evenodd" d="M18.0509 13.0217L17.7001 11.1355L20.6145 9.44319L22.0457 10.7024L23.6349 9.77852L16.8282 3.8667L14.9524 4.95475L16.5433 13.8967L18.0527 13.0217H18.0509ZM17.4013 9.66849L16.6667 5.88562L16.6875 5.8734L19.5099 8.44421L17.4013 9.66849Z" fill="black"/>
<path d="M16.0188 14.9114L9.60289 9.30872L8.48437 10.6029L13.5143 14.9935V15.0284L6.34805 13.0759L4.573 15.128L10.9889 20.7324L12.1074 19.4383L6.79268 14.7979V14.7647L14.3219 16.8762L16.0188 14.9114Z" fill="black"/>
<path fill-rule="evenodd" clip-rule="evenodd" d="M9.992 25.0322C10.6225 22.278 9.03848 20.5997 6.59648 20.0338C4.15274 19.4662 1.99906 20.2783 1.36685 23.0325C0.736372 25.7867 2.32037 27.4685 4.76237 28.0327C7.20437 28.5968 9.36153 27.7864 9.992 25.0322ZM2.65037 23.3311C3.05506 21.5672 4.73806 21.6056 6.16053 21.934C7.583 22.2623 9.11142 22.9714 8.70674 24.7336C8.30206 26.4975 6.62079 26.4591 5.19658 26.1307C3.77411 25.8024 2.24569 25.0933 2.65037 23.3311Z" fill="black"/>
<path fill-rule="evenodd" clip-rule="evenodd" d="M1.41194 35.1863V34.2397C1.38763 32.0618 2.89521 31.7422 4.24821 31.7422C5.60121 31.7422 7.10878 32.0618 7.08447 34.2362V35.1828L1.41194 35.1845V35.1863ZM8.5 37.0183V34.107C8.52084 31.4436 7.20257 29.7897 4.24647 29.7897C1.2921 29.7914 -0.0261625 31.4488 -0.000109874 34.1087V37.0201H8.49826L8.5 37.0183Z" fill="black"/>
<path d="M42.8862 1.55261L41.7312 1.32731L40.703 6.66978C40.3904 8.10363 39.3847 8.7149 38.0699 8.45991C36.7517 8.20143 36.0482 7.25484 36.2914 5.80876L37.3231 0.464553L36.1681 0.239258L35.192 5.30403C34.7421 7.45744 35.6158 9.01529 37.8806 9.45715C40.142 9.89901 41.5332 8.78476 41.9153 6.61738L42.8914 1.55261H42.8862Z" fill="black"/>
<path d="M52.0463 6.25933L48.3242 12.2497L48.3051 12.2375L48.5118 4.03956L47.1466 3.1803L42.6465 10.4282L43.5357 10.9835L47.3533 4.83246L47.3742 4.84643L47.1953 13.2871L48.4336 14.0626L52.9321 6.8182L52.0445 6.25933H52.0463Z" fill="black"/>
<path d="M51.4418 17.1749L57.651 11.3486L56.8486 10.4841L50.6394 16.3086L51.4418 17.1749Z" fill="black"/>
<path d="M63.2279 19.8469L55.6483 21.1516L55.6361 21.1306L60.7581 15.3672L60.1884 14.3298L54.2258 21.1324L54.8511 22.2711L63.7958 20.8826L63.2261 19.8487L63.2279 19.8469Z" fill="black"/>
<path d="M57.4773 30.9703L58.4655 30.759L57.5849 26.5796L60.3344 25.9928L61.1541 29.8822L62.1459 29.6692L61.3244 25.7833L63.914 25.2296L64.7755 29.3146L65.7637 29.1016L64.6574 23.8586L56.3535 25.6366L57.479 30.972L57.4773 30.9703Z" fill="black"/>
<path fill-rule="evenodd" clip-rule="evenodd" d="M64.911 34.7828L64.7738 36.7301C64.6227 38.0365 64.0165 38.2897 63.3478 38.2425C62.6792 38.1954 62.1129 37.8583 62.1459 36.545L62.2832 34.5976L64.9127 34.7828H64.911ZM61.1559 36.2027C61.0882 36.6742 61.0899 37.1475 60.6783 37.4619C60.2285 37.8216 59.5372 37.7745 58.7678 37.8147C58.2589 37.8391 57.6962 37.9421 57.1855 38.0103L57.0952 39.2747C57.915 39.0232 58.8251 38.9935 59.6796 38.9219C60.6384 38.8573 61.189 38.756 61.5068 37.7448H61.5311C61.6961 38.756 62.4395 39.4232 63.4607 39.4965C65.1385 39.6118 65.6874 38.1692 65.7864 36.7423L66 33.6965L57.5294 33.1027L57.4478 34.2833L61.2723 34.5505L61.1577 36.2027H61.1559Z" fill="black"/>
<path d="M59.0022 41.1941C57.2967 40.3419 56.0652 41.2011 55.3132 42.8201C54.5855 44.385 54.4726 46.2502 56.2216 47.071C58.1616 47.9792 59.063 46.0389 60.1833 44.8303C60.7113 44.2557 61.0517 43.6567 61.9254 44.0688C62.8441 44.4967 62.6357 45.6686 62.2831 46.4283C61.9254 47.2003 61.2879 47.7888 60.4056 47.4273L59.8828 48.5538C61.3748 49.2541 62.5645 48.2324 63.1759 46.9138C63.8498 45.466 63.9401 43.6427 62.2675 42.8568C60.5428 42.0482 59.2697 44.0357 58.3978 45.1813C57.9723 45.7629 57.3748 46.2415 56.628 45.8922C55.5529 45.3874 55.7926 44.1946 56.2025 43.3179C56.6853 42.277 57.3835 41.8334 58.4812 42.3241L59.004 41.1976L59.0022 41.1941Z" fill="black"/>
<path d="M52.2146 48.704L59.0855 53.7268L59.7768 52.768L52.9059 47.7487L52.2146 48.704Z" fill="black"/>
<path d="M49.0049 52.0694L48.1035 52.8291L52.9094 58.5942L50.7279 60.435L51.3775 61.2139L56.6436 56.7709L55.994 55.992L53.8125 57.831L49.0067 52.0676L49.0049 52.0694Z" fill="black"/>
<path fill-rule="evenodd" clip-rule="evenodd" d="M45.6356 54.6768L45.7364 57.0817L42.1619 58.7566L40.3973 57.1306L39.2354 57.6755L45.9361 63.9576L47.0772 63.4232L46.735 54.1616L45.6356 54.6768ZM46.0629 62.6058L42.9331 59.5198L45.8024 58.175L46.0629 62.6058Z" fill="black"/>
<path d="M47.4365 64.3192C47.4365 63.9472 47.737 63.645 48.1069 63.645C48.4769 63.645 48.7774 63.9472 48.7774 64.3192C48.7774 64.6912 48.4786 64.9933 48.1069 64.9933C47.7353 64.9933 47.4365 64.6912 47.4365 64.3192Z" fill="black"/>
<path d="M47.4365 64.3192C47.4365 63.9472 47.737 63.645 48.1069 63.645C48.4769 63.645 48.7774 63.9472 48.7774 64.3192C48.7774 64.6912 48.4786 64.9933 48.1069 64.9933C47.7353 64.9933 47.4365 64.6912 47.4365 64.3192Z" fill="black" stroke="black" stroke-width="0.28" stroke-miterlimit="52.36"/>
<path d="M45.1387 65.3653C45.1387 64.9933 45.4391 64.6912 45.8091 64.6912C46.179 64.6912 46.4795 64.9933 46.4795 65.3653C46.4795 65.7373 46.1808 66.0394 45.8091 66.0394C45.4374 66.0394 45.1387 65.7373 45.1387 65.3653Z" fill="black"/>
<path d="M45.1387 65.3653C45.1387 64.9933 45.4391 64.6912 45.8091 64.6912C46.179 64.6912 46.4795 64.9933 46.4795 65.3653C46.4795 65.7373 46.1808 66.0394 45.8091 66.0394C45.4374 66.0394 45.1387 65.7373 45.1387 65.3653Z" fill="black" stroke="black" stroke-width="0.28" stroke-miterlimit="52.36"/>
<path d="M36.9201 57.9777L35.7547 58.1436L36.7933 65.594L33.9709 65.9922L34.1116 66.9999L40.9183 66.0394L40.7794 65.0317L37.957 65.4299L36.9184 57.9794L36.9201 57.9777Z" fill="black"/>
<path d="M6.58078 42.8043L6.21778 41.7983L1.55957 43.5046L1.92431 44.5106L4.29683 43.6391L4.30204 43.6531L2.51831 46.1506L2.96989 47.4028L4.86652 44.591L7.57078 45.5463L7.14699 44.3726L4.57125 43.5535L4.56604 43.5396L6.57904 42.8043H6.58078Z" fill="black"/>
<path fill-rule="evenodd" clip-rule="evenodd" d="M8.61643 49.2505L9.17743 49.9491C9.46749 50.3159 9.49528 50.6495 9.15312 50.9271C8.8127 51.2066 8.45838 51.1385 8.15964 50.7787L7.59691 50.0836L8.61643 49.2523V49.2505ZM6.95949 50.6006L7.66638 51.4808C7.87654 51.762 7.62643 52.0536 7.43017 52.2492C7.11233 52.5688 6.79622 52.8884 6.51138 53.236L7.2478 54.1546C7.33638 53.8263 7.76364 53.4229 7.97901 53.1871C8.45491 52.6824 8.8457 52.3662 8.40106 51.6694L8.40975 51.6607C8.8978 52.0554 9.49006 52.1147 9.99201 51.7061C10.7753 51.0669 10.4419 50.2128 9.91212 49.5422L8.58691 47.8953L4.73633 51.0337L5.40501 51.865L6.95775 50.6006H6.95949Z" fill="black"/>
<path d="M10.2144 57.5708L12.8526 59.7225L13.3702 59.078L11.5587 57.6005L12.3924 56.5631L14.0354 57.9009L14.553 57.2565L12.9099 55.9187L13.6394 55.0122L15.3936 56.4426L15.9112 55.7982L13.332 53.6971L10.2161 57.5691L10.2144 57.5708Z" fill="black"/>
<path d="M22.433 60.5747L22.4399 60.5939L20.5172 64.3943L21.403 64.8483L23.6505 60.4088L22.1516 59.6404L19.5151 62.3544L19.5029 62.3491L20.2133 58.6449L18.6605 57.8502L16.4148 62.2898L17.3006 62.7438L19.2233 58.9435L19.2424 58.9383L18.4816 63.3499L19.2702 63.755L22.433 60.5747Z" fill="black"/>
<path d="M29.9831 63.2345C30.155 62.2495 29.5107 61.6016 28.5641 61.4339C27.5637 61.2558 26.4504 61.5719 26.2524 62.6931C26.1013 63.5611 26.9801 64.0397 27.6314 64.3313C28.0309 64.5165 28.7204 64.6789 28.6197 65.257C28.5276 65.7809 27.951 65.8106 27.5324 65.7372C26.9836 65.6394 26.7369 65.2168 26.8742 64.6824L25.806 64.4937C25.5559 65.725 26.2715 66.2996 27.3848 66.4987C28.4321 66.6838 29.5628 66.4498 29.7747 65.2325C29.9466 64.2475 28.8889 63.8406 28.1785 63.5192C27.779 63.3446 27.3153 63.1979 27.4091 62.6669C27.482 62.2408 27.911 62.1063 28.2966 62.1744C28.802 62.2635 29.0244 62.5552 28.9775 63.0564L29.9848 63.2363L29.9831 63.2345Z" fill="black"/>
<path d="M39.5688 16.8203H37.8788L37.3439 15.1629L36.7916 16.8203H35.0339L36.4511 17.8455L35.9006 19.5029L37.3144 18.469L38.7455 19.5029L38.2019 17.8193L39.5688 16.8203ZM33.1042 10.933C45.4549 10.933 55.4661 21.0014 55.4661 33.4188C55.4661 45.8363 45.4532 55.9047 33.1042 55.9047V43.0454C38.3981 43.0454 42.6881 38.7316 42.6881 33.4101C42.6881 28.0886 38.3981 23.7731 33.1042 23.7731V10.933Z" fill="black"/>
<path d="M24.0517 19.3789L20.3817 22.0598L21.7312 17.7861L23.1311 22.1244L19.4612 19.4435L24.0517 19.3789Z" fill="black"/>
<path d="M24.0517 19.3789L20.3817 22.0598L21.7312 17.7861L23.1311 22.1244L19.4612 19.4435L24.0517 19.3789Z" fill="black" stroke="black" stroke-width="0.28" stroke-miterlimit="52.36"/>
<path d="M19.1382 24.9432L15.4682 27.624L16.8681 23.2858L18.2715 27.624L14.6016 24.9432H19.1365H19.1382Z" fill="black"/>
<path d="M19.1382 24.9432L15.4682 27.624L16.8681 23.2858L18.2715 27.624L14.6016 24.9432H19.1365H19.1382Z" fill="black" stroke="black" stroke-width="0.28" stroke-miterlimit="52.36"/>
<path d="M17.2085 32.3919L13.5386 35.0727L14.9385 30.7345L16.3418 35.0727L12.6719 32.3919H17.2068H17.2085Z" fill="black"/>
<path d="M17.2085 32.3919L13.5386 35.0727L14.9385 30.7345L16.3418 35.0727L12.6719 32.3919H17.2068H17.2085Z" fill="black" stroke="black" stroke-width="0.28" stroke-miterlimit="52.36"/>
<path d="M30.7769 16.8534L27.107 19.5343L28.4773 15.196L29.8772 19.5343L26.2073 16.8534H30.7769Z" fill="black"/>
<path d="M30.7769 16.8534L27.107 19.5343L28.4773 15.196L29.8772 19.5343L26.2073 16.8534H30.7769Z" fill="black" stroke="black" stroke-width="0.28" stroke-miterlimit="52.36"/>
<path d="M18.8169 39.7707L15.147 42.4515L16.5469 38.1133L17.9502 42.4515L14.2803 39.7707H18.8152H18.8169Z" fill="black"/>
<path d="M18.8169 39.7707L15.147 42.4515L16.5469 38.1133L17.9502 42.4515L14.2803 39.7707H18.8152H18.8169Z" fill="black" stroke="black" stroke-width="0.28" stroke-miterlimit="52.36"/>
<path d="M23.6541 45.8851L19.9841 48.5659L21.384 44.2277L22.7874 48.5659L19.1174 45.8851H23.6523H23.6541Z" fill="black"/>
<path d="M23.6541 45.8851L19.9841 48.5659L21.384 44.2277L22.7874 48.5659L19.1174 45.8851H23.6523H23.6541Z" fill="black" stroke="black" stroke-width="0.28" stroke-miterlimit="52.36"/>
</g>
<defs>
<clipPath id="clip0_328_4859">
<rect width="66" height="67" fill="white"/>
</clipPath>
</defs>
</svg>
