<svg width="66" height="34" viewBox="0 0 66 34" fill="none" xmlns="http://www.w3.org/2000/svg">
<g clip-path="url(#clip0_328_5279)">
<path d="M50.7208 5.75806H53.0194V18.8508C53.0194 19.3032 53.325 20.4919 53.5346 20.9333C54.7191 23.4244 58.8837 23.2434 59.7856 20.5015C59.906 20.1354 60.1859 19.0373 60.1859 18.7137V5.75806H66.0001V28.2419H60.1859V26.4597C56.8312 29.2743 51.0169 28.7958 48.6669 24.9091L47.7474 23.0323L46.1153 33.5106C46.1329 33.6586 45.8598 33.9986 45.7854 33.9986H14.6859C14.5412 33.9986 14.4817 33.6765 14.4776 33.527C14.433 32.1725 15.2619 29.5457 15.4133 28.0185C15.4377 27.7731 15.4404 27.5263 15.4282 27.2809C9.92494 29.628 2.85993 27.6689 0.764093 21.6544C-1.30606 15.7113 0.822236 8.18742 7.18142 6.2379C11.0729 5.04516 14.6859 6.01169 17.3915 9.04702C17.5092 9.17863 18.2285 10.359 18.4029 10.1452L19.8998 0.488065C19.8822 0.34 20.1553 0 20.2297 0H51.3293C51.4374 0 51.5821 0.327661 51.5375 0.471613L50.7208 5.75806ZM46.9348 6.03226H43.8924C43.4962 6.03226 43.242 3.35476 43.1474 2.87903L41.4585 6.03226H38.281L44.6347 11.2419L44.0858 8.04621L46.9348 6.03226ZM20.4325 27.9677H28.0046L29.6285 18.0968L36.3109 27.8402L42.067 27.9691L44.2291 14.6035L37.4697 9.04976L36.4948 15.5331L36.1202 15.7661C34.1731 12.8569 32.3802 9.74621 30.2789 6.94944C30.1423 6.76847 29.8165 6.24339 29.7056 6.15976C29.1499 5.74847 24.923 6.20637 23.9495 6.03089L20.4339 27.9664L20.4325 27.9677ZM13.9422 14.5323C13.4825 9.69274 6.75414 9.58169 6.37012 14.5323H13.9422ZM16.9169 18.9194H6.23491C6.6676 23.1296 12.0194 23.752 14.7062 21.2665L16.3761 22.3468L16.9183 18.9207L16.9169 18.9194Z" fill="black"/>
</g>
<defs>
<clipPath id="clip0_328_5279">
<rect width="66" height="34" fill="white"/>
</clipPath>
</defs>
</svg>
