<svg width="90" height="32" viewBox="0 0 90 32" fill="none" xmlns="http://www.w3.org/2000/svg">
<g clip-path="url(#clip0_328_4943)">
<path d="M82.4621 20.4053C82.0937 20.0271 81.9115 19.5685 81.9115 19.0334C81.9115 18.4983 82.0937 18.0517 82.4581 17.6736C82.8265 17.2914 83.2701 17.0942 83.7851 17.0942C84.3 17.0942 84.7318 17.2873 85.1002 17.6655C85.4685 18.0437 85.6587 18.5104 85.6587 19.0334C85.6587 19.5564 85.4765 20.0271 85.1081 20.4053C84.7397 20.7875 84.2921 20.9766 83.789 20.9766C83.2741 20.9766 82.8305 20.7875 82.47 20.4053H82.4621ZM90 24.7865V23.6077C90 22.4933 89.1088 21.5881 88.0116 21.5881H79.5546C78.4574 21.5881 77.5662 22.4933 77.5662 23.6077V28.0492H86.9975V28.7211H77.5662V29.8999C77.5662 31.0143 78.4574 31.9195 79.5546 31.9195H88.0116C89.1088 31.9195 90 31.0143 90 29.8999V25.4583H80.5687V24.7865H90Z" fill="black"/>
<path d="M0 5.41107C0 4.79955 0.269354 4.48977 0.875402 4.48977H6.44074V5.7651C6.44074 6.37662 6.13969 6.67031 5.53365 6.67031H2.54302V8.52497H5.88222V10.625H2.54302V12.6447H6.516V13.92C6.516 14.5355 6.21495 14.8252 5.60891 14.8252H0.875402C0.273315 14.8252 0 14.5194 0 13.9039V5.41107ZM7.5538 5.41107C7.5538 4.79955 7.82316 4.48977 8.42921 4.48977H11.7367C14.0579 4.48977 15.3928 5.57199 15.3928 7.60367C15.3928 9.00775 14.8699 9.91295 13.6143 10.4279L15.6027 14.3666C15.6661 14.5114 15.7453 14.6562 15.7453 14.8172H13.5509C13.0914 14.8172 12.8973 14.8172 12.6755 14.3505L10.897 10.621H10.1008V14.8212H7.55777V5.41107H7.5538ZM10.0968 6.67031V8.52497H11.5426C12.2754 8.52497 12.8458 8.42842 12.8458 7.60367C12.8458 6.77893 12.2754 6.66628 11.5426 6.66628H10.0968V6.67031ZM19.5559 4.41333C21.6711 4.41333 22.7684 4.65472 22.7684 5.65648V6.67433H19.8768C19.0964 6.67433 18.8746 6.88353 18.8746 7.30596C18.8746 8.54911 23.2952 8.29163 23.2952 11.7797C23.2952 13.4412 22.3564 14.9097 19.4965 14.9097C17.6189 14.9097 16.1415 14.6039 16.1415 13.6665V12.6487H19.5599C20.261 12.6487 20.5937 12.4234 20.5937 11.9205C20.5937 10.5647 16.189 10.8222 16.189 7.23757C16.189 5.65648 17.2228 4.41333 19.5599 4.41333H19.5559ZM30.2865 4.49379V5.80131C30.2865 6.39673 29.9855 6.67433 29.3953 6.67433H28.1396V14.8292H25.5966V6.67433H23.4497V5.36681C23.4497 4.77139 23.7507 4.49379 24.3409 4.49379H30.2865ZM31.0827 5.41107C31.0827 4.79955 31.3521 4.48977 31.9581 4.48977H37.5195V5.7651C37.5195 6.37662 37.2184 6.67031 36.6124 6.67031H33.6257V8.52497H36.9649V10.625H33.6257V12.6447H37.5987V13.92C37.5987 14.5355 37.2977 14.8252 36.6916 14.8252H31.9541C31.3481 14.8252 31.0787 14.5194 31.0787 13.9039V5.41107H31.0827Z" fill="black"/>
<path d="M3.41837 21.5037C5.53359 21.5037 6.63082 21.745 6.63082 22.7468V23.7647H3.73922C2.95888 23.7647 2.73706 23.9739 2.73706 24.3923C2.73706 25.6354 7.15764 25.3779 7.15764 28.866C7.15764 30.5275 6.21886 31.996 3.35895 31.996C1.48139 31.996 0.00390625 31.6902 0.00390625 30.7528V29.735H3.42233C4.12344 29.735 4.45617 29.5097 4.45617 29.0068C4.45617 27.651 0.0514394 27.9085 0.0514394 24.3239C0.0514394 22.7428 1.08528 21.4996 3.42233 21.4996L3.41837 21.5037Z" fill="black"/>
<path d="M12.4502 21.584C14.7711 21.5841 16.1377 22.6183 16.1377 24.7344C16.1376 26.8503 14.7711 27.7196 12.4502 27.7197H10.8135V31.915H8.27051V22.501L8.2666 22.5059C8.2666 21.8943 8.53653 21.584 9.14258 21.584H12.4502ZM10.8096 25.6191H12.2559C13.0994 25.6191 13.5908 25.4419 13.5908 24.6816C13.5907 23.9216 13.0993 23.7608 12.2559 23.7607H10.8096V25.6191Z" fill="black"/>
<path d="M21.4092 21.5518C21.837 21.5518 22.0436 21.6006 22.1426 21.9707L24.5107 31.5127C24.5424 31.6573 24.5586 31.8025 24.5586 31.915H22.4756C22.0478 31.915 21.921 31.8832 21.8418 31.5293L21.3506 29.4609H18.9814L18.5225 31.5293C18.4433 31.8832 18.3161 31.915 17.8887 31.915H15.8203C15.8204 31.8025 15.8365 31.6734 15.8682 31.5127L18.2373 21.9707C18.3324 21.6006 18.538 21.5518 18.9697 21.5518H21.4092ZM19.3623 27.5264H20.9346L20.1699 24.2148H20.1064L19.3623 27.5264Z" fill="black"/>
<path d="M29.5342 21.584C31.8553 21.584 33.1904 22.6666 33.1904 24.6982C33.1904 26.1022 32.6667 27.0075 31.4111 27.5225L33.4004 31.4609C33.4637 31.6056 33.5429 31.7504 33.543 31.9111H31.3486C30.8891 31.9111 30.6945 31.911 30.4727 31.4443L28.6943 27.7158H27.8984V31.9111H25.3555V22.4971L25.3506 22.5059C25.3506 21.8943 25.6205 21.584 26.2266 21.584H29.5342ZM27.8945 25.6191H29.3398C30.0726 25.6191 30.6425 25.5228 30.6426 24.6982C30.6426 23.8735 30.0726 23.7607 29.3398 23.7607H27.8945V25.6191Z" fill="black"/>
<path d="M36.9571 26.3153L39.5001 22.0548C39.7378 21.6364 39.8804 21.5881 40.2171 21.5881H42.6016C42.6016 21.7491 42.57 21.8778 42.4749 22.0387L39.5516 26.5768L42.6175 31.4689C42.6967 31.5977 42.7601 31.7586 42.7601 31.9195H40.4547C39.9794 31.9195 39.8368 31.8874 39.5635 31.4529L36.9571 27.2085V31.9236H34.4141V22.5135C34.4141 21.9019 34.6834 21.5922 35.2895 21.5922H36.9571V26.3234V26.3153Z" fill="black"/>
<path d="M48.5117 21.5518C48.9394 21.5518 49.1451 21.6006 49.2441 21.9707L51.6133 31.5127C51.6449 31.6573 51.6611 31.8025 51.6611 31.915H49.5771C49.1494 31.915 49.0226 31.8833 48.9395 31.5293L48.4482 29.4609H46.0791L45.6201 31.5293C45.5409 31.8833 45.414 31.915 44.9824 31.915H42.9141C42.9141 31.8025 42.9303 31.6734 42.9619 31.5127L45.3311 21.9707C45.4261 21.6006 45.6318 21.5518 46.0635 21.5518H48.5117ZM46.46 27.5264H48.0361L47.2715 24.2148H47.208L46.46 27.5264Z" fill="black"/>
<path d="M55.6335 21.5037C57.7487 21.5037 58.8459 21.745 58.8459 22.7468V23.7647H55.9543C55.174 23.7647 54.9521 23.9739 54.9521 24.3923C54.9521 25.6354 59.3727 25.3779 59.3727 28.866C59.3727 30.5275 58.4339 31.996 55.574 31.996C53.6965 31.996 52.219 31.6902 52.219 30.7528V29.735H55.6374C56.3385 29.735 56.6713 29.5097 56.6713 29.0068C56.6713 27.651 52.2665 27.9085 52.2665 24.3239C52.2665 22.7428 53.3004 21.4996 55.6374 21.4996L55.6335 21.5037Z" fill="black"/>
<path d="M63.5004 21.5037C65.6156 21.5037 66.7128 21.745 66.7128 22.7468V23.7647H63.8212C63.0409 23.7647 62.8191 23.9739 62.8191 24.3923C62.8191 25.6354 67.2397 25.3779 67.2397 28.866C67.2397 30.5275 66.3009 31.996 63.441 31.996C61.5674 31.996 60.0859 31.6902 60.0859 30.7528V29.735H63.5044C64.2055 29.735 64.5382 29.5097 64.5382 29.0068C64.5382 27.651 60.1335 27.9085 60.1335 24.3239C60.1335 22.7428 61.1673 21.4996 63.5044 21.4996L63.5004 21.5037Z" fill="black"/>
<path d="M68.3487 22.5054C68.3487 21.8939 68.618 21.5841 69.2241 21.5841H74.7894V22.8594C74.7894 23.471 74.4884 23.7646 73.8823 23.7646H70.8917V25.6193H74.2309V27.7194H70.8917V29.739H74.8647V31.0143C74.8647 31.6258 74.5636 31.9195 73.9576 31.9195H69.2201C68.618 31.9195 68.3447 31.6138 68.3447 30.9982V22.5054H68.3487Z" fill="black"/>
<path d="M45.1961 3.31104C44.8277 2.93286 44.6455 2.47423 44.6455 1.93915C44.6455 1.40407 44.8277 0.957506 45.1921 0.579331C45.5605 0.197134 46.0042 0 46.5191 0C47.034 0 47.4658 0.19311 47.8342 0.571285C48.2026 0.949459 48.3927 1.41614 48.3927 1.93915C48.3927 2.46216 48.2105 2.93286 47.8421 3.31104C47.4737 3.69324 47.0261 3.88232 46.5231 3.88232C46.0081 3.88232 45.5645 3.69324 45.204 3.31104H45.1961Z" fill="black"/>
<path d="M52.7339 7.69229V6.51351C52.7339 5.3991 51.8427 4.4939 50.7455 4.4939H42.2885C41.1913 4.4939 40.3 5.3991 40.3 6.51351V10.955H49.7314V11.6269H40.3V12.8057C40.3 13.9201 41.1913 14.8253 42.2885 14.8253H50.7455C51.8427 14.8253 52.7339 13.9201 52.7339 12.8057V8.36415H43.3026V7.69229H52.7339Z" fill="black"/>
</g>
<defs>
<clipPath id="clip0_328_4943">
<rect width="90" height="32" fill="white"/>
</clipPath>
</defs>
</svg>
