<svg width="91" height="34" viewBox="0 0 91 34" fill="none" xmlns="http://www.w3.org/2000/svg">
<g clip-path="url(#clip0_328_5314)">
<path fill-rule="evenodd" clip-rule="evenodd" d="M10.743 28.0061C13.3632 29.7207 16.6347 30.3021 19.6097 29.6181C19.1236 29.8477 18.6132 30.0431 18.0833 30.2092C11.6861 32.1681 4.80274 28.1917 2.71247 21.3233C1.36594 16.9023 2.3333 12.3641 4.89997 9.16441C0.802049 12.7989 -1.05976 18.5242 0.607604 23.9906C2.90205 31.5233 11.0201 35.7049 18.7444 33.3357C26.4687 30.9664 30.868 22.9452 28.5736 15.4124C27.7375 12.667 26.1284 10.3661 24.043 8.66613C22.7354 7.46929 21.4132 4.40636 18.7104 3.27303L18.6132 3.23883C17.8257 2.96039 17.0382 2.94573 16.9701 2.94085L16.1729 2.89199C15.5312 2.80895 15.2882 2.73567 14.7875 2.55004C12.4152 1.69516 11.0007 -0.376109 11.1125 0.0586608C11.1125 0.0586608 12.1673 4.60176 13.9708 6.60952C15.7451 8.58309 16.9555 8.76872 17.1159 8.8078C17.4416 8.88596 17.8548 8.98366 18.5645 8.95924C19.318 8.92993 21.0583 8.36326 22.5021 9.28165C23.9409 10.2 24.8402 11.8854 25.1805 12.6328C25.409 13.1408 25.9194 14.0299 26.1187 15.6566C26.3083 18.0112 25.6812 20.4538 24.1791 22.5299C20.8736 27.0926 14.5833 28.1575 10.1208 24.9041C7.91385 23.2969 6.56733 20.9374 6.17358 18.4069C5.83816 22.061 7.45691 25.8567 10.743 28.0061ZM86.1875 19.0127H87.3687V18.4216H87.393C87.709 18.871 88.2048 19.1788 89.0312 19.1788C90.2222 19.1788 91 18.3874 91 17.4055C91 14.9679 87.7333 16.0914 87.7333 14.9679C87.7333 14.45 88.2632 14.3768 88.584 14.3768C89.1625 14.3768 89.5951 14.6601 89.5951 15.3098H90.8347V13.4779H89.6534V14.0544H89.6291C89.2646 13.4877 88.7833 13.3118 88.1465 13.3118C87.1451 13.3118 86.1632 13.8541 86.1632 15.0118C86.1632 17.4739 89.4298 16.3112 89.4298 17.4739C89.4298 17.9966 88.9486 18.1138 88.6034 18.1138C87.9666 18.1138 87.4271 17.7621 87.4271 17.0635H86.1875V19.0127ZM82.2889 19.0127H85.3903V17.9477H84.6222V11.1087H82.284V12.1736H83.0521V17.9477H82.284V19.0127H82.2889ZM78.3659 19.0127H81.4673V17.9477H80.6993V11.1087H78.3611V12.1736H79.1291V17.9477H78.3611V19.0127H78.3659ZM76.7764 11.1087V12.6816H75.1479V11.1087H76.7764ZM74.443 19.0127V17.9477H75.2062V14.5429H74.443V13.4779H76.7764V17.9477H77.5444V19.0127H74.443ZM63.243 19.0127H66.2861V17.8891H65.5666V12.5351H65.5909L67.5257 18.6072H69.1979L71.1326 12.5351H71.1569V17.8891H70.4423V19.0127H73.5583V17.8891H72.5909V12.5351H73.5583V11.4115H70.0875L68.4833 16.6044H68.459L66.8305 11.4115H63.2479V12.5351H64.2104V17.8891H63.2479V19.0127H63.243ZM58.5909 18.0552C59.7673 18.0552 60.0979 17.3322 60.0979 16.1598C60.0979 15.2512 59.6944 14.4354 58.7319 14.4354C57.7694 14.4354 57.4243 15.3342 57.4243 16.2429C57.4194 17.4397 57.9152 18.0552 58.5909 18.0552ZM61.5708 11.1087V17.9477H62.3389V19.0127H60.1562V18.0894H60.1319C59.6361 18.871 59.1548 19.1788 58.1729 19.1788C56.5687 19.1788 55.7909 17.8158 55.7909 16.3259C55.7909 14.2937 56.8264 13.3118 58.2701 13.3118C59.1986 13.3118 59.7187 13.7612 59.9764 14.2937H60.0007V12.1736H59.2326V11.1087H61.5708ZM52.1889 13.3118C53.9243 13.3118 55.1396 14.4012 55.1396 16.2477C55.1396 18.0943 53.9243 19.1788 52.1889 19.1788C50.4534 19.1788 49.243 18.0894 49.243 16.2477C49.243 14.4061 50.4583 13.3118 52.1889 13.3118ZM50.8666 16.2477C50.8666 17.1222 51.1875 18.0552 52.1889 18.0552C53.1902 18.0552 53.5111 17.1222 53.5111 16.2477C53.5111 15.3733 53.1951 14.4354 52.1889 14.4354C51.1826 14.4354 50.8666 15.3684 50.8666 16.2477ZM45.6361 13.3118C47.3715 13.3118 48.5868 14.4012 48.5868 16.2477C48.5868 18.0943 47.3715 19.1788 45.6361 19.1788C43.9007 19.1788 42.6902 18.0894 42.6902 16.2477C42.6902 14.4061 43.9055 13.3118 45.6361 13.3118ZM44.3187 16.2477C44.3187 17.1222 44.6347 18.0552 45.6361 18.0552C46.6375 18.0552 46.9583 17.1222 46.9583 16.2477C46.9583 15.3733 46.6423 14.4354 45.6361 14.4354C44.6298 14.4354 44.3187 15.3684 44.3187 16.2477ZM41.2319 11.2748H39.759V12.0319H39.7347C39.2243 11.3725 38.3784 11.1087 37.3868 11.1087C34.9222 11.1087 33.7069 12.838 33.7069 15.2023C33.7069 17.5667 35.0194 19.1788 37.7271 19.1788C38.5291 19.1788 39.3798 18.8808 39.8027 18.1383H39.8271V19.0127H41.3V16.1745H42.068V15.0509H38.5923V16.1745H39.759C39.7347 17.3567 38.884 18.0552 37.7902 18.0552C36.1472 18.0552 35.4326 16.8242 35.4326 15.3342C35.4326 13.8443 35.9382 12.2322 37.6687 12.2322C38.8257 12.2322 39.7007 12.7891 39.759 13.9957H41.2319V11.2748ZM61.5611 31.2546V30.1897H62.3291V24.7722H61.5611V23.7072H63.7534V24.6891H63.7777C64.225 23.8831 64.8132 23.5411 65.6298 23.5411C67.0687 23.5411 68.1041 24.523 68.1041 26.5552C68.1041 28.05 67.3264 29.4081 65.7222 29.4081C64.9007 29.4081 64.4291 29.2078 63.9187 28.475H63.8944V30.1897H64.7451V31.2546H61.5611ZM65.3139 28.2845C65.9847 28.2845 66.4805 27.669 66.4805 26.4771C66.4805 25.5635 66.1694 24.6647 65.168 24.6647C64.1666 24.6647 63.8021 25.4805 63.8021 26.394C63.8021 27.5615 64.1326 28.2845 65.3139 28.2845ZM60.2777 23.7072H58.0027V24.7722H58.7125V26.7946C58.7125 27.5029 58.3673 28.2845 57.5215 28.2845C56.8847 28.2845 56.5541 27.7423 56.5541 27.1707V23.7023H54.2208V24.7673H54.984V27.2294C54.984 28.6265 55.4944 29.4081 56.9527 29.4081C57.7451 29.4081 58.4548 29.0173 58.8291 28.309H58.8534V29.242H61.0458V28.1771H60.2826V23.7072H60.2777ZM50.7548 23.5411C52.4902 23.5411 53.7055 24.6305 53.7055 26.4771C53.7055 28.3236 52.4902 29.4081 50.7548 29.4081C49.0194 29.4081 47.809 28.3187 47.809 26.4771C47.809 24.6354 49.0243 23.5411 50.7548 23.5411ZM49.4375 26.4771C49.4375 27.3515 49.7534 28.2845 50.7548 28.2845C51.7562 28.2845 52.0771 27.3515 52.0771 26.4771C52.0771 25.6026 51.7611 24.6647 50.7548 24.6647C49.7486 24.6647 49.4375 25.5977 49.4375 26.4771ZM42.7777 29.242H46.0541V28.1771H45.1111V26.5699C45.1694 25.6124 45.6555 24.8406 46.6909 24.8406C46.9243 24.8406 47.1722 24.8406 47.3958 24.8992V23.6095C47.1868 23.5656 46.9486 23.5411 46.725 23.5411C45.9132 23.5411 45.359 24.0736 45.0284 24.7819H45.0041V23.7072H42.7777V24.7722H43.5458V28.1771H42.7777V29.242ZM41.2319 21.5041V24.225H39.759C39.7007 23.0184 38.8257 22.4615 37.6687 22.4615C35.9382 22.4615 35.4326 24.0248 35.4326 25.5635C35.4326 27.1023 36.1472 28.2845 37.7902 28.2845C38.884 28.2845 39.7347 27.586 39.759 26.4038H38.5923V25.2802H42.068V26.4038H41.3V29.242H39.8271V28.3676H39.8027C39.3798 29.115 38.5291 29.4081 37.7271 29.4081C35.0146 29.4081 33.7069 27.6788 33.7069 25.4317C33.7069 23.0673 34.9222 21.338 37.3868 21.338C38.3784 21.338 39.2243 21.6018 39.7347 22.2612H39.759V21.5041H41.2319Z" fill="black"/>
</g>
<defs>
<clipPath id="clip0_328_5314">
<rect width="91" height="34" fill="white"/>
</clipPath>
</defs>
</svg>
