<svg width="80" height="27" viewBox="0 0 80 27" fill="none" xmlns="http://www.w3.org/2000/svg">
<g clip-path="url(#clip0_328_5098)">
<path d="M34.2353 14.2087C34.2353 18.0933 31.2713 20.9557 27.6339 20.9557C23.9964 20.9557 21.0325 18.0933 21.0325 14.2087C21.0325 10.3242 23.9964 7.46179 27.6339 7.46179C31.2713 7.46179 34.2353 10.2969 34.2353 14.2087ZM31.3455 14.2087C31.3455 11.7813 29.6276 10.1204 27.6339 10.1204C25.6401 10.1204 23.9222 11.7813 23.9222 14.2087C23.9222 16.6362 25.6401 18.2971 27.6339 18.2971C29.6276 18.2971 31.3455 16.6088 31.3455 14.2087Z" fill="black"/>
<path d="M48.4765 14.2087C48.4765 18.0933 45.5125 20.9557 41.8751 20.9557C38.2376 20.9557 35.2737 18.0933 35.2737 14.2087C35.2737 10.3242 38.2376 7.46179 41.8751 7.46179C45.5125 7.46179 48.4765 10.2969 48.4765 14.2087ZM45.5867 14.2087C45.5867 11.7813 43.8688 10.1204 41.8751 10.1204C39.8813 10.1204 38.1635 11.7813 38.1635 14.2087C38.1635 16.6362 39.8813 18.2971 41.8751 18.2971C43.8688 18.2971 45.5867 16.6088 45.5867 14.2087Z" fill="black"/>
<path d="M62.1244 7.86941V19.9823C62.1244 24.9649 59.2583 27 55.8701 27C52.6807 27 50.7611 24.8129 50.0371 23.0242L52.5531 21.9504C53.0011 23.0485 54.0989 24.3444 55.8671 24.3444C58.036 24.3444 59.38 22.9725 59.38 20.3899V19.4195H59.2791C58.6323 20.2378 57.3862 20.9527 55.8137 20.9527C52.5234 20.9527 49.509 18.0142 49.509 14.2331C49.509 10.452 52.5234 7.46179 55.8137 7.46179C57.3832 7.46179 58.6293 8.17664 59.2791 8.97058H59.38V7.87245H62.1244V7.86941ZM59.5847 14.2331C59.5847 11.8574 58.0389 10.1204 56.0719 10.1204C54.1048 10.1204 52.4077 11.8574 52.4077 14.2331C52.4077 16.6088 54.0781 18.2971 56.0719 18.2971C58.0656 18.2971 59.5847 16.5845 59.5847 14.2331Z" fill="black"/>
<path d="M66.6489 0.769653V20.5421H63.8303V0.769653H66.6489Z" fill="black"/>
<path d="M77.6324 16.4293L79.8754 17.9625C79.1514 19.0606 77.4069 20.9527 74.3925 20.9527C70.6542 20.9527 67.8623 17.9898 67.8623 14.2057C67.8623 10.1934 70.6779 7.45874 74.0691 7.45874C77.4603 7.45874 79.1544 10.2451 79.7003 11.7509L80 12.5174L71.2031 16.2529C71.8765 17.6066 72.9239 18.2971 74.3925 18.2971C75.8611 18.2971 76.8847 17.5548 77.6324 16.4293ZM70.7283 14.0019L76.6088 11.4984C76.2854 10.6558 75.3122 10.0687 74.167 10.0687C72.6984 10.0687 70.6542 11.398 70.7283 14.0019Z" fill="black"/>
<path d="M10.3634 12.4536V9.59114H19.7715C19.8635 10.09 19.911 10.6801 19.911 11.3189C19.911 13.4665 19.3384 16.1221 17.493 18.0142C15.698 19.9306 13.4045 20.9527 10.3664 20.9527C4.7352 20.9527 0 16.2499 0 10.4763C0 4.70279 4.7352 0 10.3664 0C13.4817 0 15.7009 1.25327 17.3683 2.88677L15.3983 4.9066C14.2026 3.75676 12.5827 2.86244 10.3634 2.86244C6.2513 2.86244 3.03516 6.26025 3.03516 10.4763C3.03516 14.6924 6.2513 18.0902 10.3634 18.0902C13.0307 18.0902 14.5498 16.9921 15.5229 15.9944C16.3121 15.1852 16.8313 14.0293 17.036 12.4505H10.3634V12.4536Z" fill="black"/>
</g>
<defs>
<clipPath id="clip0_328_5098">
<rect width="80" height="27" fill="white"/>
</clipPath>
</defs>
</svg>
