<svg width="87" height="33" viewBox="0 0 87 33" fill="none" xmlns="http://www.w3.org/2000/svg">
<g clip-path="url(#clip0_328_5837)">
<path d="M50.1571 15.468L47.8613 5.77502H45.5256L43.1624 15.468H44.9179L45.4336 13.4289H47.9534L48.4169 15.468H50.1602H50.1571ZM47.5697 11.7907H45.762L46.6613 7.86972H46.6889L47.5728 11.7907H47.5697Z" fill="black"/>
<path d="M37.113 15.468V11.2786H39.6881V15.468H41.5112V5.77502H39.6881V9.6405H37.113V5.77502H35.293V15.468H37.113Z" fill="black"/>
<path d="M53.472 15.468V9.21169H53.4996L56.2834 15.468H58.0267V5.77502H56.3632V11.5223H56.3386L53.8034 5.77502H51.8115V15.468H53.472Z" fill="black"/>
<path d="M65.9635 12.1116V9.13148C65.8837 6.68818 64.7236 5.77502 62.6365 5.77502H60.1013V15.468H62.6365C64.7205 15.468 65.8837 14.5549 65.9635 12.1116ZM64.1404 11.8956C64.1404 13.3456 63.5603 13.8299 62.5567 13.8299H61.9244V7.41315H62.5567C63.6923 7.41315 64.1404 7.9777 64.1404 9.34743V11.8987V11.8956Z" fill="black"/>
<path d="M72.9676 15.468V13.8299H69.6682V11.2786H72.0837V9.6405H69.6682V7.41315H72.8356V5.77502H67.8481V15.468H72.9676Z" fill="black"/>
<path d="M79.5724 15.468V13.8299H76.6413V5.77502H74.8213V15.468H79.5724Z" fill="black"/>
<path d="M86.908 7.99003C86.5919 6.6203 85.6005 5.63928 83.9769 5.63928C82.0893 5.63928 81.1133 6.68509 81.1133 8.35098C81.1133 11.0627 85.18 11.0904 85.18 12.9167C85.18 13.6417 84.692 14.0705 84.0567 14.0705C83.5165 14.0705 82.8566 13.6541 82.6448 12.4848L80.8494 12.8736C81.3374 14.7801 82.4853 15.5976 83.9646 15.5976C85.8798 15.5976 87.0001 14.4963 87.0001 12.8334C87.0001 9.79783 82.9334 9.69294 82.9334 8.22758C82.9334 7.57048 83.2894 7.16635 83.937 7.16635C84.5846 7.16635 84.9652 7.55505 85.269 8.46821L86.9049 7.98386V7.99003H86.908Z" fill="black"/>
<path d="M71.6661 27.225L69.3704 17.532H67.0347L64.6714 27.225H66.427L66.9426 25.1827H69.4624L69.9259 27.225H71.6692H71.6661ZM69.0788 23.5477H67.271L68.1672 19.6267H68.1948L69.0788 23.5477Z" fill="black"/>
<path d="M37.733 27.225H39.8047L42.2355 17.532H40.4523L38.7888 24.4578H38.7643L37.0885 17.532H35.293L37.733 27.225Z" fill="black"/>
<path d="M48.7054 27.225V25.5869H45.406V23.0356H47.8215V21.3975H45.406V19.1701H48.5734V17.532H43.5859V27.225H48.7054Z" fill="black"/>
<path d="M56.1451 20.4319C56.1451 18.6056 55.1016 17.532 52.9132 17.532H50.2737V27.225H52.0937V23.2762H52.9654L54.5491 27.225H56.5011L54.7056 22.9029C55.7215 22.5142 56.1451 21.6412 56.1451 20.4319ZM54.325 20.4041C54.325 21.345 53.837 21.7461 53.0329 21.7461H52.0968V19.0621H53.0329C53.837 19.0621 54.325 19.4663 54.325 20.4041Z" fill="black"/>
<path d="M63.5296 20.0277C63.5296 18.3618 62.4093 17.532 60.4543 17.532H57.8945V27.225H60.5586C62.4861 27.225 63.7506 26.3519 63.7506 24.4331C63.7506 23.2238 63.3547 22.687 62.351 22.0422C63.1153 21.5733 63.5265 20.873 63.5265 20.0277H63.5296ZM61.7096 20.2283C61.7096 20.8854 61.1694 21.3697 60.3499 21.3697H59.7176V19.059H60.442C61.2983 19.059 61.7096 19.5156 61.7096 20.2283ZM61.9336 24.2819C61.9336 25.1272 61.4333 25.6917 60.4819 25.6917H59.7176V22.8998H60.3499C61.2983 22.8998 61.9336 23.3564 61.9336 24.2819Z" fill="black"/>
<path d="M74.6741 27.225V20.9686H74.7017L77.4855 27.225H79.2288V17.532H77.5653V23.2762H77.5377L75.0056 17.532H73.0137V27.225H74.6741Z" fill="black"/>
<path d="M86.9602 23.8685V20.8884C86.8804 18.4451 85.7202 17.532 83.6362 17.532H81.1011V27.225H83.6362C85.7202 27.225 86.8835 26.3118 86.9602 23.8685ZM85.1402 23.6526C85.1402 25.1025 84.5601 25.5869 83.5564 25.5869H82.9242V19.1701H83.5564C84.6921 19.1701 85.1402 19.7347 85.1402 21.1044V23.6557V23.6526Z" fill="black"/>
<path d="M14.0202 0.197604L2.80526 4.12478C2.80526 4.12478 0 5.1058 0 8.12908V10.341C0.0153461 11.8002 1.50392 13.5494 2.83902 14.1479L5.53073 15.2646L14.0232 12.2907C14.0232 12.2907 16.8285 11.3097 16.8285 8.28641V2.23677C16.8285 2.23677 16.8285 -0.786504 14.0232 0.194519H14.0202V0.197604Z" fill="black"/>
<path d="M10.6686 21.5177C10.6686 21.5177 10.6318 18.3958 8.25619 17.3345L2.49527 14.9498C1.58985 14.5457 0.653743 13.7405 0 12.7842V22.4402C0 22.4402 0 25.4696 2.66715 26.6635L8.00452 29.0513C8.00452 29.0513 10.5673 30.1958 10.6686 27.3885V21.5147V21.5177Z" fill="black"/>
<path d="M15.5272 32.8025L26.7452 28.8753C26.7452 28.8753 29.5504 27.8943 29.5504 24.871V22.6591C29.5351 21.1999 28.0465 19.4507 26.7114 18.8522L24.0197 17.7355L15.5272 20.7094C15.5272 20.7094 12.7219 21.6904 12.7219 24.7137V30.7602C12.7219 30.7602 12.7219 33.7835 15.5272 32.8025Z" fill="black"/>
<path d="M18.8787 11.4793C18.8787 11.4793 18.9155 14.6012 21.2911 15.6625L27.052 18.0472C27.9574 18.4513 28.8935 19.2565 29.5473 20.2128V10.5568C29.5473 10.5568 29.5473 7.5274 26.8801 6.33351L21.5427 3.94574C21.5427 3.94574 18.9799 2.80121 18.8787 5.60854V11.4823V11.4793Z" fill="black"/>
</g>
<defs>
<clipPath id="clip0_328_5837">
<rect width="87" height="33" fill="white"/>
</clipPath>
</defs>
</svg>
