<svg width="77" height="32" viewBox="0 0 77 32" fill="none" xmlns="http://www.w3.org/2000/svg">
<g clip-path="url(#clip0_328_5915)">
<path d="M30.949 16.2849C30.9175 16.4171 30.8904 16.5128 30.8678 16.6131C30.597 16.6632 30.3352 16.7042 30.0734 16.768C29.7033 16.8592 29.4777 17.0871 29.4506 17.4927C29.4325 17.7799 29.3784 18.0716 29.3784 18.3587C29.3693 19.8901 29.3648 21.4215 29.3784 22.9529C29.3829 23.6047 29.419 24.261 29.4686 24.9127C29.5408 25.8152 30.2134 26.4487 31.116 26.4669C31.4546 26.4715 31.8066 26.4533 32.1271 26.3712C32.9891 26.1479 33.445 25.5189 33.6075 24.6712C33.6842 24.2655 33.7068 23.8417 33.7068 23.4269C33.7158 21.6767 33.7068 19.9266 33.7068 18.1764C33.7068 18.0852 33.7068 17.9941 33.7068 17.9029C33.6932 17.0825 33.3818 16.7452 32.5784 16.6769C32.4746 16.6678 32.3663 16.6632 32.2264 16.6586V16.2986C33.0027 16.3305 33.77 16.3897 34.5373 16.3897C35.3091 16.3897 36.0809 16.3305 36.8888 16.2986C36.9023 16.408 36.9159 16.5082 36.9249 16.6131C36.8572 16.6359 36.8075 16.6632 36.7579 16.6678C36.6496 16.6769 36.5413 16.6678 36.4329 16.686C35.7965 16.7863 35.4084 17.078 35.4129 17.8437C35.4264 19.9585 35.4129 22.0733 35.4219 24.1881C35.4219 24.5299 35.467 24.8808 35.5483 25.2136C35.7243 25.9656 36.3427 26.4578 37.119 26.4715C37.4033 26.4761 37.7012 26.4715 37.9765 26.4077C39.1455 26.1342 39.6646 25.0814 39.6826 24.2154C39.7052 23.0122 39.6962 21.8089 39.6962 20.6057C39.6962 19.6941 39.6962 18.7826 39.6962 17.871C39.6962 17.0005 39.4073 16.7088 38.5317 16.6678C38.4414 16.6678 38.3512 16.6678 38.2293 16.6678C38.2112 16.5629 38.1887 16.4627 38.1571 16.294C39.0101 16.3259 39.8271 16.3852 40.6485 16.3852C41.4519 16.3852 42.2598 16.3214 43.0903 16.2895V16.6131C42.7473 16.6723 42.4268 16.6997 42.1154 16.7863C41.6956 16.9048 41.5061 17.1782 41.479 17.6249C41.47 17.7707 41.4745 17.9166 41.4745 18.0624C41.4745 20.4689 41.4745 22.8754 41.4745 25.2819C41.4745 25.4278 41.4745 25.5736 41.479 25.7195C41.5016 26.3758 41.646 26.5535 42.2869 26.6538C42.5487 26.6948 42.815 26.6903 43.0813 26.7085C43.1264 27.0184 42.9233 27.0275 42.7518 27.0594C42.1515 27.1779 41.5512 27.2873 40.9554 27.415C40.6937 27.4696 40.4409 27.5654 40.134 27.6565C40.0437 27.0275 39.9534 26.4441 39.8587 25.7878C39.7413 25.9155 39.6556 25.9975 39.5879 26.0886C38.8522 27.0503 37.8818 27.5289 36.6857 27.5015C35.6205 27.4742 34.7178 27.0913 34.1672 26.0978C34.1085 25.9929 34.0318 25.8927 33.937 25.7559C33.7609 25.961 33.612 26.1342 33.4631 26.312C32.9485 26.9409 32.2896 27.2919 31.4907 27.4332C30.7189 27.5699 29.9832 27.5198 29.27 27.219C28.4215 26.8635 27.9024 26.2254 27.7716 25.3047C27.6993 24.8034 27.6587 24.2929 27.6587 23.787C27.6452 21.9092 27.6542 20.0314 27.6542 18.1536C27.6542 18.026 27.6542 17.8984 27.6542 17.7707C27.6362 17.1919 27.424 16.9002 26.8643 16.7635C26.589 16.6951 26.3002 16.686 25.9707 16.6404C25.9617 16.5629 25.9526 16.4672 25.9346 16.2986C26.7831 16.335 27.6046 16.3943 28.4215 16.3943C29.2475 16.3943 30.0689 16.3305 30.9355 16.2986L30.949 16.2849Z" fill="black"/>
<path d="M52.4603 26.0385C52.3384 26.1661 52.212 26.2846 52.0947 26.4168C51.0746 27.5516 49.2557 27.816 47.9242 27.0868C46.9313 26.5444 46.3941 25.6921 46.2994 24.5481C46.1143 22.3467 46.2226 20.1453 46.2226 17.9439C46.2226 17.0962 45.8841 16.6814 44.995 16.6723C44.8731 16.6723 44.7512 16.6723 44.6023 16.6723V16.2621C46.2362 16.417 47.843 16.4535 49.4769 16.2621V16.6541C49.2963 16.6632 49.1383 16.6632 48.9804 16.6814C48.353 16.7452 47.9964 17.1235 47.9964 17.757C47.9919 19.9083 47.9874 22.0595 47.9964 24.2108C47.9964 24.5162 48.0416 24.8352 48.1318 25.1224C48.3711 25.8744 48.872 26.3393 49.6709 26.476C50.4066 26.6036 51.0566 26.4441 51.6433 25.9838C52.1218 25.61 52.4151 25.1224 52.4783 24.5116C52.528 24.0239 52.5686 23.5363 52.5731 23.044C52.5866 21.3668 52.5776 19.6895 52.5731 18.0123C52.5731 17.0323 52.2707 16.7179 51.2913 16.6632C51.2371 16.6632 51.1875 16.6495 51.1378 16.6449C51.1107 16.613 51.0791 16.5857 51.0746 16.5583C51.0656 16.49 51.0746 16.417 51.0746 16.2894C51.8961 16.3259 52.6995 16.3851 53.5029 16.3851C54.3108 16.3851 55.1142 16.3259 55.9582 16.2894C55.9672 16.4079 55.9763 16.5082 55.9808 16.613C55.9131 16.6313 55.8634 16.6541 55.8093 16.6632C55.5249 16.7042 55.2361 16.7179 54.9607 16.7862C54.5726 16.8819 54.3604 17.1691 54.3063 17.5656C54.2837 17.7434 54.2837 17.9302 54.2837 18.1125C54.2837 21.9228 54.2837 25.7331 54.2837 29.5388C54.2837 29.8077 54.3288 30.0812 54.3604 30.3501C54.4101 30.7421 54.6403 30.9745 55.0104 31.0566C55.2902 31.1204 55.5701 31.1568 55.9131 31.2161C55.8499 31.3118 55.8138 31.4349 55.7551 31.444C55.385 31.5214 55.0149 31.5716 54.6403 31.64C54.058 31.7493 53.4758 31.8633 52.8936 31.9727C52.8078 31.9909 52.7175 31.9818 52.5731 31.9909V26.0886C52.5325 26.0704 52.4873 26.0521 52.4467 26.0339L52.4603 26.0385Z" fill="black"/>
<path d="M10.8504 25.765C10.8504 26.5444 10.8504 27.3283 10.8504 28.1077C10.8504 28.6182 10.8504 29.1286 10.8504 29.6391C10.8504 29.7303 10.8413 29.8214 10.8504 29.9126C10.9271 30.7239 10.9993 31.0064 12.0284 31.1523C12.1638 31.1705 12.3037 31.1796 12.5384 31.1979C12.4165 31.3255 12.3624 31.4303 12.2947 31.444C11.9787 31.5078 11.6538 31.5443 11.3378 31.599C10.6337 31.7266 9.92962 31.8633 9.221 31.9955C9.07657 31.8086 9.13976 31.599 9.13976 31.4075C9.13976 27.1962 9.13976 22.9894 9.13073 18.778C9.13073 18.4544 9.09462 18.1262 9.04046 17.8072C8.97276 17.3879 8.74709 17.119 8.29574 17.0779C8.01139 17.0506 7.73155 17.0005 7.4472 16.9594C7.35693 16.7133 7.53296 16.6632 7.68642 16.6313C7.96625 16.5766 8.25963 16.5675 8.53947 16.5128C9.13976 16.3988 9.73554 16.2758 10.3584 16.1482C10.6743 16.5994 10.4938 17.2511 10.7511 17.8026C11.0399 17.4471 11.2701 17.119 11.5409 16.8318C12.0239 16.3214 12.6377 16.0935 13.3283 16.0479C15.0569 15.9339 16.2485 16.7726 17.0654 18.2356C17.4671 18.9557 17.6838 19.7306 17.7876 20.5601C17.9501 21.8818 17.8779 23.1717 17.422 24.425C17.088 25.3457 16.5735 26.1479 15.7656 26.7313C14.5966 27.5745 12.9627 27.6474 11.9246 26.827C11.6718 26.631 11.4777 26.3575 11.2656 26.1114C11.1528 25.9792 11.058 25.8334 10.9542 25.6967C10.9181 25.7149 10.8774 25.7377 10.8413 25.7559L10.8504 25.765ZM10.8278 21.8545C10.8549 22.1963 10.8955 22.8298 10.9497 23.4634C10.9677 23.6776 11.0129 23.8918 11.0535 24.106C11.1844 24.7897 11.41 25.4369 11.8208 26.0066C12.6287 27.1187 14.3709 27.1688 15.1743 25.9291C15.4586 25.487 15.6617 25.0039 15.761 24.4752C15.8874 23.7961 15.9957 23.117 15.9867 22.4242C15.9867 22.1006 16.0454 21.777 16.0454 21.4488C16.0454 21.1617 15.9867 20.8746 15.9777 20.5829C15.9506 19.7761 15.7926 18.9968 15.5128 18.2447C15.3458 17.7981 15.075 17.4061 14.7049 17.1007C13.8248 16.3715 12.8814 16.3943 12.0194 17.16C11.559 17.5702 11.2972 18.1034 11.1483 18.6959C10.9136 19.6348 10.8368 20.5874 10.8233 21.8454L10.8278 21.8545Z" fill="black"/>
<path d="M10.6428 14.5073V14.9221C9.09468 14.799 7.57364 14.7671 6.01197 14.9312C6.00294 14.7945 5.99392 14.6805 5.98489 14.5438C6.20605 14.4982 6.40013 14.4617 6.5897 14.4207C7.19902 14.2886 7.38407 14.0743 7.39761 13.4545C7.40664 12.8893 7.39761 12.3242 7.39761 11.759C7.39761 10.4281 7.40212 9.09727 7.39761 7.76641C7.39761 7.4428 7.3615 7.11465 7.30734 6.79104C7.12229 5.69263 6.18348 5.28243 5.32141 5.34168C4.1795 5.41916 3.34902 6.28513 3.28583 7.4428C3.24521 8.18572 3.26326 8.93775 3.26326 9.68522C3.26326 10.8885 3.26326 12.0917 3.26326 13.295C3.26326 14.1245 3.4122 14.2977 4.23366 14.4526C4.35552 14.4754 4.4819 14.5028 4.62633 14.5301C4.63987 14.5985 4.66244 14.6668 4.66695 14.7352C4.66695 14.7853 4.6489 14.8355 4.63536 14.9266C3.1098 14.7853 1.58876 14.7899 0.0406338 14.9266C0.0316069 14.7808 0.0270934 14.6805 0.0180664 14.5256C0.239227 14.4891 0.446847 14.4481 0.654467 14.4162C1.30892 14.3068 1.51654 14.0743 1.54814 13.3998C1.54814 13.3086 1.54814 13.2175 1.54814 13.1263C1.54814 9.57128 1.54814 6.02078 1.54814 2.46573C1.54814 2.24696 1.53911 2.02819 1.503 1.81398C1.41273 1.31718 1.20963 1.13031 0.713143 1.06195C0.501009 1.0346 0.288875 1.03004 0.0496608 1.01181C0.0406338 0.884193 0.0361203 0.788481 0.0270934 0.683652C1.07422 0.487669 2.11684 0.305358 3.20007 0.109375C3.31742 0.54692 3.23167 1.01637 3.24972 1.4767C3.26326 1.93248 3.24972 2.38825 3.24972 2.84403C3.24972 3.31803 3.24972 3.79204 3.24972 4.26605C3.24972 4.71271 3.26326 5.15937 3.3761 5.66072C3.43477 5.56957 3.48893 5.47385 3.56115 5.39637C4.51801 4.38911 5.68249 4.13387 6.98237 4.49394C8.05658 4.79019 9.04052 5.71541 9.10822 7.39723C9.13981 8.1447 9.12627 8.89217 9.12627 9.63964C9.12627 10.8429 9.12627 12.0461 9.12627 13.2494C9.12627 13.4135 9.12627 13.5775 9.15787 13.7371C9.22557 14.1245 9.47381 14.3387 9.84843 14.4071C10.0967 14.4526 10.3449 14.4754 10.6338 14.5119L10.6428 14.5073Z" fill="black"/>
<path d="M31.2378 13.2311C30.9264 13.8646 30.642 14.4435 30.3442 15.0542H29.78C29.78 14.8127 29.78 14.5984 29.78 14.3842C29.78 10.3552 29.7709 6.32611 29.7845 2.29706C29.7845 1.42653 29.6039 1.02544 28.5974 1.03456C28.5117 1.03456 28.4214 1.02089 28.3041 1.01177C28.2905 0.893269 28.2815 0.788441 28.2725 0.683612C29.3467 0.492187 30.4073 0.300761 31.5086 0.10022V5.89768C31.6801 5.69714 31.7794 5.59232 31.8652 5.47381C32.5919 4.48478 33.5893 4.20676 34.7403 4.38907C35.9544 4.58049 36.7849 5.32341 37.3762 6.37625C37.814 7.15107 38.0306 7.99425 38.1119 8.86934C38.2202 10.0225 38.1344 11.1619 37.7192 12.2558C37.4077 13.0716 36.9474 13.778 36.2478 14.3113C35.2909 15.0405 34.2167 15.232 33.0748 14.9175C32.4068 14.7352 31.9013 14.2976 31.5222 13.7097C31.4364 13.5729 31.3552 13.4317 31.2333 13.2266L31.2378 13.2311ZM36.3696 9.73532C36.3065 8.96505 36.2839 8.33153 36.1936 7.70256C36.0853 6.9642 35.8867 6.24863 35.4083 5.64245C34.65 4.68076 33.0793 4.78103 32.4023 5.74728C32.0954 6.18482 31.8607 6.65883 31.7704 7.17841C31.6531 7.83929 31.5763 8.50472 31.5086 9.17471C31.4003 10.2868 31.5041 11.3898 31.7659 12.4745C31.8832 12.9531 32.1134 13.3861 32.4384 13.7644C33.2553 14.7169 34.6771 14.6303 35.4489 13.6368C35.7874 13.1992 36.0131 12.6979 36.0898 12.1509C36.2117 11.3077 36.2839 10.46 36.3651 9.73532H36.3696Z" fill="black"/>
<path d="M48.5651 5.10015C48.5605 4.99988 48.556 4.91328 48.5515 4.79022C49.6212 4.5988 50.6774 4.40737 51.7877 4.20227C51.7877 4.37091 51.7967 4.56233 51.7967 4.75376C51.7967 7.0691 51.7967 9.38444 51.7967 11.6998C51.7967 11.955 51.7967 12.2148 51.8418 12.4609C52.0404 13.6049 52.9476 14.2339 54.0896 14.0333C55.1773 13.8465 55.8182 13.099 55.9085 11.9094C55.9311 11.5813 55.9356 11.2531 55.9356 10.925C55.9356 9.43002 55.9356 7.93507 55.9356 6.44013C55.9356 6.40367 55.9356 6.3672 55.9356 6.33074C55.9265 5.36906 55.7234 5.16396 54.753 5.12749C54.6628 5.12749 54.577 5.11382 54.4822 5.10926C54.4597 5.05001 54.4326 4.99988 54.4281 4.94974C54.4281 4.89961 54.4461 4.84491 54.4597 4.77655C55.5023 4.58968 56.5449 4.40737 57.592 4.2205C57.7455 4.38914 57.6733 4.5988 57.6778 4.79022C57.6823 7.50664 57.6778 10.2231 57.6778 12.9395C57.6778 13.8829 57.8493 14.0607 58.77 14.088C58.91 14.088 59.0544 14.088 59.1988 14.088C59.2259 14.1655 59.253 14.2111 59.262 14.2612C59.271 14.3159 59.262 14.3706 59.262 14.4755C58.77 14.5575 58.2781 14.6259 57.7906 14.7216C57.3167 14.8127 56.8518 14.9358 56.3147 15.0588C56.256 14.4755 56.1974 13.924 56.1342 13.2768C55.9897 13.4773 55.8949 13.614 55.8002 13.7462C54.6763 15.3095 52.2119 15.5146 50.8805 14.1564C50.3298 13.5958 50.0951 12.8939 50.0771 12.1282C50.05 10.7973 50.059 9.46648 50.0545 8.13561C50.0545 7.53399 50.0545 6.93237 50.0545 6.33074C50.0545 6.16666 50.0545 6.00258 50.0229 5.84306C49.9462 5.46477 49.734 5.22777 49.3323 5.18675C49.0841 5.16396 48.8359 5.12749 48.5605 5.09103L48.5651 5.10015Z" fill="black"/>
<path d="M45.4102 13.2585C45.2522 13.5 45.1665 13.6368 45.0762 13.7735C44.6158 14.4526 43.9884 14.8901 43.1805 15.0086C42.341 15.1317 41.5331 15.0588 40.7794 14.5984C39.2989 13.6915 39.168 11.4673 40.2693 10.3643C40.5717 10.0589 40.9328 9.79913 41.3074 9.58948C42.3771 8.99697 43.5371 8.66881 44.7422 8.49106C44.8821 8.46827 45.0175 8.43181 45.1619 8.40446C45.1619 7.73903 45.2116 7.09638 45.1529 6.46741C45.0536 5.41457 44.2683 4.82206 43.2302 4.97247C42.9142 5.01805 42.5938 5.10464 42.3004 5.23226C41.8536 5.4328 41.6053 5.79287 41.6324 6.31701C41.6414 6.53578 41.6459 6.75455 41.6189 6.97332C41.5602 7.49291 41.1901 7.77549 40.671 7.70712C40.2016 7.64787 39.9534 7.27414 40.0482 6.74544C40.1655 6.08912 40.4905 5.54219 41.0321 5.16845C42.3862 4.23867 43.8305 4.07003 45.3425 4.74002C46.3535 5.18668 46.8139 6.02987 46.9087 7.1055C46.9267 7.32427 46.9267 7.54304 46.9267 7.76182C46.9267 9.34792 46.9222 10.934 46.9312 12.5201C46.9312 12.8802 46.9628 13.2494 47.026 13.6049C47.1479 14.2566 47.3871 14.4116 48.0506 14.325C48.1183 14.3159 48.1905 14.325 48.2853 14.325V14.8582C47.6624 14.9995 47.035 15.1317 46.3986 14.8901C45.9202 14.7078 45.6765 14.3113 45.5411 13.8327C45.5005 13.6778 45.4689 13.5228 45.4102 13.2585ZM45.189 9.01976C44.2638 9.17472 43.4513 9.38894 42.7021 9.80825C42.499 9.92219 42.3049 10.0635 42.1334 10.2184C41.4112 10.8748 41.1856 11.7043 41.3706 12.6432C41.4293 12.9349 41.5647 13.2357 41.7317 13.4818C42.1199 14.047 42.851 14.2566 43.7447 14.0014C44.5752 13.7644 44.9363 13.0989 45.0852 12.3059C45.2793 11.2439 45.1665 10.1683 45.1981 9.01976H45.189Z" fill="black"/>
<path d="M19.6292 9.65783C19.6382 10.7289 19.4486 11.759 18.9837 12.7252C18.4512 13.8191 17.6703 14.6531 16.4652 14.9494C14.6147 15.4097 13.1659 14.7488 12.2045 13.3542C11.7667 12.7161 11.5004 12.0051 11.3605 11.2439C11.1122 9.89483 11.1619 8.55941 11.6223 7.265C12.0285 6.13012 12.6874 5.17755 13.8068 4.6762C15.7295 3.81023 17.9231 4.32069 19.0063 6.63603C19.4531 7.58861 19.6382 8.60043 19.6292 9.65783ZM17.7651 9.66694C17.7651 9.21117 17.7877 8.75539 17.7561 8.30417C17.729 7.90765 17.6703 7.50657 17.5665 7.12371C17.4492 6.69073 17.3092 6.24407 17.0881 5.86122C16.9166 5.5604 16.6367 5.28238 16.3388 5.10007C15.5445 4.60783 14.4793 4.8813 13.9151 5.72448C13.6669 6.09366 13.4683 6.52209 13.3599 6.95508C12.877 8.84199 12.9267 10.738 13.3825 12.6204C13.4773 13.0169 13.6759 13.4089 13.9151 13.7416C14.6463 14.7762 16.1087 14.8035 16.8805 13.7963C17.1377 13.459 17.3228 13.0442 17.4582 12.6386C17.7786 11.6815 17.8102 10.6788 17.7651 9.67606V9.66694Z" fill="black"/>
<path d="M68.2348 9.44819H61.9159C61.8979 9.6305 61.8753 9.76724 61.8753 9.90397C61.8753 10.8383 61.9972 11.7544 62.3176 12.6386C62.5343 13.2357 62.8818 13.7416 63.446 14.0561C64.4796 14.6304 66.1676 14.4708 66.9304 13.0853C67.0613 12.8483 67.1606 12.593 67.2463 12.3333C67.3276 12.0963 67.3772 11.8456 67.4495 11.5584H68.2754C68.2348 11.8046 68.2122 12.0324 68.1536 12.2512C67.8647 13.3314 67.3186 14.2338 66.2805 14.7261C65.9149 14.8993 65.4951 15.0223 65.0934 15.0542C64.5428 15.0953 63.965 15.0998 63.4234 14.9904C61.9024 14.6851 60.9771 13.6732 60.4761 12.2375C60.3407 11.8456 60.2459 11.4308 60.2008 11.0161C60.0473 9.55302 60.0564 8.10366 60.6792 6.72721C61.2163 5.53764 62.0604 4.66255 63.3602 4.3982C65.1611 4.02902 66.6867 4.57595 67.5442 6.03899C67.7248 6.34892 67.8557 6.69531 67.9595 7.0417C68.1852 7.8074 68.316 8.59134 68.2303 9.44819H68.2348ZM61.9204 8.60501C62.4621 8.71895 66.1315 8.70528 66.5377 8.58678C66.5152 7.84386 66.4204 7.11007 66.1857 6.3945C66.1135 6.17117 65.9961 5.96151 65.8697 5.76097C65.6531 5.41458 65.3687 5.14567 64.9851 4.99071C64.1501 4.65344 63.2609 4.95425 62.7238 5.77009C62.1597 6.6315 62.0062 7.60686 61.925 8.60501H61.9204Z" fill="black"/>
<path d="M68.9434 26.7585C68.8034 27.0913 68.6816 27.3738 68.5507 27.6792C68.4559 27.6883 68.3521 27.6974 68.2212 27.7066V24.1743C68.3476 24.1697 68.4694 24.1652 68.6229 24.1561C68.6771 24.425 68.7222 24.6848 68.7899 24.9446C69.0381 25.9154 69.5933 26.6173 70.5953 26.8451C71.9539 27.1551 73.1274 26.2709 73.326 25.3046C73.4433 24.7395 73.3169 24.2609 72.9288 23.8507C72.5722 23.4724 72.1073 23.2627 71.6469 23.0531C71.006 22.7614 70.3516 22.5062 69.7152 22.2053C69.327 22.0185 68.9479 21.8043 68.5913 21.5581C67.7067 20.9474 67.4133 20.0495 67.5713 19.0286C67.8511 17.242 69.0968 16.221 70.8977 16.1481C71.9809 16.1025 72.9694 16.3213 73.8631 16.9548C73.9037 16.9822 73.9578 16.9913 74.0481 17.0277C74.188 16.7725 74.3189 16.5173 74.4588 16.2712C74.5626 16.0934 74.5672 16.098 74.9192 16.1025V19.8216H74.513C74.4318 19.5254 74.355 19.2109 74.2557 18.9055C73.8495 17.643 72.9874 16.9092 71.6921 16.7041C70.4644 16.5127 69.2006 17.4562 69.0246 18.6959C68.9569 19.1517 69.0788 19.5846 69.4082 19.8991C69.7061 20.1817 70.0447 20.4415 70.4057 20.6284C71.34 21.1024 72.3014 21.5171 73.2402 21.9729C73.8992 22.2919 74.4182 22.7705 74.6213 23.4998C75.023 24.94 74.5536 26.3757 73.1635 27.0502C71.9539 27.6382 70.7352 27.6382 69.5211 27.0548C69.3451 26.9682 69.169 26.877 68.9343 26.7585H68.9434Z" fill="black"/>
<path d="M23.935 4.56688H26.431V5.27789C26.0428 5.40095 25.6321 5.31435 25.2259 5.33259C24.8332 5.34626 24.436 5.33259 24.0163 5.33259C23.9982 5.49211 23.9711 5.61061 23.9711 5.73367C23.9711 8.23132 23.9711 10.7244 23.9711 13.2221C23.9711 13.3132 23.9711 13.4044 23.9756 13.4955C24.0343 14.1245 24.2194 14.3205 24.8332 14.4162C25.0453 14.4481 25.253 14.4846 25.4786 14.521V14.913C23.9079 14.799 22.3463 14.7626 20.753 14.9312C20.7395 14.8036 20.7305 14.6851 20.7124 14.5256C20.9787 14.4846 21.2224 14.4481 21.4662 14.4025C22.0078 14.3022 22.2244 14.0607 22.2244 13.5229C22.2244 10.8976 22.2244 8.2769 22.2244 5.65163C22.2244 5.56503 22.2109 5.47843 22.1973 5.3417H20.8117C20.7982 5.11837 20.7891 4.94518 20.7756 4.73552C20.911 4.71273 21.0283 4.68994 21.1457 4.67171C21.3217 4.64436 21.5023 4.63069 21.6783 4.58511C22.1341 4.46661 22.2786 4.29798 22.3327 3.83764C22.3779 3.42289 22.405 3.00357 22.4411 2.58882C22.5539 1.16224 23.3663 0.291708 24.761 0.0592624C25.2169 -0.0182194 25.6592 -0.00910392 26.1015 0.0957245C26.8959 0.282592 27.442 0.893332 27.451 1.59523C27.4601 2.27433 26.9591 2.62528 26.3272 2.39283C26.0338 2.28345 25.8984 2.07835 25.8984 1.77298C25.8984 1.6089 25.921 1.44482 25.9255 1.28074C25.9255 0.765715 25.6366 0.528711 25.1266 0.601635C24.7384 0.660886 24.4496 0.870543 24.2871 1.21693C24.1652 1.47672 24.0704 1.76386 24.0524 2.04644C23.9892 2.85772 23.9711 3.67356 23.9305 4.57144L23.935 4.56688Z" fill="black"/>
<path d="M58.1382 19.8171H57.398C57.2671 19.5117 57.4025 19.2383 57.4611 18.9648C57.6011 18.2948 57.899 17.6932 58.3503 17.1827C59.2079 16.2119 60.3227 15.9339 61.5413 16.1162C63.4235 16.3988 64.5473 17.5929 65.0844 19.3659C65.4094 20.4506 65.4861 21.5627 65.3507 22.7021C65.2243 23.7687 64.958 24.7668 64.3577 25.6601C63.7349 26.5899 62.9044 27.2417 61.8031 27.4422C60.7289 27.6382 59.6773 27.6108 58.8016 26.7996C58.7475 26.7494 58.6888 26.713 58.6256 26.6765C58.5985 26.6583 58.5579 26.6628 58.4767 26.6446C58.2961 26.9773 58.1111 27.3237 57.908 27.702C57.8267 27.7066 57.7274 27.7111 57.592 27.7202V24.0786H57.9757C58.0795 24.425 58.1698 24.7395 58.2691 25.0448C58.4586 25.6282 58.7881 26.1205 59.2665 26.5079C60.2956 27.3374 61.8167 27.0958 62.5433 25.9883C62.936 25.3867 63.1752 24.7212 63.2926 24.0193C63.4415 23.1442 63.5543 22.2555 63.5002 21.3622C63.4505 20.5691 63.437 19.767 63.2023 18.9921C63.0308 18.4315 62.8141 17.9028 62.4079 17.4607C61.4962 16.458 59.6412 16.5173 58.8784 17.7433C58.5985 18.1945 58.3729 18.664 58.2736 19.1881C58.2375 19.3841 58.1878 19.5755 58.1382 19.8125V19.8171Z" fill="black"/>
<path d="M4.7752 26.5262H6.15181C6.16535 26.7495 6.17438 26.9227 6.18341 27.1095C5.94871 27.1597 5.74109 27.1916 5.53798 27.2554C4.86096 27.4742 4.38704 27.9482 4.10721 28.5817C3.82737 29.2061 3.61975 29.8624 3.36248 30.5552H2.96529V27.2964H0.293314V26.5672H2.89308C2.92467 26.3985 2.96529 26.28 2.96529 26.1615C2.96529 23.7596 2.97432 21.3531 2.96078 18.9512C2.96078 18.5957 2.87503 18.231 2.79378 17.8801C2.65386 17.2739 1.99038 16.7862 1.23663 16.9685C0.857499 17.0597 0.487393 17.201 0.0856934 17.3286V16.8318C0.658906 16.3943 1.30433 16.1618 2.031 16.1618C2.24765 16.1618 2.4643 16.1573 2.68095 16.1618C3.65134 16.1983 4.40058 16.7908 4.64431 17.7342C4.71653 18.0123 4.76617 18.304 4.76617 18.5911C4.76617 20.8472 4.76166 23.1078 4.75715 25.3639C4.75715 25.7194 4.58112 26.0749 4.77971 26.5262H4.7752Z" fill="black"/>
<path d="M74.3551 14.5255C74.337 14.6896 74.3235 14.7899 74.3099 14.9221C72.7347 14.7853 71.1911 14.7717 69.6159 14.9266C69.5979 14.799 69.5798 14.6851 69.5527 14.5164C69.8055 14.4754 70.0312 14.4435 70.2568 14.407C70.8526 14.3113 71.0828 14.0743 71.0873 13.4681C71.0963 10.975 71.0963 8.4774 71.0873 5.98431C71.0873 5.36901 70.8842 5.16847 70.2839 5.11833C70.0718 5.1001 69.8551 5.11833 69.6069 5.11833C69.5979 4.97249 69.5888 4.87222 69.5843 4.76283C70.5141 4.59419 71.4258 4.42556 72.4053 4.2478C72.5361 4.81296 72.5858 5.39636 72.6219 6.0709C72.7844 5.82023 72.9017 5.63336 73.0281 5.45561C73.66 4.54861 74.5176 4.17032 75.6053 4.3344C76.7653 4.50304 77.1941 5.82023 76.9413 6.51301C76.7292 7.09184 75.9348 7.31973 75.4654 6.90953C75.2217 6.69532 75.1675 6.41274 75.2442 6.11192C75.3119 5.83846 75.3932 5.56499 75.1133 5.36901C74.838 5.17758 74.5401 5.17759 74.2377 5.3052C73.7593 5.50574 73.4614 5.88404 73.2493 6.33981C72.9514 6.9779 72.8521 7.66612 72.8431 8.3589C72.8205 10.0681 72.834 11.7818 72.8385 13.4955C72.8385 14.0698 73.0552 14.3068 73.6329 14.407C73.8631 14.4481 74.0888 14.48 74.3686 14.5255H74.3551Z" fill="black"/>
<path d="M24.3457 26.7996V27.032C23.777 27.1186 23.2083 27.1915 22.6486 27.2918C22.1025 27.3921 21.5653 27.5197 20.956 27.6473V27.0047C20.956 23.9966 20.956 20.9884 20.956 17.9803C20.956 16.9913 20.6942 16.7133 19.7238 16.6631C19.6155 16.6586 19.5117 16.6631 19.3673 16.6631C19.3537 16.5446 19.3447 16.4444 19.3267 16.2848C20.1752 16.3167 20.9966 16.376 21.8181 16.376C22.6441 16.376 23.47 16.3167 24.3321 16.2803C24.3502 16.3897 24.3637 16.4899 24.3818 16.5948C24.3141 16.6175 24.2689 16.6449 24.2148 16.654C23.9124 16.6996 23.6054 16.7087 23.3166 16.7953C22.9329 16.9138 22.7343 17.2055 22.7479 17.6248C22.7479 17.716 22.7479 17.8071 22.7479 17.8983C22.7479 20.4142 22.7479 22.93 22.7479 25.4459C22.7479 25.5735 22.7389 25.7012 22.7524 25.8288C22.7975 26.3256 23.0864 26.6173 23.5738 26.6811C23.8221 26.713 24.0703 26.754 24.3547 26.795L24.3457 26.7996Z" fill="black"/>
</g>
<defs>
<clipPath id="clip0_328_5915">
<rect width="77" height="32" fill="white"/>
</clipPath>
</defs>
</svg>
