<svg width="87" height="27" viewBox="0 0 87 27" fill="none" xmlns="http://www.w3.org/2000/svg">
<g clip-path="url(#clip0_328_5857)">
<path d="M0.299207 5.18157H2.68616V18.3164H0.299207V5.18157ZM2.96224 1.49531C2.98524 2.28317 2.36406 2.93876 1.57608 2.96176C1.53007 2.96176 1.48405 2.96176 1.43804 2.96176C0.667315 2.97902 0.0231265 2.36943 0.000119794 1.59307C0.000119794 1.55857 0.000119794 1.52982 0.000119794 1.49531C-0.022887 0.690199 0.609798 0.0231068 1.41503 0.000103603C1.44379 0.000103603 1.4668 0.000103603 1.49556 0.000103603C2.28929 -0.0171488 2.94498 0.609688 2.96224 1.4033C2.96224 1.43205 2.96224 1.46656 2.96224 1.49531Z" fill="black"/>
<path d="M6.64883 8.74124C6.64883 7.35529 6.59132 6.26839 6.53955 5.18724H8.62741L8.73669 7.33229H8.81722C9.62821 5.80258 11.2387 4.8652 12.9699 4.91696C14.6379 4.9112 16.1276 5.96935 16.6625 7.55082H16.7143C17.0766 6.87798 17.5885 6.2914 18.204 5.84283C19.0265 5.21025 20.0445 4.88245 21.0798 4.92271C22.8456 4.92271 25.4223 6.06136 25.4223 10.6217V18.3278H23.0929V10.915C23.0929 8.36168 22.1439 6.87223 20.2401 6.87223C18.9344 6.92398 17.8014 7.78085 17.393 9.01727C17.2722 9.40258 17.2089 9.80513 17.2032 10.2077V18.3221H14.868V10.455C14.868 8.36743 13.942 6.87223 12.1244 6.87223C10.7325 6.95849 9.54768 7.91887 9.16807 9.25881C9.03003 9.63261 8.96676 10.0294 8.97827 10.4262V18.3221H6.64308V8.74124H6.64883Z" fill="black"/>
<path d="M31.6516 12.9737C31.6055 15.0095 33.2218 16.7003 35.2579 16.7463C35.2866 16.7463 35.3154 16.7463 35.3384 16.7463C37.8634 16.7463 39.3301 14.6817 39.3301 11.6683C39.3301 9.0632 37.9439 6.80889 35.4189 6.80889C33.6819 6.83764 32.1922 8.05106 31.8068 9.7418C31.7148 10.0523 31.6573 10.3686 31.6458 10.6907V12.968L31.6516 12.9737ZM29.2934 9.47151C29.2934 7.78652 29.2416 6.42933 29.1841 5.18141H31.3007L31.4387 7.43572H31.4963C32.4625 5.791 34.2571 4.81336 36.1666 4.91112C39.3703 4.91112 41.7573 7.59675 41.7573 11.559C41.7573 16.2805 38.8527 18.6153 35.7583 18.6153C34.142 18.6843 32.6063 17.9022 31.7148 16.5507H31.6573V25.7003H29.2934V9.46576V9.47151Z" fill="black"/>
<path d="M51.6559 11.6166C49.0503 11.5648 46.0882 12.0249 46.0882 14.5783C45.9847 15.7284 46.8302 16.7463 47.9805 16.8556C48.0898 16.8671 48.2049 16.8671 48.3141 16.8556C49.7521 16.9016 51.0577 16.016 51.5408 14.6588C51.6156 14.4115 51.6501 14.1584 51.6501 13.8997V11.6166H51.6559ZM53.968 15.1706C53.9565 16.223 54.0198 17.2754 54.1578 18.322H52.0182L51.8284 16.6658H51.7479C50.8046 17.9252 49.3092 18.6556 47.7275 18.6211C45.0644 18.6211 43.707 16.7463 43.707 14.8485C43.707 11.6741 46.5311 9.93736 51.6099 9.96612V9.69583C51.6099 8.63768 51.3108 6.65366 48.6247 6.68241C47.4054 6.67091 46.2033 7.01021 45.1737 7.66005L44.6331 6.06132C45.9502 5.29647 47.4514 4.90541 48.9756 4.92267C52.9903 4.92267 53.9738 7.6658 53.9738 10.2709V15.1821L53.968 15.1706Z" fill="black"/>
<path d="M67.1855 17.8619C65.9949 18.3795 64.7122 18.6383 63.4124 18.621C59.4494 18.621 56.8669 15.9354 56.8669 11.9156C56.8669 7.89581 59.6393 4.91114 63.9243 4.91114C65.0688 4.89389 66.2019 5.13542 67.2372 5.61849L66.6966 7.43574C65.8396 7.00443 64.8848 6.7859 63.9243 6.80891C60.9104 6.80891 59.2826 9.06322 59.2826 11.7776C59.2826 14.8198 61.2382 16.6888 63.8437 16.6888C64.856 16.7003 65.8568 16.4875 66.7771 16.0619L67.1855 17.8562V17.8619Z" fill="black"/>
<path d="M73.2132 2.03577V5.1872H76.6297V7.00446H73.2132V14.0894C73.2132 15.7169 73.6733 16.6428 75.002 16.6428C75.4678 16.66 75.9337 16.6083 76.3881 16.4818L76.4974 18.299C75.8129 18.5233 75.0997 18.6326 74.3808 18.6268C73.4203 18.6728 72.4827 18.3048 71.804 17.6204C71.1541 16.8901 70.8838 15.7227 70.8838 14.1757V7.01021H68.8477V5.19296H70.8838V2.74887L73.2189 2.04152L73.2132 2.03577Z" fill="black"/>
<path d="M78.9936 15.9067C79.9599 16.4703 81.0527 16.7866 82.1686 16.8268C83.8768 16.8268 84.6935 15.9815 84.6935 14.8716C84.6935 13.7617 84.0149 13.1348 82.2778 12.485C79.8909 11.6166 78.7751 10.3399 78.7751 8.76421C78.7751 6.64792 80.5121 4.91118 83.3074 4.91118C84.429 4.88243 85.539 5.16421 86.5111 5.72204L85.9417 7.45878C85.1364 6.95271 84.2047 6.68243 83.2556 6.67667C81.8465 6.67667 81.0815 7.49329 81.0815 8.46517C81.0815 9.55207 81.8407 10.0409 83.549 10.7195C85.8036 11.5591 86.9942 12.6978 86.9942 14.653C86.9942 16.9879 85.1767 18.6153 82.111 18.6153C80.8227 18.6326 79.5515 18.3163 78.4185 17.6952L78.9879 15.901L78.9936 15.9067Z" fill="black"/>
<path d="M36.1262 25.3093C35.7984 25.4531 35.4418 25.5221 35.0852 25.5163C34.1362 25.5681 33.3252 24.8377 33.2734 23.8888C33.2734 23.8141 33.2734 23.7393 33.2734 23.6703C33.2274 22.6524 34.0154 21.784 35.0334 21.738C35.0967 21.738 35.16 21.738 35.2232 21.738C35.5396 21.738 35.8502 21.8013 36.1377 21.9336L35.9882 22.4396C35.7524 22.3189 35.4878 22.2614 35.2232 22.2671C34.5273 22.2499 33.9521 22.8019 33.9348 23.4978C33.9348 23.5438 33.9348 23.5898 33.9348 23.6416C33.8716 24.3259 34.3777 24.9297 35.0622 24.993C35.1082 24.993 35.1485 24.993 35.1945 24.993C35.4763 24.993 35.7524 24.9355 36.0055 24.8205L36.1147 25.315L36.1262 25.3093Z" fill="black"/>
<path d="M38.8124 23.584C38.0934 23.5668 37.2767 23.6991 37.2767 24.4007C37.2479 24.717 37.478 24.9987 37.8001 25.0332C37.8288 25.0332 37.8633 25.0332 37.8921 25.0332C38.289 25.0447 38.6513 24.7975 38.7836 24.4237C38.8009 24.3547 38.8124 24.2856 38.8124 24.2166V23.584ZM39.4451 24.5617C39.4451 24.8492 39.4566 25.1425 39.4968 25.43H38.9044L38.8526 24.9757H38.8296C38.5708 25.3265 38.1567 25.5221 37.7196 25.5163C37.1501 25.5566 36.6555 25.1253 36.6152 24.5559C36.6152 24.5272 36.6152 24.5042 36.6152 24.4754C36.6152 23.5955 37.3917 23.1182 38.7951 23.124V23.0492C38.8469 22.6409 38.5593 22.2671 38.1509 22.2154C38.0934 22.2096 38.0301 22.2096 37.9726 22.2154C37.6333 22.2154 37.3054 22.3074 37.0179 22.4856L36.8683 22.0428C37.2307 21.8301 37.6448 21.7208 38.0704 21.7265C39.1805 21.7265 39.4508 22.4856 39.4508 23.2045V24.5617H39.4451Z" fill="black"/>
<path d="M41.274 20.9386V21.807H42.2173V22.3073H41.274V24.2626C41.274 24.7111 41.4006 24.9642 41.7687 24.9642C41.8952 24.9642 42.0275 24.9527 42.1483 24.9182L42.177 25.4242C41.9872 25.4875 41.7917 25.5162 41.5904 25.5162C41.3258 25.5277 41.067 25.43 40.8771 25.2402C40.6816 24.9642 40.5896 24.6249 40.6241 24.2856V22.3073H40.0662V21.807H40.6241V21.1341L41.2683 20.9386H41.274Z" fill="black"/>
<path d="M45.2198 23.2678C45.2888 22.756 44.9322 22.2844 44.4203 22.2096C44.3858 22.2096 44.3455 22.2039 44.311 22.2039C43.7474 22.2384 43.3045 22.7042 43.2987 23.2678H45.2255H45.2198ZM43.2872 23.7393C43.2297 24.3777 43.7013 24.9413 44.3398 24.9988C44.403 24.9988 44.4663 25.0045 44.5353 24.9988C44.8804 25.0103 45.2198 24.947 45.5361 24.809L45.6569 25.2806C45.2716 25.4416 44.8574 25.5221 44.4433 25.5106C43.5115 25.5623 42.7121 24.855 42.6545 23.9234C42.6545 23.8429 42.6545 23.7566 42.6545 23.6761C42.6545 22.5834 43.2987 21.7266 44.357 21.7266C45.5476 21.7266 45.8525 22.7617 45.8525 23.4288C45.8525 23.5323 45.8525 23.6358 45.8295 23.7336H43.2815L43.2872 23.7393Z" fill="black"/>
<path d="M46.6691 22.9342C46.6691 22.5087 46.6576 22.1406 46.6404 21.8013H47.2155L47.2501 22.5202H47.2731C47.4054 22.0659 47.8137 21.7438 48.2854 21.7266C48.3486 21.7266 48.4062 21.7323 48.4637 21.7438V22.3649C48.3889 22.3534 48.3141 22.3476 48.2394 22.3534C47.7735 22.3707 47.3939 22.7272 47.3536 23.193C47.3363 23.2965 47.3306 23.4 47.3306 23.5036V25.4358H46.6691V22.94V22.9342Z" fill="black"/>
<path d="M49.1539 21.8071H49.8153V25.4301H49.1539V21.8071ZM49.8844 20.7892C49.8844 21.0077 49.7176 21.186 49.499 21.1917C49.4875 21.1917 49.476 21.1917 49.4645 21.1917C49.2517 21.1917 49.0734 21.025 49.0676 20.8122C49.0676 20.8064 49.0676 20.7949 49.0676 20.7892C49.0676 20.5649 49.2402 20.3809 49.4587 20.3751C49.4645 20.3751 49.4702 20.3751 49.476 20.3751C49.6946 20.3751 49.8729 20.5476 49.8786 20.7662C49.8786 20.7719 49.8786 20.7834 49.8786 20.7892" fill="black"/>
<path d="M50.9082 22.7904C50.9082 22.4051 50.8966 22.1119 50.8794 21.8071H51.4661L51.5006 22.4051H51.5121C51.7594 21.9796 52.2195 21.7208 52.7142 21.7323C53.2146 21.7323 53.9968 22.0313 53.9968 23.2735V25.4301H53.3354V23.3425C53.3354 22.7617 53.1168 22.2729 52.4956 22.2729C52.0872 22.2844 51.7306 22.5547 51.6099 22.9457C51.5811 23.0435 51.5638 23.147 51.5638 23.2505V25.4301H50.9024V22.7847L50.9082 22.7904Z" fill="black"/>
<path d="M57.5053 23.239C57.5053 23.1413 57.4995 23.0435 57.4708 22.9457C57.3615 22.5259 56.9819 22.2384 56.5505 22.2441C55.9178 22.2441 55.4692 22.7732 55.4692 23.6128C55.4692 24.3259 55.8373 24.9182 56.539 24.9182C56.9589 24.9182 57.3327 24.648 57.4535 24.2454C57.488 24.1304 57.511 24.0154 57.5053 23.8946V23.2448V23.239ZM58.1667 24.901C58.2415 25.5048 58.0517 26.1087 57.6491 26.563C57.2752 26.862 56.8036 27.0173 56.3204 27C55.9006 27.0115 55.4807 26.908 55.1126 26.701L55.2794 26.1892C55.6015 26.3847 55.9696 26.4882 56.3434 26.4825C57.0164 26.4825 57.511 26.1317 57.511 25.2058V24.809H57.4938C57.2464 25.2058 56.8036 25.4358 56.3377 25.4128C55.4462 25.3726 54.7502 24.6192 54.7905 23.7221C54.7905 23.6933 54.7905 23.6703 54.7905 23.6416C54.7905 22.4166 55.59 21.7266 56.4297 21.7266C56.8956 21.6978 57.3327 21.9393 57.5628 22.3476H57.58L57.6031 21.8013H58.1897C58.1667 22.0543 58.161 22.3591 58.161 22.7905V24.8952L58.1667 24.901Z" fill="black"/>
</g>
<defs>
<clipPath id="clip0_328_5857">
<rect width="87" height="27" fill="white"/>
</clipPath>
</defs>
</svg>
