<svg width="95" height="39" viewBox="0 0 95 39" fill="none" xmlns="http://www.w3.org/2000/svg">
<g clip-path="url(#clip0_328_5226)">
<path d="M38.6275 0.0285645H0V39H38.6275V0.0285645ZM16.6859 21.6261C16.6859 25.6655 14.533 28.1202 10.609 28.1202C7.13605 28.1202 4.6117 25.5306 4.6117 21.8323H7.68231C7.68231 21.8323 7.56149 25.2713 10.7131 25.2713C12.3377 25.2713 13.542 24.1975 13.542 21.6261V11.0718H16.6872V21.6261H16.6859ZM32.6893 16.5661C32.6893 19.8093 30.6238 22.0345 26.7756 22.0345H22.5984V27.9296H19.4301V11.0731H26.7756C30.6238 11.0731 32.6893 13.2983 32.6893 16.5661ZM29.4979 16.5661C29.4979 14.8142 28.4889 13.8196 26.6355 13.8196H22.5996V19.288H26.6355C28.4902 19.288 29.4979 18.318 29.4979 16.5661Z" fill="black"/>
<path d="M49.9281 28.7478H50.4692V27.9568H49.9088C48.8086 27.9568 48.3291 28.4404 48.3291 29.5505V30.003L47.4834 29.9719V30.702L48.3291 30.6618V35.2783H49.2661V30.6618L50.4692 30.702V29.9719L49.2661 30.0134V29.4169C49.2661 28.9125 49.4294 28.7478 49.9281 28.7478ZM53.1272 27.9568H52.1902V28.9747H53.1272V27.9568ZM55.3084 27.9568H54.3714V28.9747H55.3084V27.9568ZM55.023 29.9719V32.9233C55.023 34.1877 54.248 34.5884 53.5244 34.5884C52.8007 34.5884 52.4756 34.1981 52.4756 33.468V29.9719H51.5386V33.6521C51.5386 34.7738 52.2211 35.4105 53.3213 35.4105C54.095 35.4105 54.7274 35.0915 55.0834 34.5274V35.2783H55.96V29.9719H55.023ZM60.1797 29.828C59.3545 29.828 58.8031 30.3013 58.4677 31.0417V29.9719H57.5911V35.2783H58.5294V32.3787C58.5692 31.2998 59.3443 30.7539 60.037 30.7539C60.1591 30.7539 60.2607 30.7539 60.3725 30.7642V29.8384C60.3121 29.828 60.2504 29.828 60.1784 29.828M66.7631 35.4313C68.7707 35.4313 69.5651 34.425 69.5651 33.2514C69.5651 32.0779 68.8311 31.4632 67.4854 31.174L66.2117 30.8978C65.3043 30.702 64.9482 30.3726 64.9482 29.7865C64.9482 29.0162 65.5587 28.5727 66.5986 28.5727C67.7104 28.5727 68.3517 29.0668 68.4327 30.0017H69.3401C69.227 28.5831 68.2386 27.7908 66.6294 27.7908C65.0202 27.7908 64.0511 28.635 64.0511 29.8682C64.0511 31.1014 64.9071 31.5332 66.0896 31.7796L67.1088 31.9949C68.2399 32.2322 68.6474 32.6121 68.6474 33.3007C68.6474 34.1332 68.0355 34.648 66.7926 34.648C65.5497 34.648 64.8056 34.1241 64.704 32.9H63.7966C63.9187 34.5962 64.9482 35.4287 66.7631 35.4287M70.9005 28.9747H71.8375V27.9568H70.9005V28.9747ZM70.9005 35.2783H71.8375V29.9732H70.9005V35.2783ZM78.043 32.5006C78.043 30.8446 77.1163 29.8474 75.6382 29.8474C74.0688 29.8474 73.1626 30.9782 73.1626 32.603C73.1626 34.2279 74.0906 35.4001 75.6587 35.4001C76.8104 35.4001 77.6767 34.7725 78.0031 33.6729L77.1471 33.5704C76.9132 34.2383 76.4646 34.6299 75.6896 34.6299C74.7423 34.6299 74.1305 34.0437 74.0996 32.8507H78.043V32.5006ZM75.6484 30.6203C76.5045 30.6203 77.0443 31.1649 77.1664 32.1725H74.1099C74.2012 31.1338 74.813 30.6203 75.6484 30.6203ZM79.4196 35.2783H80.5712V34.2396H79.4196V35.2783Z" fill="black"/>
<path d="M55.5331 3.28206L54.3815 7.65213L53.9946 9.30809L53.6077 7.65213L52.4355 3.28206H51.3648L50.1836 7.65213L49.7865 9.29642L49.4292 7.65213L48.3482 3.28206H47.3804L49.3173 10.6023H50.2235L51.8957 4.26889L53.5769 10.6023H54.483L56.5009 3.28206H55.5331ZM57.6217 4.30001H58.5587V3.28206H57.6217V4.30001ZM57.6217 10.6023H58.5587V5.29722H57.6217V10.6023ZM62.7784 5.15198C61.9532 5.15198 61.4018 5.6253 61.0664 6.36575V5.29722H60.1898V10.6023H61.1268V7.70271C61.1679 6.62251 61.9417 6.07787 62.6357 6.07787C62.7578 6.07787 62.8594 6.07787 62.9712 6.08824V5.16236C62.9108 5.15198 62.8491 5.15198 62.7771 5.15198M69.3309 5.16365C68.597 5.16365 67.9968 5.45153 67.6292 5.96505V3.28206H66.6922V10.6023H67.6292V7.65213C67.6292 6.3865 68.4042 5.9858 69.1279 5.9858C69.8515 5.9858 70.178 6.37742 70.178 7.1062V10.6023H71.1149V6.92206C71.1149 5.80166 70.4312 5.16365 69.3322 5.16365M77.3808 9.90331C77.0338 9.90331 76.9233 9.78919 76.9233 9.44036V6.82999C76.9233 5.66809 76.1688 5.13253 74.8642 5.13253C73.5596 5.13253 72.764 5.68755 72.6727 6.85981H73.6007C73.6612 6.15049 74.039 5.91448 74.7922 5.91448C75.6084 5.91448 75.9747 6.18291 75.9747 6.73662V6.96226C75.9747 7.20864 75.8526 7.33313 75.5981 7.36296L74.2524 7.53802C72.9787 7.70271 72.4594 8.31996 72.4594 9.19398C72.4594 10.1704 73.1522 10.7358 74.2215 10.7358C75.1187 10.7358 75.7909 10.3351 76.1277 9.82161C76.1675 10.3455 76.4747 10.6036 77.0338 10.6036H77.5338V9.9046H77.3808V9.90331ZM74.3951 10.0057C73.7833 10.0057 73.3861 9.69712 73.3861 9.15248C73.3861 8.67917 73.6714 8.35109 74.4053 8.23697L75.9747 8.00096V8.74141C75.9747 9.41961 75.2408 10.007 74.3951 10.007M81.0903 5.18311C80.4065 5.18311 79.8268 5.47099 79.49 5.9443V3.28076H78.553V10.601H79.3679V9.76844C79.6738 10.3235 80.2959 10.7138 81.0491 10.7138C82.4758 10.7138 83.3524 9.47019 83.3524 7.8259C83.3524 6.18161 82.4257 5.18311 81.0903 5.18311ZM80.9579 9.90331C80.0813 9.90331 79.4399 9.14211 79.4399 7.88814C79.4399 6.63418 80.0813 5.99617 80.9579 5.99617C81.8345 5.99617 82.4154 6.61213 82.4154 7.8259C82.4154 9.03966 81.8653 9.90331 80.9579 9.90331ZM89.2533 7.8259C89.2533 6.16994 88.3253 5.17273 86.8485 5.17273C85.2791 5.17273 84.3729 6.3035 84.3729 7.92834C84.3729 9.55318 85.2997 10.7242 86.869 10.7242C88.0207 10.7242 88.8857 10.0965 89.2122 8.99687L88.3561 8.89443C88.1209 9.56226 87.6723 9.95388 86.8986 9.95388C85.9513 9.95388 85.3395 9.36774 85.3099 8.17473H89.2533V7.8246V7.8259ZM86.8575 5.9443C87.7135 5.9443 88.2533 6.48894 88.3754 7.49652H85.3176C85.4102 6.45782 86.0207 5.9443 86.8562 5.9443M93.2172 5.16365C92.4421 5.16365 91.8111 5.48266 91.4537 6.04804V5.29722H90.5771V10.6023H91.5154V7.65213C91.5154 6.3865 92.2892 5.9858 93.0128 5.9858C93.7364 5.9858 94.0629 6.37742 94.0629 7.1062V10.6023H94.9999V6.92206C94.9999 5.80166 94.3174 5.16365 93.2172 5.16365Z" fill="black"/>
<path d="M53.7184 17.1004L52.8521 20.1646L52.5462 21.429L52.2917 20.1646L51.5372 17.1004H50.518L49.7635 20.1646L49.4897 21.429L49.1735 20.1646L48.3484 17.1004H47.3291L48.9897 22.4067H49.9473L50.7416 19.2401L51.0269 17.9031L51.293 19.2401L52.0372 22.4067H52.9742L54.6862 17.1004H53.7184ZM60.2413 21.7065C59.8943 21.7065 59.7838 21.5937 59.7838 21.2448V18.6332C59.7838 17.4713 59.0293 16.937 57.7247 16.937C56.4201 16.937 55.6245 17.492 55.5332 18.6643H56.46C56.5217 17.955 56.8982 17.719 57.6527 17.719C58.4676 17.719 58.8339 17.9861 58.8339 18.5411V18.7667C58.8339 19.0131 58.7118 19.1363 58.4573 19.1674L57.1116 19.3425C55.8379 19.5072 55.3173 20.1244 55.3173 20.9985C55.3173 21.9749 56.0114 22.5403 57.0808 22.5403C57.9766 22.5403 58.6488 22.1396 58.9856 21.6261C59.0254 22.15 59.3326 22.408 59.8917 22.408H60.3917V21.7078H60.2388L60.2413 21.7065ZM57.2556 21.8089C56.6438 21.8089 56.2466 21.5003 56.2466 20.9557C56.2466 20.4823 56.5319 20.1543 57.2659 20.0415L58.8352 19.8041V20.5446C58.8352 21.2228 58.1013 21.8089 57.2556 21.8089ZM63.1963 22.539C64.5818 22.539 65.3877 21.9023 65.3877 20.8636C65.3877 20.0933 64.9392 19.6096 63.8492 19.3619L62.83 19.1363C62.2079 19.0027 62.0151 18.7667 62.0151 18.427C62.0151 17.9537 62.4122 17.728 63.0742 17.728C63.8184 17.728 64.2155 18.0263 64.3171 18.6435H65.2451C65.1127 17.5024 64.2978 16.9772 63.105 16.9772C61.8107 16.9772 61.1488 17.5841 61.1488 18.5087C61.1488 19.2595 61.5871 19.7315 62.6063 19.9481L63.6654 20.1737C64.2155 20.2878 64.4906 20.5238 64.4906 20.9453C64.4906 21.4497 64.0934 21.7778 63.2361 21.7778C62.4315 21.7778 61.9932 21.4705 61.902 20.7287H61.0048C61.1269 21.9425 61.8711 22.539 63.1963 22.539Z" fill="black"/>
</g>
<defs>
<clipPath id="clip0_328_5226">
<rect width="95" height="39" fill="white"/>
</clipPath>
</defs>
</svg>
