<svg width="83" height="30" viewBox="0 0 83 30" fill="none" xmlns="http://www.w3.org/2000/svg">
<g clip-path="url(#clip0_328_5169)">
<path d="M18.916 22.1226C18.916 22.1982 18.9255 22.2526 18.9455 22.2856C18.9655 22.3186 19.0034 22.3346 19.0613 22.3346H19.1256C19.1508 22.3346 19.1793 22.3314 19.2119 22.3239V22.7532C19.1909 22.7607 19.1624 22.7681 19.1287 22.7777C19.094 22.7873 19.0592 22.7948 19.0245 22.8022C18.9887 22.8097 18.9529 22.815 18.9171 22.8182C18.8813 22.8214 18.8507 22.8235 18.8254 22.8235C18.7001 22.8235 18.5959 22.7979 18.5137 22.7479C18.4316 22.6968 18.3779 22.6083 18.3526 22.4816C18.2305 22.6009 18.0809 22.6882 17.904 22.7426C17.726 22.7969 17.5555 22.8246 17.3901 22.8246C17.2648 22.8246 17.1448 22.8075 17.03 22.7734C16.9152 22.7394 16.8141 22.6882 16.7267 22.6211C16.6382 22.554 16.5687 22.4688 16.5171 22.3655C16.4655 22.2621 16.4392 22.1418 16.4392 22.0044C16.4392 21.8307 16.4708 21.689 16.5329 21.5804C16.5951 21.4717 16.6783 21.3865 16.7804 21.3247C16.8825 21.263 16.9973 21.2193 17.1247 21.1916C17.2522 21.165 17.3796 21.1437 17.5091 21.1287C17.6207 21.1074 17.726 21.0915 17.8261 21.0829C17.9261 21.0744 18.0146 21.0584 18.0925 21.0371C18.1694 21.0158 18.2305 20.9817 18.2757 20.937C18.321 20.8923 18.3431 20.8241 18.3431 20.7335C18.3431 20.6536 18.3242 20.5887 18.2863 20.5375C18.2484 20.4864 18.202 20.4481 18.1462 20.4204C18.0904 20.3927 18.0283 20.3746 17.9609 20.366C17.8924 20.3575 17.8282 20.3522 17.7671 20.3522C17.5944 20.3522 17.4533 20.3884 17.3427 20.4608C17.2311 20.5333 17.169 20.6462 17.1542 20.7975H16.5414C16.5519 20.6164 16.5951 20.4662 16.6698 20.3458C16.7446 20.2254 16.8404 20.1306 16.9573 20.0582C17.0742 19.9857 17.2058 19.9346 17.3522 19.9059C17.4986 19.8771 17.6492 19.8622 17.804 19.8622C17.9398 19.8622 18.0746 19.8771 18.2073 19.9059C18.34 19.9346 18.459 19.9815 18.5643 20.0475C18.6696 20.1125 18.7549 20.1967 18.8191 20.3C18.8834 20.4033 18.916 20.529 18.916 20.6781V22.1247V22.1226ZM18.3031 21.3397C18.2094 21.4014 18.0957 21.4387 17.9588 21.4515C17.8229 21.4643 17.686 21.4835 17.5502 21.509C17.4859 21.5197 17.4228 21.5357 17.3617 21.5548C17.3006 21.5751 17.2469 21.6017 17.2006 21.6358C17.1542 21.6709 17.1174 21.7157 17.09 21.7721C17.0626 21.8286 17.05 21.8968 17.05 21.9756C17.05 22.0448 17.07 22.1024 17.109 22.1503C17.149 22.1972 17.1964 22.2344 17.2511 22.2611C17.3069 22.2888 17.368 22.3069 17.4343 22.3186C17.5007 22.3303 17.5607 22.3346 17.6144 22.3346C17.6829 22.3346 17.7555 22.325 17.8345 22.3069C17.9135 22.2888 17.9883 22.2579 18.0578 22.2142C18.1273 22.1705 18.1862 22.1151 18.2326 22.048C18.2789 21.9809 18.3021 21.8978 18.3021 21.8009V21.3386L18.3031 21.3397Z" fill="#1D1D1B"/>
<path d="M22.0173 22.7479H21.415V22.357H21.4044C21.3297 22.4987 21.217 22.6116 21.0685 22.6968C20.92 22.782 20.7684 22.8246 20.6147 22.8246C20.2492 22.8246 19.9849 22.733 19.8217 22.5498C19.6585 22.3666 19.5774 22.0907 19.5774 21.7211V19.9379H20.1903V21.6614C20.1903 21.9075 20.2366 22.0822 20.3303 22.1834C20.423 22.2846 20.5546 22.3357 20.7231 22.3357C20.8516 22.3357 20.9601 22.3155 21.0454 22.276C21.1317 22.2366 21.2012 22.1823 21.2549 22.1163C21.3086 22.0491 21.3476 21.9682 21.3708 21.8745C21.3939 21.7796 21.4055 21.6784 21.4055 21.5698V19.9379H22.0184V22.749L22.0173 22.7479Z" fill="#1D1D1B"/>
<path d="M23.1241 21.8457C23.142 22.0268 23.2105 22.1535 23.3284 22.226C23.4464 22.2984 23.5885 22.3346 23.7528 22.3346C23.8097 22.3346 23.875 22.3304 23.9487 22.3208C24.0224 22.3112 24.0908 22.2942 24.1561 22.2697C24.2214 22.2452 24.2741 22.2068 24.3151 22.1578C24.3562 22.1088 24.3752 22.0449 24.372 21.965C24.3678 21.8851 24.3394 21.8201 24.2856 21.769C24.2319 21.7189 24.1624 21.6774 24.0792 21.6465C23.995 21.6156 23.8992 21.59 23.7918 21.5677C23.6844 21.5453 23.5748 21.5229 23.4643 21.4974C23.3495 21.4718 23.24 21.4409 23.1336 21.4047C23.0283 21.3685 22.9325 21.3195 22.8482 21.2577C22.764 21.1959 22.6966 21.1171 22.6471 21.0212C22.5965 20.9253 22.5723 20.806 22.5723 20.6654C22.5723 20.5131 22.6092 20.3853 22.6829 20.2819C22.7566 20.1786 22.8493 20.0955 22.962 20.0316C23.0746 19.9677 23.1999 19.924 23.3379 19.8985C23.4758 19.8729 23.6075 19.8601 23.7328 19.8601C23.876 19.8601 24.0129 19.8761 24.1435 19.9059C24.2741 19.9368 24.392 19.9869 24.4984 20.0561C24.6037 20.1253 24.6921 20.2148 24.7616 20.3256C24.8311 20.4364 24.8754 20.5695 24.8933 20.7251H24.2541C24.2256 20.5759 24.1582 20.4769 24.0529 20.4257C23.9476 20.3746 23.8265 20.3501 23.6907 20.3501C23.6475 20.3501 23.5969 20.3533 23.5369 20.3608C23.478 20.3682 23.4221 20.381 23.3705 20.4012C23.3189 20.4215 23.2747 20.4502 23.2389 20.4886C23.2031 20.5269 23.1852 20.577 23.1852 20.6377C23.1852 20.7144 23.2115 20.7751 23.2631 20.8231C23.3147 20.8699 23.3832 20.9094 23.4674 20.9402C23.5517 20.9711 23.6475 20.9978 23.7549 21.0191C23.8623 21.0404 23.9729 21.0638 24.0877 21.0894C24.1982 21.1149 24.3078 21.1458 24.4152 21.1821C24.5226 21.2183 24.6184 21.2673 24.7027 21.3291C24.7869 21.3908 24.8554 21.4686 24.907 21.5634C24.9586 21.6582 24.9849 21.7733 24.9849 21.9117C24.9849 22.079 24.947 22.2196 24.8722 22.3357C24.7974 22.4518 24.6995 22.5455 24.5795 22.618C24.4594 22.6904 24.3257 22.7426 24.1793 22.7756C24.0319 22.8087 23.8876 22.8246 23.7444 22.8246C23.5685 22.8246 23.4063 22.8044 23.2579 22.765C23.1094 22.7245 22.9799 22.6649 22.8714 22.5828C22.7619 22.5019 22.6766 22.3996 22.6134 22.2782C22.5502 22.1567 22.5176 22.0129 22.5144 21.8457H23.1273H23.1241Z" fill="#1D1D1B"/>
<path d="M25.1724 19.9368H25.6347V19.0942H26.2475V19.9368H26.8014V20.3991H26.2475V21.9C26.2475 21.965 26.2507 22.0215 26.256 22.0684C26.2612 22.1152 26.2739 22.1557 26.2939 22.1877C26.3139 22.2207 26.3434 22.2452 26.3823 22.2612C26.4223 22.2771 26.4761 22.2857 26.5434 22.2857C26.5866 22.2857 26.6298 22.2857 26.6719 22.2825C26.7151 22.2803 26.7583 22.2739 26.8004 22.2633V22.7416C26.7319 22.749 26.6656 22.7565 26.6014 22.7639C26.5371 22.7714 26.4708 22.7746 26.4023 22.7746C26.2412 22.7746 26.1117 22.7586 26.0127 22.7288C25.9137 22.6979 25.8368 22.6532 25.7821 22.5924C25.7263 22.5328 25.6884 22.4572 25.6694 22.3666C25.6505 22.2761 25.6378 22.1727 25.6347 22.0566V20.3981H25.1724V19.9358V19.9368Z" fill="#1D1D1B"/>
<path d="M27.2417 19.9367H27.8167V20.4811H27.8272C27.8451 20.4054 27.8799 20.3309 27.9325 20.2584C27.9841 20.186 28.0473 20.12 28.121 20.0603C28.1947 20.0007 28.2758 19.9527 28.3653 19.9165C28.4548 19.8803 28.5464 19.8622 28.6391 19.8622C28.7107 19.8622 28.7602 19.8643 28.7876 19.8675C28.8139 19.8707 28.8423 19.875 28.8708 19.8782V20.4758C28.8276 20.4683 28.7834 20.4619 28.7391 20.4566C28.6949 20.4513 28.6507 20.4481 28.6075 20.4481C28.5033 20.4481 28.4064 20.4683 28.3148 20.5109C28.2232 20.5524 28.1442 20.6142 28.0757 20.6963C28.0073 20.7783 27.9536 20.8784 27.9146 20.9977C27.8756 21.117 27.8556 21.2555 27.8556 21.411V22.7489H27.2428V19.9378L27.2417 19.9367Z" fill="#1D1D1B"/>
<path d="M29.1497 18.8652H29.7625V19.4522H29.1497V18.8652ZM29.1497 19.9369H29.7625V22.748H29.1497V19.9369Z" fill="#1D1D1B"/>
<path d="M32.7563 22.1226C32.7563 22.1982 32.7658 22.2526 32.7858 22.2856C32.8058 22.3186 32.8437 22.3346 32.9017 22.3346H32.9659C32.9912 22.3346 33.0196 22.3314 33.0522 22.3239V22.7532C33.0312 22.7607 33.0027 22.7681 32.9691 22.7777C32.9354 22.7873 32.8996 22.7948 32.8648 22.8022C32.829 22.8097 32.7932 22.815 32.7574 22.8182C32.7216 22.8214 32.691 22.8235 32.6658 22.8235C32.5405 22.8235 32.4362 22.7979 32.3541 22.7479C32.2719 22.6978 32.2182 22.6083 32.1929 22.4816C32.0708 22.6009 31.9213 22.6882 31.7443 22.7426C31.5664 22.7969 31.3958 22.8246 31.2305 22.8246C31.1051 22.8246 30.9851 22.8075 30.8703 22.7734C30.7555 22.7394 30.6544 22.6882 30.567 22.6211C30.4786 22.554 30.4091 22.4688 30.3575 22.3655C30.3059 22.2621 30.2795 22.1418 30.2795 22.0044C30.2795 21.8307 30.3111 21.689 30.3733 21.5804C30.4354 21.4717 30.5186 21.3865 30.6207 21.3247C30.7229 21.263 30.8377 21.2193 30.9651 21.1916C31.0925 21.165 31.2199 21.1437 31.3494 21.1287C31.4611 21.1074 31.5664 21.0915 31.6664 21.0829C31.7665 21.0733 31.8549 21.0584 31.9328 21.0371C32.0108 21.0158 32.0708 20.9817 32.1161 20.937C32.1603 20.8923 32.1835 20.8241 32.1835 20.7335C32.1835 20.6536 32.1645 20.5887 32.1266 20.5375C32.0887 20.4864 32.0424 20.4481 31.9876 20.4204C31.9318 20.3927 31.8697 20.3746 31.8023 20.366C31.7338 20.3575 31.6696 20.3522 31.6085 20.3522C31.4358 20.3522 31.2947 20.3884 31.1841 20.4608C31.0725 20.5333 31.0104 20.6462 30.9956 20.7975H30.3827C30.3933 20.6164 30.4364 20.4662 30.5112 20.3458C30.586 20.2254 30.6818 20.1306 30.7987 20.0582C30.9156 19.9857 31.0472 19.9346 31.1936 19.9059C31.34 19.8771 31.4906 19.8622 31.6454 19.8622C31.7812 19.8622 31.916 19.8771 32.0487 19.9059C32.1814 19.9346 32.3004 19.9815 32.4057 20.0475C32.512 20.1125 32.5963 20.1967 32.6616 20.3C32.7258 20.4033 32.7584 20.529 32.7584 20.6781V22.1247L32.7563 22.1226ZM32.1435 21.3397C32.0508 21.4014 31.936 21.4387 31.7991 21.4515C31.6622 21.4643 31.5264 21.4835 31.3905 21.509C31.3263 21.5197 31.2631 21.5357 31.202 21.5548C31.1409 21.5751 31.0872 21.6017 31.0409 21.6358C30.9946 21.6709 30.9577 21.7157 30.9303 21.7721C30.903 21.8286 30.8903 21.8968 30.8903 21.9756C30.8903 22.0448 30.9103 22.1024 30.9493 22.1503C30.9893 22.1972 31.0367 22.2344 31.0914 22.2611C31.1473 22.2888 31.2083 22.3069 31.2747 22.3186C31.341 22.3303 31.401 22.3346 31.4548 22.3346C31.5232 22.3346 31.5959 22.325 31.6748 22.3069C31.7538 22.2888 31.8275 22.2579 31.8981 22.2142C31.9686 22.1705 32.0266 22.1151 32.0729 22.048C32.1192 21.9809 32.1424 21.8978 32.1424 21.8009V21.3386L32.1435 21.3397Z" fill="#1D1D1B"/>
<path d="M33.4177 19.9368H33.998V20.3501L34.0085 20.3608C34.1012 20.2052 34.2233 20.0827 34.3739 19.9933C34.5245 19.9048 34.6909 19.8601 34.8741 19.8601C35.1784 19.8601 35.4185 19.94 35.5944 20.0998C35.7703 20.2596 35.8577 20.4982 35.8577 20.8177V22.7479H35.2448V20.9807C35.2374 20.7602 35.1911 20.5994 35.1047 20.4992C35.0184 20.3991 34.8846 20.3501 34.7014 20.3501C34.5972 20.3501 34.5045 20.3693 34.4223 20.4076C34.3402 20.446 34.2697 20.4982 34.2128 20.5653C34.1559 20.6324 34.1106 20.7112 34.079 20.8018C34.0464 20.8923 34.0306 20.9882 34.0306 21.0894V22.7479H33.4177V19.9368Z" fill="#1D1D1B"/>
<path d="M38.0133 18.8652H38.6261V20.3012H38.6367C38.6798 20.2319 38.7314 20.1712 38.7925 20.1158C38.8536 20.0604 38.921 20.0157 38.9947 19.9773C39.0674 19.939 39.1453 19.9102 39.2253 19.89C39.3054 19.8697 39.3854 19.8602 39.4644 19.8602C39.6834 19.8602 39.874 19.8996 40.0372 19.9773C40.2005 20.0551 40.3353 20.1627 40.4427 20.298C40.5501 20.4343 40.6312 20.593 40.6849 20.7741C40.7386 20.9552 40.7649 21.1491 40.7649 21.3557C40.7649 21.5443 40.7407 21.7275 40.6922 21.9054C40.6438 22.0833 40.5701 22.2399 40.4722 22.3762C40.3742 22.5126 40.2489 22.6212 40.0983 22.7022C39.9477 22.7842 39.7708 22.8247 39.5665 22.8247C39.4728 22.8247 39.3791 22.8183 39.2843 22.8055C39.1895 22.7927 39.099 22.7682 39.0126 22.732C38.9263 22.6958 38.8483 22.6489 38.7788 22.5903C38.7093 22.5328 38.6504 22.4561 38.604 22.3624H38.5935V22.748H38.0122V18.8652H38.0133ZM40.1531 21.3451C40.1531 21.2183 40.1362 21.0948 40.1046 20.9754C40.072 20.8561 40.0246 20.7496 39.9593 20.6569C39.8951 20.5643 39.814 20.4897 39.7171 20.4343C39.6202 20.3779 39.5097 20.3502 39.3833 20.3502C39.1253 20.3502 38.9305 20.4407 38.7999 20.6218C38.6693 20.8029 38.603 21.0436 38.603 21.3451C38.603 21.4868 38.6198 21.6178 38.6535 21.7392C38.6872 21.8607 38.7388 21.965 38.8073 22.0513C38.8757 22.1387 38.9568 22.2069 39.0516 22.258C39.1464 22.3091 39.2569 22.3336 39.3822 22.3336C39.5223 22.3336 39.6402 22.3049 39.7371 22.2463C39.834 22.1877 39.914 22.1131 39.9762 22.0204C40.0393 21.9278 40.0836 21.8234 40.111 21.7051C40.1383 21.5869 40.151 21.4665 40.151 21.344L40.1531 21.3451Z" fill="#1D1D1B"/>
<path d="M43.722 22.7479H43.1196V22.357H43.1091C43.0333 22.4987 42.9217 22.6116 42.7732 22.6968C42.6247 22.782 42.4731 22.8246 42.3183 22.8246C41.9529 22.8246 41.6885 22.733 41.5253 22.5498C41.3621 22.3666 41.281 22.0907 41.281 21.7211V19.9379H41.8939V21.6614C41.8939 21.9075 41.9402 22.0822 42.0329 22.1834C42.1266 22.2846 42.2572 22.3357 42.4257 22.3357C42.5542 22.3357 42.6626 22.3155 42.7479 22.276C42.8343 22.2366 42.9038 22.1823 42.9575 22.1163C43.0112 22.0491 43.0491 21.9682 43.0733 21.8745C43.0965 21.7796 43.1081 21.6784 43.1081 21.5698V19.9379H43.7209V22.749L43.722 22.7479Z" fill="#1D1D1B"/>
<path d="M44.8298 21.8457C44.8477 22.0268 44.9162 22.1535 45.0341 22.226C45.1531 22.2984 45.2942 22.3346 45.4596 22.3346C45.5164 22.3346 45.5817 22.3304 45.6554 22.3208C45.7292 22.3112 45.7976 22.2942 45.8629 22.2697C45.9282 22.2452 45.9808 22.2068 46.0209 22.1578C46.0619 22.1088 46.0809 22.0449 46.0777 21.965C46.0746 21.8851 46.0461 21.8201 45.9914 21.769C45.9377 21.7189 45.8692 21.6774 45.7839 21.6465C45.6997 21.6156 45.6038 21.59 45.4964 21.5677C45.389 21.5453 45.2795 21.5229 45.1689 21.4974C45.0541 21.4718 44.9436 21.4409 44.8383 21.4047C44.7319 21.3685 44.6371 21.3195 44.5529 21.2577C44.4686 21.1959 44.4013 21.1171 44.3518 21.0212C44.3012 20.9253 44.2759 20.806 44.2759 20.6654C44.2759 20.5131 44.3128 20.3853 44.3865 20.2819C44.4602 20.1786 44.5529 20.0955 44.6656 20.0316C44.7782 19.9677 44.9036 19.924 45.0415 19.8985C45.1795 19.8729 45.3111 19.8601 45.4375 19.8601C45.5807 19.8601 45.7176 19.8761 45.8482 19.9059C45.9787 19.9368 46.0967 19.9869 46.203 20.0561C46.3083 20.1253 46.3968 20.2148 46.4663 20.3256C46.5358 20.4364 46.58 20.5695 46.5979 20.7251H45.9587C45.9292 20.5759 45.8629 20.4769 45.7576 20.4257C45.6512 20.3746 45.5301 20.3501 45.3943 20.3501C45.3511 20.3501 45.3006 20.3533 45.2405 20.3608C45.1816 20.3682 45.1258 20.381 45.0742 20.4012C45.0226 20.4215 44.9783 20.4502 44.9425 20.4886C44.9067 20.5269 44.8888 20.577 44.8888 20.6377C44.8888 20.7144 44.9151 20.7751 44.9667 20.8231C45.0183 20.8699 45.0868 20.9094 45.171 20.9402C45.2553 20.9711 45.3511 20.9978 45.4585 21.0191C45.5659 21.0404 45.6765 21.0638 45.7913 21.0894C45.9019 21.1149 46.0114 21.1458 46.1188 21.1821C46.2262 21.2183 46.322 21.2673 46.4063 21.3291C46.4905 21.3908 46.5579 21.4686 46.6106 21.5634C46.6622 21.6582 46.6885 21.7733 46.6885 21.9117C46.6885 22.079 46.6506 22.2196 46.5758 22.3357C46.5011 22.4518 46.4031 22.5455 46.2831 22.618C46.163 22.6904 46.0293 22.7426 45.8829 22.7756C45.7355 22.8087 45.5912 22.8246 45.448 22.8246C45.2721 22.8246 45.111 22.8044 44.9615 22.765C44.813 22.7245 44.6845 22.6649 44.575 22.5828C44.4655 22.5019 44.3791 22.3996 44.317 22.2782C44.2538 22.1567 44.2212 22.0129 44.218 21.8457H44.8309H44.8298Z" fill="#1D1D1B"/>
<path d="M47.1729 18.8652H47.7857V19.4522H47.1729V18.8652ZM47.1729 19.9369H47.7857V22.748H47.1729V19.9369Z" fill="#1D1D1B"/>
<path d="M48.4524 19.9368H49.0326V20.3501L49.0432 20.3608C49.1358 20.2052 49.258 20.0827 49.4086 19.9933C49.5592 19.9048 49.7255 19.8601 49.9088 19.8601C50.2131 19.8601 50.4532 19.94 50.6291 20.0998C50.8049 20.2596 50.8923 20.4982 50.8923 20.8177V22.7479H50.2795V20.9807C50.2721 20.7602 50.2257 20.5994 50.1394 20.4992C50.053 20.3991 49.9193 20.3501 49.7361 20.3501C49.6318 20.3501 49.5392 20.3693 49.457 20.4076C49.3749 20.446 49.3043 20.4982 49.2475 20.5653C49.1906 20.6324 49.1453 20.7112 49.1137 20.8018C49.0811 20.8923 49.0653 20.9882 49.0653 21.0894V22.7479H48.4524V19.9368Z" fill="#1D1D1B"/>
<path d="M52.0158 21.5026C52.0158 21.6113 52.0305 21.7167 52.0611 21.8179C52.0916 21.9191 52.1379 22.0086 52.199 22.0842C52.259 22.1599 52.337 22.2206 52.4296 22.2664C52.5223 22.3111 52.6339 22.3346 52.7635 22.3346C52.9425 22.3346 53.0868 22.2952 53.1963 22.2174C53.3058 22.1396 53.3869 22.0225 53.4406 21.8669H54.0219C53.9892 22.0193 53.9334 22.1556 53.8544 22.2749C53.7755 22.3942 53.6807 22.4954 53.5691 22.5764C53.4585 22.6573 53.3332 22.7191 53.1952 22.7617C53.0573 22.8033 52.913 22.8246 52.7624 22.8246C52.5434 22.8246 52.3496 22.7884 52.1811 22.7159C52.0126 22.6435 51.8705 22.5423 51.7546 22.4113C51.6377 22.2813 51.5503 22.1247 51.4914 21.9436C51.4324 21.7625 51.4019 21.5633 51.4019 21.346C51.4019 21.1468 51.4334 20.9572 51.4956 20.7783C51.5588 20.5983 51.6483 20.4417 51.7641 20.3053C51.8799 20.169 52.0211 20.0614 52.1864 19.9815C52.3517 19.9016 52.5381 19.8622 52.7456 19.8622C52.9635 19.8622 53.1605 19.908 53.3342 20.0007C53.508 20.0933 53.6522 20.2158 53.767 20.3671C53.8818 20.5194 53.965 20.6941 54.0166 20.8923C54.0682 21.0904 54.0819 21.2938 54.0566 21.5037H52.0137L52.0158 21.5026ZM53.4458 21.0946C53.4385 20.9966 53.4174 20.9029 53.3837 20.8124C53.35 20.7218 53.3037 20.643 53.2447 20.5759C53.1857 20.5088 53.1141 20.4544 53.0299 20.4129C52.9456 20.3714 52.8519 20.3501 52.7477 20.3501C52.6434 20.3501 52.5423 20.3692 52.4549 20.4076C52.3675 20.4459 52.2917 20.4981 52.2296 20.5652C52.1664 20.6323 52.1169 20.7112 52.079 20.8017C52.0411 20.8923 52.02 20.9903 52.0168 21.0957H53.4469L53.4458 21.0946Z" fill="#1D1D1B"/>
<path d="M54.9885 21.8457C55.0064 22.0268 55.0749 22.1535 55.1928 22.226C55.3118 22.2984 55.4529 22.3346 55.6183 22.3346C55.6751 22.3346 55.7404 22.3304 55.8141 22.3208C55.8879 22.3112 55.9563 22.2942 56.0216 22.2697C56.0869 22.2452 56.1395 22.2068 56.1795 22.1578C56.2206 22.1088 56.2396 22.0449 56.2364 21.965C56.2333 21.8851 56.2048 21.8201 56.1501 21.769C56.0964 21.7189 56.0279 21.6774 55.9426 21.6465C55.8584 21.6156 55.7625 21.59 55.6551 21.5677C55.5477 21.5453 55.4382 21.5229 55.3276 21.4974C55.2128 21.4718 55.1023 21.4409 54.997 21.4047C54.8906 21.3685 54.7958 21.3195 54.7116 21.2577C54.6273 21.1959 54.5599 21.1171 54.5104 21.0212C54.4599 20.9253 54.4346 20.806 54.4346 20.6654C54.4346 20.5131 54.4715 20.3853 54.5452 20.2819C54.6189 20.1786 54.7116 20.0955 54.8243 20.0316C54.9369 19.9677 55.0623 19.924 55.2002 19.8985C55.3382 19.8729 55.4698 19.8601 55.5962 19.8601C55.7394 19.8601 55.8763 19.8761 56.0068 19.9059C56.1374 19.9368 56.2554 19.9869 56.3617 20.0561C56.467 20.1253 56.5555 20.2148 56.625 20.3256C56.6945 20.4364 56.7387 20.5695 56.7566 20.7251H56.1174C56.0879 20.5759 56.0216 20.4769 55.9163 20.4257C55.8099 20.3746 55.6888 20.3501 55.553 20.3501C55.5098 20.3501 55.4593 20.3533 55.3992 20.3608C55.3403 20.3682 55.2844 20.381 55.2328 20.4012C55.1812 20.4215 55.137 20.4502 55.1012 20.4886C55.0654 20.5269 55.0475 20.577 55.0475 20.6377C55.0475 20.7144 55.0738 20.7751 55.1254 20.8231C55.177 20.8699 55.2455 20.9094 55.3297 20.9402C55.414 20.9711 55.5098 20.9978 55.6172 21.0191C55.7246 21.0404 55.8352 21.0638 55.95 21.0894C56.0606 21.1149 56.1701 21.1458 56.2775 21.1821C56.3849 21.2183 56.4807 21.2673 56.565 21.3291C56.6492 21.3908 56.7166 21.4686 56.7693 21.5634C56.8209 21.6582 56.8472 21.7733 56.8472 21.9117C56.8472 22.079 56.8093 22.2196 56.7345 22.3357C56.6597 22.4518 56.5618 22.5455 56.4418 22.618C56.3217 22.6904 56.188 22.7426 56.0416 22.7756C55.8942 22.8087 55.7499 22.8246 55.6067 22.8246C55.4308 22.8246 55.2697 22.8044 55.1202 22.765C54.9717 22.7245 54.8432 22.6649 54.7337 22.5828C54.6242 22.5019 54.5378 22.3996 54.4757 22.2782C54.4125 22.1567 54.3799 22.0129 54.3767 21.8457H54.9896H54.9885Z" fill="#1D1D1B"/>
<path d="M57.7781 21.8457C57.796 22.0268 57.8644 22.1535 57.9824 22.226C58.1014 22.2984 58.2425 22.3346 58.4078 22.3346C58.4647 22.3346 58.53 22.3304 58.6037 22.3208C58.6774 22.3112 58.7458 22.2942 58.8111 22.2697C58.8764 22.2452 58.9291 22.2068 58.9691 22.1578C59.0102 22.1088 59.0291 22.0449 59.026 21.965C59.0228 21.8851 58.9944 21.8201 58.9396 21.769C58.8859 21.7189 58.8175 21.6774 58.7322 21.6465C58.6479 21.6156 58.5521 21.59 58.4447 21.5677C58.3373 21.5453 58.2277 21.5229 58.1172 21.4974C58.0024 21.4718 57.8918 21.4409 57.7865 21.4047C57.6802 21.3685 57.5854 21.3195 57.5011 21.2577C57.4169 21.1959 57.3495 21.1171 57.3 21.0212C57.2495 20.9253 57.2242 20.806 57.2242 20.6654C57.2242 20.5131 57.261 20.3853 57.3348 20.2819C57.4085 20.1786 57.5011 20.0955 57.6138 20.0316C57.7265 19.9677 57.8518 19.924 57.9898 19.8985C58.1277 19.8729 58.2593 19.8601 58.3857 19.8601C58.5289 19.8601 58.6658 19.8761 58.7964 19.9059C58.927 19.9368 59.0449 19.9869 59.1513 20.0561C59.2566 20.1253 59.345 20.2148 59.4145 20.3256C59.484 20.4364 59.5283 20.5695 59.5462 20.7251H58.907C58.8775 20.5759 58.8111 20.4769 58.7058 20.4257C58.5995 20.3746 58.4784 20.3501 58.3425 20.3501C58.2994 20.3501 58.2488 20.3533 58.1888 20.3608C58.1298 20.3682 58.074 20.381 58.0224 20.4012C57.9708 20.4215 57.9266 20.4502 57.8908 20.4886C57.855 20.5269 57.8371 20.577 57.8371 20.6377C57.8371 20.7144 57.8634 20.7751 57.915 20.8231C57.9666 20.8699 58.035 20.9094 58.1193 20.9402C58.2035 20.9711 58.2994 20.9978 58.4068 21.0191C58.5142 21.0404 58.6247 21.0638 58.7395 21.0894C58.8501 21.1149 58.9596 21.1458 59.067 21.1821C59.1744 21.2183 59.2703 21.2673 59.3545 21.3291C59.4388 21.3908 59.5062 21.4686 59.5588 21.5634C59.6104 21.6582 59.6367 21.7733 59.6367 21.9117C59.6367 22.079 59.5988 22.2196 59.5241 22.3357C59.4493 22.4518 59.3514 22.5455 59.2313 22.618C59.1113 22.6904 58.9775 22.7426 58.8311 22.7756C58.6837 22.8087 58.5394 22.8246 58.3962 22.8246C58.2204 22.8246 58.0593 22.8044 57.9097 22.765C57.7612 22.7245 57.6328 22.6649 57.5232 22.5828C57.4137 22.5019 57.3274 22.3996 57.2652 22.2782C57.2021 22.1567 57.1694 22.0129 57.1663 21.8457H57.7791H57.7781Z" fill="#1D1D1B"/>
<path d="M63.4763 20.8774C63.4511 20.7027 63.3816 20.5717 63.2689 20.4833C63.1562 20.3938 63.013 20.3501 62.8413 20.3501C62.7624 20.3501 62.6781 20.364 62.5886 20.3906C62.4991 20.4183 62.417 20.4684 62.3411 20.543C62.2653 20.6175 62.2032 20.7208 62.1526 20.8529C62.1021 20.985 62.0768 21.1587 62.0768 21.3717C62.0768 21.4878 62.0905 21.6039 62.1168 21.72C62.1432 21.8361 62.1863 21.9395 62.2453 22.03C62.3043 22.1206 62.3801 22.1941 62.4738 22.2505C62.5665 22.307 62.6802 22.3347 62.8119 22.3347C62.9909 22.3347 63.1383 22.2782 63.2552 22.1664C63.3721 22.0545 63.4437 21.8958 63.4732 21.6934H64.0861C64.0292 22.0598 63.8912 22.34 63.6754 22.5339C63.4584 22.7277 63.171 22.8247 62.8129 22.8247C62.5949 22.8247 62.4022 22.7874 62.2348 22.7128C62.0684 22.6383 61.9283 22.5371 61.8125 22.4082C61.6977 22.2793 61.6114 22.1259 61.5524 21.9491C61.4934 21.7712 61.4629 21.5794 61.4629 21.3728C61.4629 21.1661 61.4924 20.9648 61.5492 20.7805C61.6072 20.5951 61.6925 20.4354 61.8072 20.299C61.922 20.1637 62.0642 20.0561 62.2348 19.9784C62.4054 19.9006 62.6044 19.8612 62.834 19.8612C62.9951 19.8612 63.1488 19.8825 63.2931 19.9241C63.4384 19.9656 63.568 20.0284 63.6806 20.1115C63.7933 20.1946 63.886 20.3001 63.9576 20.4268C64.0292 20.5536 64.0724 20.7038 64.0861 20.8785H63.4732L63.4763 20.8774Z" fill="#1D1D1B"/>
<path d="M65.8626 22.8236C65.6404 22.8236 65.4425 22.7863 65.2687 22.7117C65.095 22.6372 64.9486 22.5349 64.8285 22.4049C64.7085 22.275 64.6169 22.1184 64.5537 21.9373C64.4916 21.7562 64.46 21.557 64.46 21.3386C64.46 21.1203 64.4916 20.9275 64.5537 20.7464C64.6169 20.5653 64.7074 20.4087 64.8285 20.2787C64.9486 20.1488 65.095 20.0455 65.2687 19.972C65.4425 19.8974 65.6404 19.8601 65.8626 19.8601C66.0848 19.8601 66.2828 19.8974 66.4566 19.972C66.6303 20.0465 66.7777 20.1488 66.8978 20.2787C67.0178 20.4087 67.1095 20.5653 67.1716 20.7464C67.2348 20.9275 67.2664 21.1256 67.2664 21.3386C67.2664 21.5517 67.2348 21.7551 67.1716 21.9373C67.1095 22.1184 67.0178 22.2739 66.8978 22.4049C66.7777 22.536 66.6303 22.6382 66.4566 22.7117C66.2828 22.7863 66.0848 22.8236 65.8626 22.8236ZM65.8626 22.3346C65.9995 22.3346 66.1175 22.3059 66.2175 22.2473C66.3176 22.1887 66.4007 22.1131 66.465 22.0183C66.5292 21.9245 66.5766 21.818 66.6071 21.6998C66.6377 21.5826 66.6535 21.4611 66.6535 21.3386C66.6535 21.2161 66.6377 21.099 66.6071 20.9797C66.5777 20.8604 66.5292 20.7538 66.465 20.6612C66.4007 20.5685 66.3176 20.4939 66.2175 20.4353C66.1175 20.3767 65.9995 20.348 65.8626 20.348C65.7257 20.348 65.6078 20.3767 65.5078 20.4353C65.4077 20.4929 65.3245 20.5685 65.2603 20.6612C65.196 20.7538 65.1487 20.8593 65.1181 20.9797C65.0876 21.1 65.0728 21.2193 65.0728 21.3386C65.0728 21.4579 65.0876 21.5826 65.1181 21.6998C65.1487 21.818 65.196 21.9235 65.2603 22.0183C65.3245 22.1131 65.4077 22.1887 65.5078 22.2473C65.6078 22.3048 65.7257 22.3346 65.8626 22.3346Z" fill="#1D1D1B"/>
<path d="M70.2169 22.7479H69.6145V22.357H69.604C69.5282 22.4987 69.4165 22.6116 69.2681 22.6968C69.1196 22.782 68.9679 22.8246 68.8131 22.8246C68.4477 22.8246 68.1834 22.733 68.0202 22.5498C67.857 22.3666 67.7759 22.0907 67.7759 21.7211V19.9379H68.3888V21.6614C68.3888 21.9075 68.4351 22.0822 68.5278 22.1834C68.6215 22.2846 68.7521 22.3357 68.9206 22.3357C69.049 22.3357 69.1575 22.3155 69.2428 22.276C69.3291 22.2366 69.3986 22.1823 69.4524 22.1163C69.5061 22.0491 69.544 21.9682 69.5682 21.8745C69.5914 21.7796 69.6029 21.6784 69.6029 21.5698V19.9379H70.2158V22.749L70.2169 22.7479Z" fill="#1D1D1B"/>
<path d="M70.8613 19.9368H71.4416V20.3501L71.4521 20.3608C71.5448 20.2052 71.6669 20.0827 71.8175 19.9933C71.9681 19.9048 72.1345 19.8601 72.3177 19.8601C72.622 19.8601 72.8621 19.94 73.038 20.0998C73.2139 20.2596 73.3013 20.4982 73.3013 20.8177V22.7479H72.6884V20.9807C72.681 20.7602 72.6347 20.5994 72.5483 20.4992C72.462 20.3991 72.3282 20.3501 72.145 20.3501C72.0408 20.3501 71.9481 20.3693 71.866 20.4076C71.7838 20.446 71.7133 20.4982 71.6564 20.5653C71.5995 20.6324 71.5542 20.7112 71.5227 20.8018C71.49 20.8923 71.4742 20.9882 71.4742 21.0894V22.7479H70.8613V19.9368Z" fill="#1D1D1B"/>
<path d="M75.8235 20.8774C75.7982 20.7027 75.7287 20.5717 75.6161 20.4833C75.5034 20.3938 75.3602 20.3501 75.1885 20.3501C75.1095 20.3501 75.0253 20.364 74.9358 20.3906C74.8463 20.4183 74.7641 20.4684 74.6883 20.543C74.6125 20.6175 74.5504 20.7208 74.4998 20.8529C74.4493 20.985 74.424 21.1587 74.424 21.3717C74.424 21.4878 74.4377 21.6039 74.464 21.72C74.4903 21.8361 74.5335 21.9395 74.5925 22.03C74.6515 22.1206 74.7273 22.1941 74.821 22.2505C74.9137 22.307 75.0274 22.3347 75.159 22.3347C75.338 22.3347 75.4855 22.2782 75.6024 22.1664C75.7193 22.0545 75.7909 21.8958 75.8204 21.6934H76.4332C76.3764 22.0598 76.2384 22.34 76.0225 22.5339C75.8056 22.7277 75.5181 22.8247 75.1601 22.8247C74.9421 22.8247 74.7494 22.7874 74.582 22.7128C74.4156 22.6383 74.2755 22.5371 74.1597 22.4082C74.0449 22.2793 73.9585 22.1259 73.8996 21.9491C73.8406 21.7712 73.8101 21.5794 73.8101 21.3728C73.8101 21.1661 73.8395 20.9648 73.8964 20.7805C73.9543 20.5951 74.0396 20.4354 74.1544 20.299C74.2692 20.1637 74.4114 20.0561 74.582 19.9784C74.7525 19.9006 74.9516 19.8612 75.1811 19.8612C75.3423 19.8612 75.496 19.8825 75.6403 19.9241C75.7856 19.9656 75.9151 20.0284 76.0278 20.1115C76.1405 20.1946 76.2331 20.3001 76.3048 20.4268C76.3764 20.5536 76.4195 20.7038 76.4332 20.8785H75.8204L75.8235 20.8774Z" fill="#1D1D1B"/>
<path d="M76.9512 18.8652H77.5641V19.4522H76.9512V18.8652ZM76.9512 19.9369H77.5641V22.748H76.9512V19.9369Z" fill="#1D1D1B"/>
<path d="M78.2466 18.8652H78.8595V22.748H78.2466V18.8652Z" fill="#1D1D1B"/>
<path d="M8.75195 26.1513H9.20898V25.918C9.20898 25.7402 9.23004 25.5963 9.27322 25.4856C9.31639 25.3748 9.37326 25.2896 9.44592 25.2299C9.51753 25.1703 9.59861 25.1298 9.69023 25.1095C9.78184 25.0893 9.87767 25.0797 9.97771 25.0797C10.1746 25.0797 10.3179 25.0925 10.4084 25.1181V25.6017C10.3684 25.591 10.3273 25.5825 10.282 25.5772C10.2378 25.5718 10.1841 25.5687 10.1241 25.5687C10.042 25.5687 9.97034 25.5889 9.91137 25.6283C9.8524 25.6688 9.82291 25.7465 9.82291 25.8627V26.1503H10.3442V26.6126H9.82291V28.9614H9.21003V26.6126H8.75301V26.1503L8.75195 26.1513Z" fill="#1D1D1B"/>
<path d="M11.9922 29.038C11.77 29.038 11.572 29.0008 11.3983 28.9262C11.2245 28.8516 11.0771 28.7494 10.9581 28.6194C10.8391 28.4895 10.7464 28.3329 10.6843 28.1518C10.6222 27.9707 10.5906 27.7715 10.5906 27.5531C10.5906 27.3347 10.6222 27.1419 10.6843 26.9609C10.7464 26.7798 10.838 26.6232 10.9581 26.4932C11.0781 26.3633 11.2256 26.2599 11.3983 26.1864C11.572 26.1119 11.77 26.0746 11.9922 26.0746C12.2144 26.0746 12.4124 26.1119 12.5861 26.1864C12.7599 26.261 12.9073 26.3633 13.0263 26.4932C13.1453 26.6232 13.238 26.7798 13.3001 26.9609C13.3622 27.1419 13.3938 27.3401 13.3938 27.5531C13.3938 27.7662 13.3622 27.9696 13.3001 28.1518C13.238 28.3339 13.1463 28.4884 13.0263 28.6194C12.9063 28.7504 12.7588 28.8527 12.5861 28.9262C12.4124 29.0008 12.2144 29.038 11.9922 29.038ZM11.9922 28.5491C12.128 28.5491 12.246 28.5203 12.3471 28.4618C12.4471 28.4032 12.5303 28.3275 12.5945 28.2327C12.6588 28.139 12.7062 28.0325 12.7367 27.9142C12.7672 27.7971 12.782 27.6756 12.782 27.5531C12.782 27.4306 12.7672 27.3134 12.7367 27.1941C12.7062 27.0748 12.6588 26.9683 12.5945 26.8756C12.5303 26.783 12.4471 26.7084 12.3471 26.6498C12.247 26.5923 12.128 26.5625 11.9922 26.5625C11.8564 26.5625 11.7374 26.5912 11.6373 26.6498C11.5373 26.7073 11.4541 26.783 11.3898 26.8756C11.3256 26.9683 11.2782 27.0738 11.2477 27.1941C11.2171 27.3145 11.2024 27.4338 11.2024 27.5531C11.2024 27.6724 11.2171 27.7971 11.2477 27.9142C11.2782 28.0325 11.3256 28.1379 11.3898 28.2327C11.4541 28.3275 11.5373 28.4032 11.6373 28.4618C11.7374 28.5193 11.8564 28.5491 11.9922 28.5491Z" fill="#1D1D1B"/>
<path d="M13.9058 26.1513H14.4807V26.6957H14.4913C14.5092 26.62 14.5439 26.5455 14.5966 26.473C14.6482 26.4006 14.7114 26.3346 14.7851 26.2749C14.8588 26.2153 14.9399 26.1673 15.0294 26.1311C15.1189 26.0949 15.2105 26.0768 15.3032 26.0768C15.3748 26.0768 15.4243 26.0789 15.4517 26.0821C15.478 26.0853 15.5064 26.0896 15.5348 26.0928V26.6904C15.4917 26.6829 15.4474 26.6765 15.4032 26.6712C15.359 26.6659 15.3148 26.6627 15.2716 26.6627C15.1673 26.6627 15.0704 26.6829 14.9788 26.7255C14.8872 26.767 14.8082 26.8288 14.7398 26.9109C14.6713 26.9929 14.6176 27.093 14.5787 27.2123C14.5397 27.3316 14.5197 27.4701 14.5197 27.6256V28.9635H13.9068V26.1524L13.9058 26.1513Z" fill="#1D1D1B"/>
<path d="M17.7545 28.0592C17.7724 28.2403 17.8408 28.367 17.9588 28.4395C18.0767 28.5119 18.2189 28.5481 18.3832 28.5481C18.44 28.5481 18.5053 28.5439 18.579 28.5343C18.6528 28.5247 18.7212 28.5077 18.7865 28.4832C18.8518 28.4587 18.9044 28.4203 18.9455 28.3713C18.9866 28.3223 19.0055 28.2584 19.0024 28.1785C18.9982 28.0986 18.9697 28.0336 18.916 27.9825C18.8623 27.9324 18.7928 27.8909 18.7096 27.86C18.6254 27.8291 18.5295 27.8035 18.4221 27.7812C18.3147 27.7588 18.2052 27.7364 18.0946 27.7109C17.9799 27.6853 17.8703 27.6544 17.764 27.6182C17.6587 27.582 17.5628 27.533 17.4786 27.4712C17.3944 27.4094 17.327 27.3306 17.2775 27.2347C17.2269 27.1388 17.2027 27.0195 17.2027 26.8789C17.2027 26.7266 17.2396 26.5988 17.3133 26.4954C17.387 26.3921 17.4796 26.309 17.5923 26.2451C17.705 26.1812 17.8303 26.1375 17.9683 26.112C18.1062 26.0864 18.2379 26.0736 18.3632 26.0736C18.5064 26.0736 18.6433 26.0896 18.7739 26.1194C18.9044 26.1503 19.0224 26.2004 19.1287 26.2696C19.234 26.3388 19.3225 26.4283 19.392 26.5391C19.4615 26.6499 19.5057 26.783 19.5236 26.9386H18.8844C18.856 26.7894 18.7886 26.6904 18.6833 26.6392C18.578 26.5881 18.4569 26.5636 18.321 26.5636C18.2779 26.5636 18.2273 26.5668 18.1673 26.5743C18.1083 26.5817 18.0525 26.5945 18.0009 26.6147C17.9493 26.635 17.9051 26.6637 17.8693 26.7021C17.8335 26.7404 17.8156 26.7905 17.8156 26.8512C17.8156 26.9279 17.8419 26.9886 17.8935 27.0366C17.9451 27.0834 18.0135 27.1229 18.0978 27.1537C18.182 27.1846 18.2779 27.2113 18.3853 27.2326C18.4927 27.2539 18.6033 27.2773 18.718 27.3029C18.8286 27.3284 18.9381 27.3593 19.0455 27.3956C19.153 27.4318 19.2488 27.4808 19.333 27.5426C19.4173 27.6043 19.4857 27.6821 19.5373 27.7769C19.5889 27.8717 19.6153 27.9868 19.6153 28.1252C19.6153 28.2925 19.5773 28.4331 19.5026 28.5492C19.4278 28.6653 19.3299 28.759 19.2098 28.8315C19.0898 28.9039 18.956 28.9561 18.8097 28.9891C18.6622 29.0222 18.518 29.0381 18.3747 29.0381C18.1989 29.0381 18.0367 29.0179 17.8882 28.9785C17.7398 28.938 17.6102 28.8784 17.5018 28.7963C17.3922 28.7154 17.3069 28.6131 17.2438 28.4917C17.1806 28.3702 17.1479 28.2264 17.1448 28.0592H17.7577H17.7545Z" fill="#1D1D1B"/>
<path d="M22.5229 28.9624H21.9206V28.5715H21.9101C21.8353 28.7132 21.7226 28.8261 21.5741 28.9113C21.4257 28.9965 21.274 29.0391 21.1203 29.0391C20.7549 29.0391 20.4905 28.9475 20.3273 28.7643C20.1641 28.5811 20.083 28.3052 20.083 27.9355V26.1523H20.6959V27.8759C20.6959 28.122 20.7422 28.2966 20.8359 28.3978C20.9286 28.499 21.0602 28.5502 21.2287 28.5502C21.3572 28.5502 21.4657 28.5299 21.551 28.4905C21.6373 28.4511 21.7068 28.3968 21.7605 28.3307C21.8142 28.2636 21.8532 28.1827 21.8764 28.0889C21.8995 27.9941 21.9111 27.8929 21.9111 27.7843V26.1523H22.524V28.9635L22.5229 28.9624Z" fill="#1D1D1B"/>
<path d="M23.6295 28.0592C23.6474 28.2403 23.7158 28.367 23.8338 28.4395C23.9517 28.5119 24.0939 28.5481 24.2582 28.5481C24.315 28.5481 24.3803 28.5439 24.454 28.5343C24.5278 28.5247 24.5962 28.5077 24.6615 28.4832C24.7268 28.4587 24.7794 28.4203 24.8205 28.3713C24.8616 28.3223 24.8805 28.2584 24.8774 28.1785C24.8732 28.0986 24.8447 28.0336 24.791 27.9825C24.7373 27.9324 24.6678 27.8909 24.5846 27.86C24.5004 27.8291 24.4045 27.8035 24.2971 27.7812C24.1897 27.7588 24.0802 27.7364 23.9696 27.7109C23.8548 27.6853 23.7453 27.6544 23.639 27.6182C23.5337 27.582 23.4378 27.533 23.3536 27.4712C23.2694 27.4094 23.202 27.3306 23.1525 27.2347C23.1019 27.1388 23.0777 27.0195 23.0777 26.8789C23.0777 26.7266 23.1145 26.5988 23.1883 26.4954C23.262 26.3921 23.3546 26.309 23.4673 26.2451C23.58 26.1812 23.7053 26.1375 23.8433 26.112C23.9812 26.0864 24.1128 26.0736 24.2382 26.0736C24.3814 26.0736 24.5183 26.0896 24.6489 26.1194C24.7794 26.1503 24.8974 26.2004 25.0037 26.2696C25.109 26.3388 25.1975 26.4283 25.267 26.5391C25.3365 26.6499 25.3807 26.783 25.3986 26.9386H24.7594C24.731 26.7894 24.6636 26.6904 24.5583 26.6392C24.453 26.5881 24.3319 26.5636 24.196 26.5636C24.1529 26.5636 24.1023 26.5668 24.0423 26.5743C23.9833 26.5817 23.9275 26.5945 23.8759 26.6147C23.8243 26.635 23.7801 26.6637 23.7443 26.7021C23.7085 26.7404 23.6906 26.7905 23.6906 26.8512C23.6906 26.9279 23.7169 26.9886 23.7685 27.0366C23.8201 27.0834 23.8885 27.1229 23.9728 27.1537C24.057 27.1846 24.1529 27.2113 24.2603 27.2326C24.3677 27.2539 24.4783 27.2773 24.593 27.3029C24.7036 27.3284 24.8131 27.3593 24.9205 27.3956C25.028 27.4318 25.1238 27.4808 25.208 27.5426C25.2923 27.6043 25.3607 27.6821 25.4123 27.7769C25.4639 27.8717 25.4903 27.9868 25.4903 28.1252C25.4903 28.2925 25.4523 28.4331 25.3776 28.5492C25.3028 28.6653 25.2049 28.759 25.0848 28.8315C24.9648 28.9039 24.831 28.9561 24.6847 28.9891C24.5372 29.0222 24.393 29.0381 24.2497 29.0381C24.0739 29.0381 23.9117 29.0179 23.7632 28.9785C23.6148 28.938 23.4852 28.8784 23.3768 28.7963C23.2672 28.7154 23.1819 28.6131 23.1188 28.4917C23.0556 28.3702 23.0229 28.2264 23.0198 28.0592H23.6327H23.6295Z" fill="#1D1D1B"/>
<path d="M25.6777 26.1513H26.14V25.3087H26.7529V26.1513H27.3068V26.6136H26.7529V28.1145C26.7529 28.1795 26.7561 28.236 26.7613 28.2828C26.7666 28.3297 26.7792 28.3702 26.7992 28.4021C26.8193 28.4352 26.8487 28.4597 26.8877 28.4756C26.9277 28.4916 26.9814 28.5001 27.0488 28.5001C27.092 28.5001 27.1352 28.5001 27.1773 28.4969C27.2205 28.4948 27.2636 28.4884 27.3058 28.4778V28.9561C27.2373 28.9635 27.171 28.971 27.1067 28.9784C27.0425 28.9859 26.9762 28.9891 26.9077 28.9891C26.7466 28.9891 26.6171 28.9731 26.5181 28.9433C26.4191 28.9124 26.3422 28.8676 26.2875 28.8069C26.2316 28.7473 26.1937 28.6716 26.1748 28.5811C26.1558 28.4906 26.1432 28.3872 26.14 28.2711V26.6126H25.6777V26.1502V26.1513Z" fill="#1D1D1B"/>
<path d="M30.0742 28.3372C30.0742 28.4128 30.0837 28.4672 30.1037 28.5002C30.1237 28.5332 30.1616 28.5492 30.2195 28.5492H30.2838C30.309 28.5492 30.3375 28.546 30.3701 28.5385V28.9678C30.3491 28.9753 30.3206 28.9827 30.2869 28.9923C30.2522 29.0019 30.2174 29.0094 30.1827 29.0168C30.1469 29.0243 30.1111 29.0296 30.0753 29.0328C30.0395 29.036 30.0089 29.0381 29.9836 29.0381C29.8583 29.0381 29.7541 29.0126 29.6719 28.9625C29.5898 28.9114 29.5361 28.8229 29.5108 28.6962C29.3887 28.8155 29.2391 28.9028 29.0622 28.9572C28.8843 29.0115 28.7137 29.0392 28.5483 29.0392C28.423 29.0392 28.303 29.0221 28.1882 28.988C28.0734 28.954 27.9723 28.9028 27.8849 28.8357C27.7964 28.7686 27.7269 28.6834 27.6753 28.5801C27.6237 28.4767 27.5974 28.3564 27.5974 28.219C27.5974 28.0453 27.629 27.9036 27.6911 27.795C27.7533 27.6863 27.8365 27.6011 27.9386 27.5393C28.0407 27.4776 28.1555 27.4339 28.283 27.4062C28.4104 27.3796 28.5378 27.3583 28.6673 27.3433C28.7789 27.322 28.8842 27.3061 28.9843 27.2975C29.0843 27.289 29.1728 27.273 29.2507 27.2517C29.3276 27.2304 29.3887 27.1963 29.4339 27.1516C29.4792 27.1069 29.5013 27.0387 29.5013 26.9481C29.5013 26.8682 29.4824 26.8033 29.4445 26.7521C29.4066 26.701 29.3602 26.6627 29.3044 26.635C29.2486 26.6073 29.1865 26.5892 29.1191 26.5806C29.0506 26.5721 28.9864 26.5668 28.9253 26.5668C28.7526 26.5668 28.6115 26.603 28.5009 26.6754C28.3893 26.7479 28.3272 26.8608 28.3124 27.0121H27.6996C27.7101 26.831 27.7533 26.6808 27.828 26.5604C27.9028 26.44 27.9986 26.3452 28.1155 26.2728C28.2324 26.2003 28.364 26.1492 28.5104 26.1205C28.6568 26.0917 28.8074 26.0768 28.9622 26.0768C29.098 26.0768 29.2328 26.0917 29.3655 26.1205C29.4982 26.1492 29.6172 26.1961 29.7225 26.2621C29.8278 26.3271 29.9131 26.4113 29.9773 26.5146C30.0416 26.6179 30.0742 26.7436 30.0742 26.8927V28.3393V28.3372ZM29.4624 27.5532C29.3687 27.615 29.2549 27.6523 29.118 27.665C28.9822 27.6778 28.8453 27.697 28.7094 27.7226C28.6452 27.7332 28.582 27.7492 28.5209 27.7684C28.4599 27.7886 28.4062 27.8152 28.3598 27.8493C28.3135 27.8845 28.2766 27.9292 28.2493 27.9857C28.2219 28.0421 28.2092 28.1103 28.2092 28.1891C28.2092 28.2584 28.2292 28.3159 28.2682 28.3638C28.3082 28.4107 28.3556 28.448 28.4104 28.4746C28.4662 28.5023 28.5273 28.5204 28.5936 28.5321C28.6599 28.5438 28.72 28.5481 28.7737 28.5481C28.8421 28.5481 28.9148 28.5385 28.9938 28.5204C29.0727 28.5023 29.1475 28.4714 29.217 28.4277C29.2865 28.3841 29.3455 28.3287 29.3918 28.2616C29.4382 28.1945 29.4613 28.1114 29.4613 28.0144V27.5521L29.4624 27.5532Z" fill="#1D1D1B"/>
<path d="M30.7524 25.0797H31.3653V25.6667H30.7524V25.0797ZM30.7524 26.1513H31.3653V28.9625H30.7524V26.1513Z" fill="#1D1D1B"/>
<path d="M32.032 26.1513H32.6122V26.5646L32.6228 26.5752C32.7154 26.4197 32.8376 26.2972 32.9882 26.2077C33.1387 26.1193 33.3051 26.0746 33.4884 26.0746C33.7927 26.0746 34.0328 26.1545 34.2087 26.3143C34.3845 26.474 34.4719 26.7127 34.4719 27.0322V28.9624H33.859V27.1952C33.8517 26.9747 33.8053 26.8139 33.719 26.7137C33.6326 26.6136 33.4989 26.5646 33.3157 26.5646C33.2114 26.5646 33.1187 26.5838 33.0366 26.6221C32.9545 26.6605 32.8839 26.7127 32.827 26.7798C32.7702 26.8469 32.7249 26.9257 32.6933 27.0162C32.6607 27.1068 32.6449 27.2027 32.6449 27.3039V28.9624H32.032V26.1513Z" fill="#1D1D1B"/>
<path d="M37.4446 28.3372C37.4446 28.4128 37.4541 28.4672 37.4741 28.5002C37.4941 28.5332 37.532 28.5492 37.59 28.5492H37.6542C37.6795 28.5492 37.7079 28.546 37.7406 28.5385V28.9678C37.7195 28.9753 37.6911 28.9827 37.6574 28.9923C37.6237 29.0019 37.5879 29.0094 37.5531 29.0168C37.5173 29.0243 37.4815 29.0296 37.4457 29.0328C37.4099 29.036 37.3794 29.0381 37.3541 29.0381C37.2288 29.0381 37.1245 29.0126 37.0424 28.9625C36.9602 28.9124 36.9065 28.8229 36.8813 28.6962C36.7591 28.8155 36.6096 28.9028 36.4327 28.9572C36.2547 29.0115 36.0841 29.0392 35.9188 29.0392C35.7934 29.0392 35.6734 29.0221 35.5586 28.988C35.4438 28.954 35.3427 28.9028 35.2543 28.8357C35.1669 28.7686 35.0963 28.6834 35.0447 28.5801C34.9931 28.4767 34.9668 28.3564 34.9668 28.219C34.9668 28.0453 34.9984 27.9036 35.0605 27.795C35.1237 27.6863 35.2058 27.6011 35.308 27.5393C35.4101 27.4776 35.5249 27.4339 35.6523 27.4062C35.7798 27.3796 35.9082 27.3583 36.0367 27.3433C36.1473 27.322 36.2536 27.3061 36.3537 27.2975C36.4537 27.289 36.5422 27.273 36.6201 27.2517C36.698 27.2304 36.7581 27.1963 36.8033 27.1516C36.8476 27.1069 36.8707 27.0387 36.8707 26.9481C36.8707 26.8682 36.8518 26.8033 36.8139 26.7521C36.776 26.701 36.7296 26.6627 36.6749 26.635C36.619 26.6073 36.5569 26.5892 36.4895 26.5806C36.4211 26.5721 36.3568 26.5668 36.2958 26.5668C36.1241 26.5668 35.9819 26.603 35.8703 26.6754C35.7587 26.7479 35.6966 26.8608 35.6818 27.0121H35.0689C35.0795 26.831 35.1226 26.6808 35.1974 26.5604C35.2732 26.4411 35.3691 26.3452 35.4849 26.2728C35.6007 26.2003 35.7324 26.1492 35.8798 26.1205C36.0272 26.0917 36.1768 26.0768 36.3316 26.0768C36.4674 26.0768 36.6022 26.0917 36.7349 26.1205C36.8676 26.1492 36.9866 26.1961 37.0919 26.2621C37.1982 26.3271 37.2825 26.4113 37.3478 26.5146C37.412 26.6179 37.4446 26.7436 37.4446 26.8927V28.3393V28.3372ZM36.8318 27.5532C36.7391 27.615 36.6243 27.6523 36.4874 27.665C36.3505 27.6778 36.2147 27.697 36.0788 27.7226C36.0146 27.7332 35.9514 27.7492 35.8903 27.7684C35.8293 27.7875 35.7755 27.8152 35.7292 27.8493C35.6829 27.8845 35.646 27.9292 35.6186 27.9857C35.5923 28.0421 35.5786 28.1103 35.5786 28.1891C35.5786 28.2584 35.5986 28.3159 35.6376 28.3638C35.6776 28.4107 35.725 28.448 35.7798 28.4746C35.8356 28.5023 35.8967 28.5204 35.963 28.5321C36.0293 28.5428 36.0894 28.5481 36.1431 28.5481C36.2115 28.5481 36.2842 28.5385 36.3632 28.5204C36.4421 28.5023 36.5158 28.4714 36.5864 28.4277C36.657 28.3841 36.7149 28.3287 36.7612 28.2616C36.8075 28.1945 36.8307 28.1114 36.8307 28.0144V27.5521L36.8318 27.5532Z" fill="#1D1D1B"/>
<path d="M38.1219 25.0797H38.7348V26.5156H38.7453C38.7885 26.4464 38.8401 26.3857 38.9012 26.3303C38.9622 26.2749 39.0296 26.2302 39.1034 26.1918C39.176 26.1535 39.2539 26.1247 39.334 26.1045C39.414 26.0842 39.494 26.0746 39.573 26.0746C39.7921 26.0746 39.9827 26.114 40.1459 26.1918C40.3091 26.2696 40.4439 26.3772 40.5513 26.5124C40.6587 26.6488 40.7398 26.8075 40.7935 26.9886C40.8472 27.1697 40.8735 27.3636 40.8735 27.5702C40.8735 27.7588 40.8493 27.942 40.8009 28.1199C40.7524 28.2978 40.6787 28.4544 40.5808 28.5907C40.4829 28.727 40.3575 28.8357 40.207 28.9167C40.0564 28.9987 39.8795 29.0392 39.6752 29.0392C39.5814 29.0392 39.4877 29.0328 39.3929 29.02C39.2982 29.0072 39.2076 28.9827 39.1213 28.9465C39.0349 28.9103 38.957 28.8634 38.8875 28.8048C38.818 28.7473 38.759 28.6706 38.7127 28.5769H38.7021V28.9625H38.1208V25.0797H38.1219ZM40.2617 27.5596C40.2617 27.4328 40.2449 27.3092 40.2133 27.1899C40.1806 27.0706 40.1332 26.9641 40.068 26.8714C40.0037 26.7787 39.9226 26.7042 39.8258 26.6488C39.7289 26.5923 39.6183 26.5646 39.4919 26.5646C39.2339 26.5646 39.0391 26.6552 38.9085 26.8363C38.778 27.0174 38.7116 27.2581 38.7116 27.5596C38.7116 27.7012 38.7285 27.8323 38.7622 27.9537C38.7959 28.0751 38.8475 28.1795 38.9159 28.2658C38.9844 28.3532 39.0654 28.4213 39.1602 28.4725C39.255 28.5236 39.3656 28.5481 39.4909 28.5481C39.6309 28.5481 39.7489 28.5193 39.8458 28.4607C39.9426 28.4022 40.0227 28.3276 40.0848 28.2349C40.148 28.1422 40.1922 28.0378 40.2196 27.9196C40.247 27.8014 40.2596 27.681 40.2596 27.5585L40.2617 27.5596Z" fill="#1D1D1B"/>
<path d="M41.4053 25.0797H42.0182V28.9625H41.4053V25.0797Z" fill="#1D1D1B"/>
<path d="M43.1637 27.7172C43.1637 27.8259 43.1785 27.9313 43.209 28.0325C43.2396 28.1337 43.2859 28.2232 43.347 28.2988C43.407 28.3745 43.4849 28.4352 43.5776 28.481C43.6703 28.5257 43.7819 28.5492 43.9114 28.5492C44.0904 28.5492 44.2347 28.5098 44.3442 28.432C44.4537 28.3542 44.5348 28.2371 44.5885 28.0815H45.1698C45.1372 28.2339 45.0814 28.3702 45.0024 28.4895C44.9234 28.6088 44.8286 28.71 44.717 28.791C44.6064 28.8719 44.4811 28.9337 44.3432 28.9763C44.2052 29.0179 44.0609 29.0392 43.9104 29.0392C43.6913 29.0392 43.4976 29.003 43.3291 28.9305C43.1606 28.8581 43.0184 28.7569 42.9026 28.6259C42.7857 28.4959 42.6983 28.3393 42.6393 28.1582C42.5803 27.9771 42.5498 27.778 42.5498 27.5606C42.5498 27.3614 42.5814 27.1718 42.6435 26.9929C42.7067 26.8129 42.7962 26.6563 42.9121 26.5199C43.0279 26.3836 43.169 26.276 43.3343 26.1961C43.4997 26.1162 43.6861 26.0768 43.8935 26.0768C44.1115 26.0768 44.3084 26.1226 44.4822 26.2153C44.6559 26.3079 44.8002 26.4304 44.915 26.5817C45.0298 26.734 45.113 26.9087 45.1646 27.1069C45.2162 27.305 45.2298 27.5084 45.2046 27.7183H43.1616L43.1637 27.7172ZM44.5927 27.3092C44.5854 27.2112 44.5643 27.1175 44.5306 27.027C44.4969 26.9364 44.4506 26.8576 44.3916 26.7905C44.3326 26.7234 44.261 26.669 44.1768 26.6275C44.0925 26.586 43.9988 26.5647 43.8946 26.5647C43.7903 26.5647 43.6892 26.5838 43.6018 26.6222C43.5144 26.6605 43.4386 26.7127 43.3765 26.7798C43.3133 26.8469 43.2638 26.9258 43.2259 27.0163C43.188 27.1069 43.1669 27.2049 43.1637 27.3103H44.5938L44.5927 27.3092Z" fill="#1D1D1B"/>
<path d="M49.7856 28.9625H49.2053V28.5822H49.1948C49.1127 28.7452 48.9926 28.8624 48.8347 28.9327C48.6767 29.003 48.5103 29.0381 48.3345 29.0381C48.1165 29.0381 47.9248 28.9987 47.7616 28.9209C47.5984 28.8432 47.4636 28.7367 47.3562 28.6024C47.2488 28.4682 47.1677 28.3095 47.115 28.1263C47.0613 27.9431 47.0339 27.7471 47.0339 27.5361C47.0339 27.2826 47.0676 27.0632 47.1361 26.8778C47.2045 26.6925 47.294 26.5412 47.4078 26.4209C47.5204 26.3015 47.6489 26.2131 47.7942 26.1567C47.9396 26.1002 48.087 26.0725 48.2376 26.0725C48.3239 26.0725 48.4113 26.081 48.5008 26.097C48.5904 26.113 48.6767 26.1396 48.7588 26.1759C48.841 26.2121 48.9168 26.2579 48.9874 26.3143C49.0569 26.3708 49.1158 26.4368 49.1622 26.5125H49.1727V25.0765H49.7856V28.9593V28.9625ZM47.6468 27.5862C47.6468 27.7066 47.6616 27.8238 47.6921 27.9399C47.7226 28.056 47.769 28.1593 47.8322 28.2499C47.8943 28.3404 47.9743 28.4128 48.0712 28.4672C48.1681 28.5215 48.2829 28.5492 48.4155 28.5492C48.5482 28.5492 48.6693 28.5204 48.7673 28.4618C48.8663 28.4032 48.9463 28.3276 49.0095 28.2328C49.0716 28.1391 49.1179 28.0325 49.1485 27.9143C49.179 27.7971 49.1948 27.6757 49.1948 27.5532C49.1948 27.2421 49.1253 26.9982 48.9874 26.8246C48.8494 26.6509 48.662 26.5636 48.425 26.5636C48.2818 26.5636 48.1607 26.5934 48.0617 26.6531C47.9627 26.7127 47.8827 26.7905 47.8195 26.8864C47.7574 26.9822 47.7121 27.0909 47.6858 27.2123C47.6584 27.3338 47.6458 27.4584 47.6458 27.5851L47.6468 27.5862Z" fill="#1D1D1B"/>
<path d="M50.9301 27.7172C50.9301 27.8259 50.9448 27.9313 50.9754 28.0325C51.0059 28.1337 51.0523 28.2232 51.1133 28.2988C51.1734 28.3745 51.2513 28.4352 51.3439 28.481C51.4366 28.5257 51.5482 28.5492 51.6778 28.5492C51.8568 28.5492 52.0011 28.5098 52.1106 28.432C52.2201 28.3542 52.3012 28.2371 52.3549 28.0815H52.9362C52.9035 28.2339 52.8477 28.3702 52.7687 28.4895C52.6898 28.6088 52.595 28.71 52.4834 28.791C52.3728 28.8719 52.2475 28.9337 52.1095 28.9763C51.9716 29.0179 51.8273 29.0392 51.6767 29.0392C51.4577 29.0392 51.2639 29.003 51.0954 28.9305C50.9269 28.8581 50.7848 28.7569 50.6689 28.6259C50.552 28.4959 50.4646 28.3393 50.4057 28.1582C50.3467 27.9771 50.3162 27.778 50.3162 27.5606C50.3162 27.3614 50.3478 27.1718 50.4099 26.9929C50.4731 26.8129 50.5626 26.6563 50.6784 26.5199C50.7943 26.3836 50.9354 26.276 51.1007 26.1961C51.266 26.1162 51.4524 26.0768 51.6599 26.0768C51.8778 26.0768 52.0748 26.1226 52.2485 26.2153C52.4223 26.3079 52.5665 26.4304 52.6813 26.5817C52.7961 26.734 52.8793 26.9087 52.9309 27.1069C52.9825 27.305 52.9962 27.5084 52.9709 27.7183H50.928L50.9301 27.7172ZM52.3601 27.3092C52.3528 27.2112 52.3317 27.1175 52.298 27.027C52.2643 26.9364 52.218 26.8576 52.159 26.7905C52.1 26.7234 52.0284 26.669 51.9442 26.6275C51.8599 26.586 51.7662 26.5647 51.662 26.5647C51.5577 26.5647 51.4566 26.5838 51.3692 26.6222C51.2818 26.6605 51.206 26.7127 51.1439 26.7798C51.0807 26.8469 51.0312 26.9258 50.9933 27.0163C50.9554 27.1069 50.9343 27.2049 50.9311 27.3103H52.3612L52.3601 27.3092Z" fill="#1D1D1B"/>
<path d="M53.1667 26.1514H53.8333L54.5378 28.3106H54.5484L55.2255 26.1514H55.8594L54.8643 28.9625H54.1766L53.1667 26.1514Z" fill="#1D1D1B"/>
<path d="M56.7082 27.7172C56.7082 27.8259 56.7229 27.9313 56.7535 28.0325C56.784 28.1337 56.8303 28.2232 56.8914 28.2988C56.9514 28.3745 57.0294 28.4352 57.122 28.481C57.2147 28.5257 57.3263 28.5492 57.4558 28.5492C57.6349 28.5492 57.7791 28.5098 57.8886 28.432C57.9982 28.3542 58.0793 28.2371 58.133 28.0815H58.7142C58.6816 28.2339 58.6258 28.3702 58.5468 28.4895C58.4678 28.6088 58.3731 28.71 58.2614 28.791C58.1509 28.8719 58.0256 28.9337 57.8876 28.9763C57.7497 29.0179 57.6054 29.0392 57.4548 29.0392C57.2358 29.0392 57.042 29.003 56.8735 28.9305C56.705 28.8581 56.5629 28.7569 56.447 28.6259C56.3301 28.4959 56.2427 28.3393 56.1838 28.1582C56.1248 27.9771 56.0942 27.778 56.0942 27.5606C56.0942 27.3614 56.1258 27.1718 56.188 26.9929C56.2511 26.8129 56.3407 26.6563 56.4565 26.5199C56.5723 26.3836 56.7134 26.276 56.8788 26.1961C57.0441 26.1162 57.2305 26.0768 57.4379 26.0768C57.6559 26.0768 57.8529 26.1226 58.0266 26.2153C58.2004 26.3079 58.3446 26.4304 58.4594 26.5817C58.5742 26.734 58.6574 26.9087 58.709 27.1069C58.7606 27.305 58.7743 27.5084 58.749 27.7183H56.7061L56.7082 27.7172ZM58.1382 27.3092C58.1309 27.2112 58.1098 27.1175 58.0761 27.027C58.0424 26.9364 57.9961 26.8576 57.9371 26.7905C57.8781 26.7234 57.8065 26.669 57.7223 26.6275C57.638 26.586 57.5443 26.5647 57.4401 26.5647C57.3358 26.5647 57.2347 26.5838 57.1473 26.6222C57.0599 26.6605 56.9841 26.7127 56.9219 26.7798C56.8588 26.8469 56.8093 26.9258 56.7714 27.0163C56.7334 27.1069 56.7124 27.2049 56.7092 27.3103H58.1393L58.1382 27.3092Z" fill="#1D1D1B"/>
<path d="M59.2346 25.0797H59.8475V28.9625H59.2346V25.0797Z" fill="#1D1D1B"/>
<path d="M61.7872 29.038C61.565 29.038 61.367 29.0008 61.1933 28.9262C61.0195 28.8516 60.8731 28.7494 60.7531 28.6194C60.633 28.4895 60.5414 28.3329 60.4782 28.1518C60.4161 27.9707 60.3845 27.7715 60.3845 27.5531C60.3845 27.3347 60.4161 27.1419 60.4782 26.9609C60.5414 26.7798 60.632 26.6232 60.7531 26.4932C60.8731 26.3633 61.0195 26.2599 61.1933 26.1864C61.367 26.1119 61.565 26.0746 61.7872 26.0746C62.0094 26.0746 62.2074 26.1119 62.3811 26.1864C62.5549 26.261 62.7023 26.3633 62.8224 26.4932C62.9424 26.6232 63.034 26.7798 63.0961 26.9609C63.1593 27.1419 63.1909 27.3401 63.1909 27.5531C63.1909 27.7662 63.1593 27.9696 63.0961 28.1518C63.034 28.3329 62.9424 28.4884 62.8224 28.6194C62.7023 28.7504 62.5549 28.8527 62.3811 28.9262C62.2074 29.0008 62.0094 29.038 61.7872 29.038ZM61.7872 28.5491C61.9241 28.5491 62.042 28.5203 62.1421 28.4618C62.2421 28.4032 62.3253 28.3275 62.3895 28.2327C62.4538 28.139 62.5012 28.0325 62.5317 27.9142C62.5622 27.7971 62.578 27.6756 62.578 27.5531C62.578 27.4306 62.5622 27.3134 62.5317 27.1941C62.5022 27.0748 62.4538 26.9683 62.3895 26.8756C62.3253 26.783 62.2421 26.7084 62.1421 26.6498C62.042 26.5912 61.9241 26.5625 61.7872 26.5625C61.6503 26.5625 61.5324 26.5912 61.4323 26.6498C61.3323 26.7073 61.2491 26.783 61.1849 26.8756C61.1206 26.9683 61.0732 27.0738 61.0427 27.1941C61.0121 27.3145 60.9974 27.4338 60.9974 27.5531C60.9974 27.6724 61.0121 27.7971 61.0427 27.9142C61.0732 28.0325 61.1206 28.1379 61.1849 28.2327C61.2491 28.3275 61.3323 28.4032 61.4323 28.4618C61.5324 28.5193 61.6503 28.5491 61.7872 28.5491Z" fill="#1D1D1B"/>
<path d="M63.7175 26.1513H64.2988V26.5316H64.3093C64.3957 26.3686 64.5157 26.2514 64.6695 26.1811C64.8243 26.1108 64.9907 26.0746 65.1697 26.0746C65.3887 26.0746 65.5793 26.114 65.7426 26.1918C65.9058 26.2695 66.0406 26.3771 66.148 26.5124C66.2554 26.6487 66.3365 26.8075 66.3902 26.9886C66.4439 27.1696 66.4702 27.3635 66.4702 27.5702C66.4702 27.7587 66.446 27.9419 66.3976 28.1198C66.3491 28.2977 66.2754 28.4543 66.1775 28.5907C66.0795 28.727 65.9542 28.8357 65.8036 28.9166C65.6531 28.9986 65.4761 29.0391 65.2718 29.0391C65.1823 29.0391 65.0928 29.0306 65.0033 29.0146C64.9138 28.9986 64.8275 28.972 64.7453 28.9358C64.6632 28.8996 64.5874 28.8538 64.5168 28.7973C64.4473 28.7408 64.3883 28.6748 64.342 28.5992H64.3315V30.0021H63.7186V26.1523L63.7175 26.1513ZM65.8573 27.5595C65.8573 27.4328 65.8405 27.3092 65.8089 27.1899C65.7763 27.0706 65.7289 26.964 65.6636 26.8714C65.5993 26.7787 65.5183 26.7041 65.4214 26.6487C65.3245 26.5923 65.2139 26.5646 65.0876 26.5646C64.8296 26.5646 64.6347 26.6551 64.5042 26.8362C64.3736 27.0173 64.3072 27.2581 64.3072 27.5595C64.3072 27.7012 64.3241 27.8322 64.3578 27.9536C64.3915 28.0751 64.4431 28.1795 64.5115 28.2658C64.58 28.3531 64.6611 28.4213 64.7558 28.4724C64.8506 28.5235 64.9612 28.548 65.0865 28.548C65.2266 28.548 65.3445 28.5193 65.4414 28.4607C65.5383 28.4021 65.6183 28.3275 65.6804 28.2349C65.7436 28.1422 65.7878 28.0378 65.8152 27.9196C65.8426 27.8013 65.8552 27.6809 65.8552 27.5584L65.8573 27.5595Z" fill="#1D1D1B"/>
<path d="M66.9851 26.1513H67.5653V26.5433H67.5822C67.6285 26.4741 67.6791 26.4112 67.7328 26.3526C67.7865 26.2951 67.8465 26.2461 67.9129 26.2056C67.9792 26.1662 68.055 26.1343 68.1414 26.1108C68.2277 26.0874 68.3257 26.0757 68.4373 26.0757C68.6058 26.0757 68.7627 26.114 68.908 26.1897C69.0533 26.2653 69.1555 26.3835 69.2165 26.5433C69.3208 26.3984 69.4408 26.2845 69.5767 26.2003C69.7125 26.1172 69.8831 26.0757 70.0874 26.0757C70.3812 26.0757 70.6097 26.1481 70.773 26.293C70.9362 26.4379 71.0173 26.6807 71.0173 27.0216V28.9625H70.4044V27.3209C70.4044 27.2091 70.4012 27.1058 70.3939 27.0142C70.3865 26.9215 70.3654 26.8416 70.3317 26.7745C70.298 26.7074 70.2464 26.6552 70.179 26.619C70.1116 26.5827 70.0179 26.5646 69.9 26.5646C69.6925 26.5646 69.5419 26.6296 69.4482 26.7606C69.3545 26.8906 69.3082 27.0759 69.3082 27.3156V28.9635H68.6953V27.158C68.6953 26.962 68.6605 26.815 68.591 26.7148C68.5215 26.6147 68.3931 26.5657 68.2067 26.5657C68.1277 26.5657 68.0519 26.5817 67.9781 26.6147C67.9044 26.6477 67.8402 26.6946 67.7844 26.7564C67.7286 26.8181 67.6843 26.8938 67.6496 26.9854C67.6159 27.0759 67.599 27.1793 67.599 27.2954V28.9646H66.9862V26.1534L66.9851 26.1513Z" fill="#1D1D1B"/>
<path d="M72.1398 27.7172C72.1398 27.8259 72.1546 27.9313 72.1851 28.0325C72.2156 28.1337 72.262 28.2232 72.323 28.2988C72.3831 28.3745 72.461 28.4352 72.5537 28.481C72.6463 28.5257 72.758 28.5492 72.8875 28.5492C73.0665 28.5492 73.2108 28.5098 73.3203 28.432C73.4298 28.3542 73.5109 28.2371 73.5646 28.0815H74.1459C74.1132 28.2339 74.0574 28.3702 73.9785 28.4895C73.8995 28.6088 73.8047 28.71 73.6931 28.791C73.5825 28.8719 73.4572 28.9337 73.3192 28.9763C73.1813 29.0179 73.037 29.0392 72.8864 29.0392C72.6674 29.0392 72.4736 29.003 72.3051 28.9305C72.1367 28.8581 71.9945 28.7569 71.8787 28.6259C71.7618 28.4959 71.6744 28.3393 71.6154 28.1582C71.5564 27.9771 71.5259 27.778 71.5259 27.5606C71.5259 27.3614 71.5575 27.1718 71.6196 26.9929C71.6828 26.8129 71.7723 26.6563 71.8881 26.5199C72.004 26.3836 72.1451 26.276 72.3104 26.1961C72.4757 26.1162 72.6621 26.0768 72.8696 26.0768C73.0876 26.0768 73.2845 26.1226 73.4582 26.2153C73.632 26.3079 73.7763 26.4304 73.8911 26.5817C74.0058 26.734 74.089 26.9087 74.1406 27.1069C74.1922 27.305 74.2059 27.5084 74.1806 27.7183H72.1377L72.1398 27.7172ZM73.5699 27.3092C73.5625 27.2112 73.5414 27.1175 73.5077 27.027C73.474 26.9364 73.4277 26.8576 73.3687 26.7905C73.3098 26.7234 73.2382 26.669 73.1539 26.6275C73.0697 26.586 72.9759 26.5647 72.8717 26.5647C72.7674 26.5647 72.6663 26.5838 72.5789 26.6222C72.4915 26.6605 72.4157 26.7127 72.3536 26.7798C72.2904 26.8469 72.2409 26.9258 72.203 27.0163C72.1651 27.1069 72.144 27.2049 72.1409 27.3103H73.5709L73.5699 27.3092Z" fill="#1D1D1B"/>
<path d="M74.6504 26.1513H75.2306V26.5646L75.2412 26.5752C75.3338 26.4197 75.456 26.2972 75.6066 26.2077C75.7572 26.1193 75.9235 26.0746 76.1068 26.0746C76.4111 26.0746 76.6512 26.1545 76.8271 26.3143C77.0029 26.474 77.0903 26.7127 77.0903 27.0322V28.9624H76.4774V27.1952C76.4701 26.9747 76.4237 26.8139 76.3374 26.7137C76.251 26.6136 76.1173 26.5646 75.9341 26.5646C75.8298 26.5646 75.7371 26.5838 75.655 26.6221C75.5729 26.6605 75.5023 26.7127 75.4454 26.7798C75.3886 26.8469 75.3433 26.9257 75.3117 27.0162C75.2791 27.1068 75.2633 27.2027 75.2633 27.3039V28.9624H74.6504V26.1513Z" fill="#1D1D1B"/>
<path d="M77.4566 26.1513H77.9189V25.3087H78.5318V26.1513H79.0857V26.6136H78.5318V28.1145C78.5318 28.1795 78.535 28.236 78.5402 28.2828C78.5455 28.3297 78.5581 28.3702 78.5781 28.4021C78.5981 28.4352 78.6276 28.4597 78.6666 28.4756C78.7066 28.4916 78.7603 28.5001 78.8277 28.5001C78.8709 28.5001 78.9141 28.5001 78.9562 28.4969C78.9994 28.4948 79.0425 28.4884 79.0846 28.4778V28.9561C79.0162 28.9635 78.9499 28.971 78.8856 28.9784C78.8214 28.9859 78.755 28.9891 78.6866 28.9891C78.5255 28.9891 78.3959 28.9731 78.297 28.9433C78.198 28.9124 78.1211 28.8676 78.0653 28.8069C78.0095 28.7473 77.9726 28.6716 77.9526 28.5811C77.9326 28.4906 77.921 28.3872 77.9179 28.2711V26.6126H77.4556V26.1502L77.4566 26.1513Z" fill="#1D1D1B"/>
<path d="M2.00397 0.30688V3.06901H2.05557C2.57262 2.00485 3.20656 1.21978 3.95845 0.712732C4.70823 0.205683 5.66125 -0.029732 6.81224 0.00329007V2.28501C5.96242 2.28501 5.23476 2.40325 4.63346 2.63973C4.03216 2.87621 3.54776 3.22134 3.18024 3.67832C2.81483 4.13531 2.5463 4.68816 2.37886 5.33901C2.21353 5.98987 2.12929 6.73659 2.12929 7.58132V13.4092H0V0.30688H2.00397Z" fill="#1D1D1B"/>
<path d="M17.1321 12.5707C16.1654 13.3143 14.9449 13.6871 13.477 13.6871C12.4408 13.6871 11.5435 13.5177 10.7843 13.179C10.0229 12.8424 9.38372 12.3683 8.86667 11.7601C8.34962 11.1518 7.95999 10.4264 7.70199 9.5817C7.44294 8.73697 7.29656 7.81662 7.26392 6.81956C7.26392 5.82251 7.41556 4.91068 7.71568 4.08406C8.0158 3.25531 8.43808 2.53842 8.9804 1.93017C9.52062 1.32193 10.164 0.848964 10.9075 0.510222C11.651 0.172545 12.466 0.00317383 13.3516 0.00317383C14.5026 0.00317383 15.4599 0.24498 16.2191 0.725398C16.9784 1.20688 17.5892 1.82045 18.0483 2.56185C18.5074 3.30538 18.8244 4.11602 18.9992 4.99483C19.1761 5.87258 19.2467 6.70878 19.214 7.50344H9.52062C9.50483 8.0776 9.56906 8.62193 9.7207 9.1375C9.87024 9.652 10.1124 10.1079 10.4473 10.5053C10.7801 10.9026 11.2066 11.219 11.7236 11.4554C12.2407 11.6919 12.8514 11.8102 13.5528 11.8102C14.4542 11.8102 15.1924 11.5992 15.7684 11.1774C16.3465 10.7545 16.7257 10.1122 16.9099 9.25041H19.0139C18.7296 10.7204 18.1031 11.8272 17.1342 12.5697L17.1321 12.5707ZM16.6203 4.15863C16.4266 3.70271 16.1686 3.3107 15.8442 2.98048C15.5178 2.65133 15.1334 2.38928 14.6911 2.19435C14.2489 2.00154 13.7592 1.90354 13.2253 1.90354C12.6914 1.90354 12.1764 2.00154 11.7342 2.19435C11.2919 2.38928 10.9117 2.65559 10.5947 2.99327C10.2778 3.33094 10.0261 3.72401 9.84496 4.17141C9.66068 4.6188 9.55116 5.09603 9.51851 5.60307H16.9573C16.9247 5.09603 16.8109 4.61454 16.6193 4.15863H16.6203Z" fill="#1D1D1B"/>
<path d="M23.0452 10.4808C23.2453 10.811 23.5086 11.072 23.835 11.2669C24.1594 11.4618 24.5269 11.6003 24.9365 11.6855C25.3441 11.7707 25.7663 11.8112 26.2013 11.8112C26.534 11.8112 26.8857 11.7867 27.2522 11.7356C27.6208 11.6845 27.9578 11.5918 28.2684 11.4565C28.5759 11.3223 28.8318 11.1231 29.0329 10.861C29.233 10.599 29.3331 10.2656 29.3331 9.85972C29.3331 9.30261 29.1235 8.88078 28.7065 8.59317C28.2895 8.30662 27.7672 8.07334 27.1406 7.89651C26.514 7.71862 25.8337 7.55883 25.0998 7.41503C24.3637 7.27229 23.6834 7.06989 23.0568 6.80678C22.4324 6.54474 21.9079 6.17723 21.4909 5.70534C21.0739 5.23238 20.8665 4.573 20.8665 3.72827C20.8665 3.06996 21.0107 2.50433 21.3045 2.03137C21.5962 1.55841 21.9711 1.17386 22.4324 0.877726C22.8915 0.582658 23.4085 0.363221 23.9835 0.219415C24.5616 0.0756093 25.1324 0.00317383 25.7011 0.00317383C26.435 0.00317383 27.11 0.0670875 27.7303 0.19385C28.3474 0.319546 28.895 0.540048 29.3699 0.85216C29.8448 1.16427 30.225 1.5861 30.5093 2.11872C30.7936 2.65133 30.9611 3.3139 31.0106 4.1075H28.8813C28.8487 3.68567 28.7391 3.33414 28.5548 3.05612C28.3706 2.77703 28.1378 2.55333 27.8535 2.38396C27.5692 2.21565 27.2575 2.09208 26.9142 2.01645C26.5719 1.93976 26.2265 1.90247 25.8748 1.90247C25.5578 1.90247 25.2367 1.92804 24.9102 1.97917C24.5838 2.0303 24.2879 2.11872 24.0204 2.24441C23.755 2.37117 23.536 2.54055 23.3706 2.75253C23.2032 2.96344 23.119 3.23827 23.119 3.57488C23.119 3.94771 23.2495 4.25556 23.5075 4.4995C23.7666 4.7445 24.0972 4.94689 24.4974 5.10774C24.8986 5.26966 25.3472 5.40388 25.8485 5.51466C26.3497 5.62438 26.8499 5.73836 27.3512 5.8566C27.8872 5.97484 28.4085 6.11864 28.9171 6.28695C29.4268 6.45632 29.8764 6.68002 30.2703 6.95911C30.662 7.2382 30.9811 7.58866 31.2233 8.01155C31.4634 8.43338 31.5845 8.95748 31.5845 9.58276C31.5845 10.3774 31.4234 11.0357 31.098 11.5588C30.7715 12.0829 30.345 12.5047 29.8185 12.8253C29.2941 13.147 28.7002 13.3707 28.041 13.4975C27.3817 13.6242 26.7267 13.6882 26.0749 13.6882C25.3578 13.6882 24.6722 13.6115 24.0204 13.4591C23.3706 13.3068 22.7925 13.0586 22.2913 12.7124C21.79 12.3662 21.3898 11.9103 21.0887 11.3436C20.7885 10.7779 20.6232 10.0898 20.5874 9.27917H22.7167C22.7325 9.75214 22.842 10.1537 23.0431 10.4818L23.0452 10.4808Z" fill="#1D1D1B"/>
<path d="M52.0337 0.313232H54.4452L59.4304 13.4081H57.001L55.7868 9.94182H50.6194L49.4031 13.4081H47.0664L52.0337 0.313232ZM51.2344 8.19911H55.1876L53.2468 2.56832H53.1931L51.2334 8.19911H51.2344Z" fill="#1D1D1B"/>
<path d="M69.4039 4.47609C69.306 4.09686 69.1733 3.7496 69.0027 3.4311C68.8353 3.11259 68.6163 2.83883 68.3509 2.60555C68.0855 2.37333 67.7728 2.1933 67.4168 2.06441C67.0609 1.93552 66.6481 1.87267 66.1753 1.87267C65.4876 1.87267 64.8916 2.01328 64.3903 2.2945C63.887 2.57572 63.4794 2.95175 63.1646 3.42258C62.8497 3.89341 62.6191 4.42922 62.4685 5.02787C62.3169 5.62653 62.2421 6.23797 62.2421 6.86113C62.2421 7.48429 62.3169 8.09679 62.4685 8.69545C62.6201 9.29411 62.8508 9.82885 63.1646 10.3007C63.4794 10.7705 63.887 11.1465 64.3903 11.4288C64.8916 11.71 65.4876 11.8507 66.1753 11.8507C66.6828 11.8507 67.1304 11.7622 67.5169 11.5843C67.9033 11.4075 68.2372 11.1625 68.5141 10.8515C68.7932 10.5394 69.0101 10.1751 69.1659 9.76068C69.3239 9.34524 69.4271 8.89785 69.4755 8.42062H71.6859C71.6375 9.20463 71.4711 9.9194 71.1878 10.566C70.9035 11.2147 70.5191 11.774 70.0368 12.2448C69.5524 12.7146 68.9859 13.0789 68.3319 13.3356C67.6801 13.5923 66.9619 13.7212 66.1742 13.7212C65.2075 13.7212 64.3408 13.5401 63.5742 13.179C62.8055 12.8189 62.1557 12.3268 61.6239 11.7026C61.0932 11.0794 60.6825 10.3519 60.4013 9.51994C60.117 8.68906 59.9749 7.80279 59.9749 6.86006C59.9749 5.91734 60.117 5.05131 60.4013 4.21937C60.6836 3.38849 61.0932 2.66094 61.6239 2.03672C62.1547 1.41356 62.8055 0.917161 63.5742 0.550723C64.3419 0.184284 65.2086 0 66.1753 0C66.9019 0 67.5843 0.101197 68.2256 0.302525C68.8658 0.503853 69.4303 0.797855 69.9189 1.1824C70.4107 1.56801 70.8045 2.03565 71.1067 2.58531C71.41 3.13603 71.5964 3.76451 71.668 4.47396H69.4039V4.47609Z" fill="#1D1D1B"/>
<path d="M72.521 0.313232H83V2.29349H78.8857V13.407H76.6185V2.29349H72.521V0.313232Z" fill="#1D1D1B"/>
<path d="M45.9155 4.25982C45.6638 3.43321 45.291 2.70246 44.7993 2.06865C44.3075 1.43484 43.6883 0.933117 42.9448 0.560288C42.2024 0.189589 41.3315 0.00317383 40.329 0.00317383C39.4276 0.00317383 38.5999 0.168284 37.848 0.498505C37.0982 0.82766 36.5454 1.35495 36.1958 2.0825H36.1442V0.306764H34.0149V17.0319H36.1442V11.6589H36.1958C36.4285 12.0477 36.7181 12.3726 37.0603 12.6346C37.4026 12.8978 37.7638 13.1033 38.1481 13.2557C38.5325 13.408 38.9211 13.5177 39.3128 13.5859C39.7067 13.653 40.0605 13.6871 40.3775 13.6871C41.3631 13.6871 42.2277 13.5092 42.9701 13.1545C43.7136 12.7998 44.3307 12.314 44.8245 11.6972C45.3163 11.0805 45.6838 10.3582 45.926 9.53163C46.1682 8.70395 46.2893 7.82514 46.2893 6.89626C46.2893 5.96738 46.164 5.08963 45.9145 4.26195L45.9155 4.25982ZM43.8357 8.61873C43.703 9.22698 43.4861 9.76811 43.186 10.24C42.8859 10.714 42.4868 11.0933 41.995 11.3809C41.5011 11.6685 40.8882 11.8112 40.1542 11.8112C39.4202 11.8112 38.7916 11.6717 38.2745 11.3926C37.7575 11.1146 37.3352 10.7471 37.0098 10.2911C36.6833 9.83522 36.4464 9.30687 36.2969 8.70715C36.1452 8.10742 36.0705 7.4864 36.0705 6.84406C36.0705 6.23582 36.14 5.63716 36.2821 5.04596C36.4243 4.45476 36.6549 3.92641 36.9719 3.46197C37.2889 2.99753 37.6985 2.6215 38.1997 2.33389C38.701 2.04628 39.3107 1.90247 40.0289 1.90247C40.7471 1.90247 41.3105 2.03776 41.8202 2.30833C42.3277 2.57889 42.7448 2.94214 43.0712 3.39805C43.3976 3.85397 43.6399 4.3738 43.7978 4.95542C43.9558 5.53916 44.0358 6.13356 44.0358 6.7418C44.0358 7.38413 43.9684 8.00942 43.8357 8.61767V8.61873Z" fill="#1D1D1B"/>
</g>
<defs>
<clipPath id="clip0_328_5169">
<rect width="83" height="30" fill="white"/>
</clipPath>
</defs>
</svg>
