<svg width="58" height="47" viewBox="0 0 58 47" fill="none" xmlns="http://www.w3.org/2000/svg">
<path d="M26.6912 8.61229C27.4646 8.54198 28.2256 8.74463 28.5399 8.98038C30.1818 10.2087 29.3091 11.9416 28.8294 12.4255C28.3496 12.9053 27.7334 13.1741 27.1213 13.2279C25.6365 13.3561 24.6687 12.6406 24.495 12.4421C23.5397 11.3502 24.2138 9.86545 24.9541 9.27402C25.3677 8.94316 26.0377 8.66605 26.6912 8.61229Z" fill="black"/>
<path d="M56.709 2.23066C56.8372 2.16035 56.8579 2.14794 56.8869 2.16449C56.9158 2.18103 56.9117 2.17689 56.9117 2.28029C56.9158 3.0206 56.9324 6.13075 56.9117 7.95878C56.8827 10.0432 56.8703 12.4338 56.8703 13.2237C56.8703 13.5339 56.7711 14.7788 56.9282 15.1427C57.0812 15.5067 57.5734 15.8293 57.9084 15.9699C58.1028 16.0526 57.9498 16.1519 57.7968 16.3214C57.6437 16.4869 56.1424 18.2942 54.8024 20.0313C54.7693 20.0685 54.7404 20.1223 54.7031 20.1264C54.6659 20.1347 54.6163 20.1098 54.5625 20.0974C53.7312 19.8286 52.354 19.0345 52.081 18.4224C51.866 17.9303 52.0397 16.0981 52.0273 15.1055C52.0149 14.1129 52.0438 9.97707 52.0562 9.24916C52.0728 8.52126 52.0645 6.75526 52.0562 5.77507C52.0479 5.31185 51.8329 5.29945 51.7791 5.10093C51.7212 4.90654 51.746 4.89 51.7791 4.86518C53.7312 3.87672 56.0308 2.61116 56.7173 2.23066H56.709Z" fill="black"/>
<path d="M10.7973 2.36308C10.8593 2.30931 10.9131 2.25555 10.9627 2.20178C11.0082 2.25141 11.0537 2.30104 11.0992 2.35067C14.4409 6.06878 14.9 6.6478 18.3038 10.4238C18.4899 10.5313 18.4279 10.5024 18.5767 10.5562C18.6926 10.5975 18.829 10.6306 18.7877 10.6968C17.8902 11.5529 17.1623 12.3139 16.2565 13.1617C15.9133 13.4802 14.7842 14.51 14.6394 14.6051C14.3375 14.8037 13.7585 14.9195 13.2002 14.8161C12.8073 14.7416 12.2737 14.1916 12.0215 13.9558C11.0578 13.0542 9.75916 11.6646 9.25872 11.1062C8.77897 10.5727 8.67971 10.5189 7.93939 9.76208C7.90631 9.72899 7.87322 9.69591 7.836 9.65868C7.83186 9.72486 7.82359 9.78689 7.82359 9.85307C7.64575 12.1733 8.13378 12.653 8.54323 13.3313C8.48119 13.2238 10.0404 15.4943 11.3473 17.1156C12.4764 18.5259 14.5567 21.1894 14.7304 21.4044C14.9041 21.6195 15.0282 21.8759 15.1068 22.1696C15.2226 22.5997 15.1936 23.4062 15.1936 23.8446C15.1936 24.9116 15.1854 28.485 15.1771 29.2749C15.1771 29.5562 15.0696 30.2841 14.7139 30.5322C14.3541 30.7762 12.8279 31.5951 12.5508 31.7523C6.62834 35.0237 3.9111 36.6326 0.871262 38.3696C0.569347 38.5392 0.395642 38.6757 0.30879 38.6922C0.221937 38.7046 0.255024 38.746 0.197122 38.6633C0.139221 38.5805 0.184715 37.8568 0.184715 37.8568C0.184715 37.8568 0.184715 28.8903 0.201258 28.2575C0.213666 27.6289 0.213666 27.1905 0.213666 27.0044C0.213666 26.8182 0.329469 26.7645 0.379099 26.7355C1.2104 26.2516 5.70191 23.6295 7.14532 22.7444C7.21976 22.0041 6.59939 21.483 6.26025 21.1025C4.639 19.2786 3.00535 17.525 2.30226 16.793C1.6033 16.0609 1.07392 15.5109 0.829904 14.6754C0.676878 14.1585 0.689286 13.8359 0.701693 13.0459C0.714101 12.256 0.718237 11.433 0.718237 8.91837C1.66948 8.63713 3.28245 7.40052 5.32555 6.01502C6.54976 5.18372 9.67231 3.39704 10.8055 2.35481L10.7973 2.36308Z" fill="black"/>
<path d="M26.6912 8.61229C27.4646 8.54198 28.2256 8.74463 28.5399 8.98038C30.1818 10.2087 29.3091 11.9416 28.8294 12.4255C28.3496 12.9053 27.7334 13.1741 27.1213 13.2279C25.6365 13.3561 24.6687 12.6406 24.495 12.4421C23.5397 11.3502 24.2138 9.86545 24.9541 9.27402C25.3677 8.94316 26.0377 8.66605 26.6912 8.61229Z" fill="black"/>
<path d="M21.4843 11.7512C21.5587 11.6644 21.6373 11.5155 21.6869 11.532C21.7366 11.5527 21.72 11.6975 21.72 11.8009C21.72 13.4221 21.7283 15.0764 21.72 16.7969C21.7324 16.8052 22.8739 16.4785 23.2172 16.3834C23.2172 16.3834 23.3371 16.3379 23.3744 16.3503C23.4116 16.3668 23.3826 16.4992 23.3826 16.4992L23.3702 17.5786C23.3702 17.5786 23.3702 17.6407 23.3495 17.6655C23.333 17.6944 23.3289 17.682 23.2627 17.6986C22.9277 17.7813 21.9558 18.0791 21.7903 18.1535C21.7448 18.3851 21.7324 19.8368 21.7324 20.0353C21.7324 20.4489 21.6911 22.5954 21.72 22.7401C21.9185 23.7079 23.5812 24.2663 24.5365 24.5475C24.5779 24.6509 24.2884 24.8618 24.2429 24.928C23.8128 25.4615 23.2834 26.0777 23.0269 26.3342C22.7705 26.5906 22.1791 27.244 21.8193 27.6659C21.6166 27.9099 21.3064 28.2697 21.0459 28.5427C20.9797 28.613 20.9425 28.7247 20.8556 28.7288C20.7688 28.7371 20.6778 28.6461 20.5909 28.6006C17.8282 27.182 17.0465 25.5277 16.968 25.2134C16.8108 24.6219 16.8563 23.7121 16.8563 23.2323C16.8563 22.7525 16.8687 20.4654 16.8439 19.3612C16.3062 19.4976 15.8223 19.6796 15.3384 19.8823C15.2516 19.9195 15.0572 20.0436 14.9662 20.0601C14.8794 20.0767 14.8628 19.9567 14.8835 19.8409C14.9083 19.6796 15.5287 18.7697 16.0126 18.199C18.126 15.6803 19.7017 13.753 21.4926 11.743L21.4843 11.7512Z" fill="black"/>
<path d="M28.0767 13.4098C28.2339 13.4015 28.4655 13.5877 28.5523 13.658C29.2803 14.2411 29.2389 14.7043 29.2389 15.0559C29.2389 15.1593 29.2141 20.7302 29.2141 20.7302C29.2141 20.7302 29.1934 22.124 29.2389 22.459C29.2927 22.885 29.698 23.3358 29.9213 23.3896C30.1488 23.4392 30.6244 23.493 30.8105 23.4971C30.9511 23.4971 30.7402 23.7866 30.583 23.9231C30.4176 24.0637 29.3464 25.2921 28.8501 25.8669C28.5978 26.1523 27.9485 26.9588 27.8906 26.9836C27.8369 27.0084 27.8038 27.0332 27.7252 26.9919C27.6425 26.9505 27.0304 26.5287 26.5672 26.2267C26.1081 25.929 25.0162 25.0356 24.8136 24.622C24.6109 24.2085 24.5282 23.5674 24.491 22.8312C24.4372 21.818 24.4992 19.8741 24.4992 19.8741C24.4992 19.8741 24.5199 16.5861 24.4248 16.3917C24.3379 16.2222 24.1022 15.9906 23.9326 15.7921C23.9078 15.7631 23.8665 15.7424 23.8665 15.7093C23.8665 15.6762 23.9285 15.6721 23.9574 15.6556C24.9252 15.0517 25.9261 14.5141 26.4638 14.2618C27.0138 14.0054 27.9444 13.4139 28.085 13.4098H28.0767Z" fill="black"/>
<path d="M35.0749 19.7045C34.8391 19.4564 34.6944 19.2041 34.7192 19.018C34.8515 18.8815 35.1534 18.6334 35.2775 18.5382C36.783 17.3637 37.9699 16.3917 39.4506 15.2296C39.5002 15.1923 39.5209 15.1799 39.5416 15.1138C39.5622 15.0476 39.5622 15.0145 39.5416 14.9566C39.3844 14.5306 38.9956 14.0012 38.7516 13.6745C38.4787 13.3064 37.9244 12.4007 37.1469 11.4329C36.9443 11.1806 36.7871 10.92 36.5514 10.7091C36.4893 10.6553 36.4314 10.5726 36.3818 10.5809C36.328 10.585 36.2412 10.6926 36.1874 10.7546C35.5546 11.5239 34.7481 12.1649 33.8879 12.7026C33.586 12.8887 33.2096 13.1575 32.8994 13.3312C32.2253 13.7034 31.4229 14.1005 31.1417 14.2452C31.1127 14.2577 30.877 14.3445 30.8853 14.4768C30.8977 14.6133 30.8522 15.3288 30.877 15.6018C30.8977 15.8706 30.8439 18.3852 30.8439 19.8906C30.8439 20.3745 30.7943 21.3589 30.8646 21.8386C30.9018 22.1033 31.0548 22.5707 31.1872 22.7899C31.3113 22.9925 31.6504 23.3399 31.9813 23.4557C32.3039 23.5674 33.2386 23.8776 33.6852 24.0017C34.1154 24.1175 35.2279 24.5104 36.4149 24.7709C36.4769 24.7833 36.5389 24.8082 36.5762 24.7916C36.6134 24.7709 36.6382 24.7254 36.663 24.6758C37.2462 23.402 38.4538 20.9287 38.9625 19.8576C38.9832 19.8121 39.0163 19.7624 38.9874 19.7459C38.9584 19.7252 38.9212 19.7583 38.8716 19.779C38.549 19.8906 38.214 20.0395 37.8996 20.0892C36.113 20.3497 35.3106 19.961 35.0749 19.7128V19.7045ZM34.6902 15.0104C35.1493 15.5687 35.7076 16.4331 35.7862 16.5448C35.8607 16.6564 35.8772 16.8053 35.8069 16.855C35.7407 16.9046 34.8805 17.9799 34.6571 18.075C34.6571 17.0907 34.6158 15.9244 34.6902 15.0104Z" fill="black"/>
<path d="M50.522 10.1094C48.9752 9.69999 46.8287 9.09202 45.3026 8.7322C45.0503 8.67017 44.8725 8.56677 44.6864 8.60813C44.5003 8.64949 44.3514 8.91832 44.1528 9.16233C43.9502 9.40635 43.6069 9.84061 42.8666 10.5726C42.0601 11.3667 40.6126 12.2973 40.1949 12.5578C40.1204 12.6033 40.1204 12.5951 40.0915 12.653C40.0625 12.7109 40.0749 12.7357 40.0749 12.7895C40.0625 13.5174 40.0832 14.0219 40.0749 14.3569C40.0005 18.5838 40.0253 19.9279 41.4646 21.483C41.8451 21.9007 42.0684 22.0827 42.3579 22.4011C41.4108 23.584 40.7987 24.3326 40.6002 24.5683C40.3975 24.8082 40.0708 25.139 40.0625 25.2383C40.0501 25.3376 40.2858 25.5278 40.3313 25.5981C40.381 25.6643 40.6581 25.9828 41.0841 26.2392C41.6755 26.5907 42.8252 26.6445 43.549 26.3467C45.923 25.3706 48.0447 23.0629 48.6361 22.3639C48.7105 22.277 49.7693 20.937 50.0175 20.4325C50.3276 19.808 50.2821 18.7326 50.2821 18.7326C50.2821 18.7326 50.2987 10.1094 50.3111 11.3791C50.3111 10.9242 50.4269 10.5851 50.5717 10.3741C50.6337 10.2873 50.6957 10.308 50.7826 10.2501C50.8777 10.1839 50.6006 10.1343 50.5179 10.1136L50.522 10.1094ZM45.4515 23.038C45.2282 23.4599 44.4672 23.8528 44.0743 23.8445C43.6814 23.8363 42.9245 23.3772 42.8128 22.6782C43.0569 22.3763 44.2273 20.9412 44.31 20.8461C44.5375 20.5648 45.1827 19.7749 45.3109 19.6094C45.5632 19.291 45.9354 18.956 45.9354 18.956C45.9354 19.7583 46.0719 21.8635 45.4515 23.038ZM45.9519 18.0585C45.7824 18.2818 45.1951 18.2777 44.889 18.1247C44.5871 17.9716 44.3845 17.7111 44.1694 17.1238C43.9502 16.5365 43.9585 15.2048 44.0329 14.208C44.0577 13.8813 44.1032 13.3685 44.1446 13.2237C44.1735 13.1162 44.3307 13.1534 44.3348 13.1534C45.0462 13.2899 45.4225 13.4429 45.9602 13.6042C45.9602 13.9392 45.9974 17.0576 45.9519 18.0585Z" fill="black"/>
<path d="M11.885 46.8727H47.4366V29.2417L38.6645 29.2541C38.6645 29.2541 38.4743 29.2541 38.4039 29.3451C38.3378 29.4361 38.3626 29.6181 38.3626 29.6181L38.7431 31.93L31.8032 31.9424C31.8032 31.9424 31.6129 31.9424 31.5467 32.0334C31.4764 32.1244 31.5054 32.3105 31.5054 32.3105L31.8859 34.6183L24.946 34.6348C24.946 34.6348 24.7557 34.6348 24.6895 34.7258C24.6192 34.8168 24.6482 35.0029 24.6482 35.0029L25.0287 37.3107L18.0888 37.3231C18.0888 37.3231 17.8944 37.3231 17.8282 37.4141C17.762 37.5051 17.7868 37.6912 17.7868 37.6912L18.1673 40.0031L11.2026 40.0155C11.2026 40.0155 11.0123 40.0155 10.942 40.1065C10.8717 40.1975 10.9007 40.3795 10.9007 40.3795L11.8767 46.8645L11.885 46.8727Z" fill="black"/>
<path d="M17.1125 2.6732H17.4062L17.4227 2.73524C17.4434 2.82623 17.5303 2.98339 17.6585 3.1116C17.857 3.31012 18.1134 3.41352 18.3657 3.40111C18.6759 3.38457 18.8496 3.19432 18.8455 2.98339C18.8455 2.80141 18.7503 2.69388 18.3657 2.51604L17.6874 2.19758C17.6543 2.18518 17.6213 2.1645 17.5923 2.14382C17.34 1.97011 17.2201 1.75505 17.2201 1.46141C17.2159 0.973377 17.584 0.597017 18.163 0.588745C18.2995 0.588745 18.4567 0.605288 18.6263 0.654918C18.7627 0.688005 18.8413 0.721092 18.9034 0.754178L18.9819 0.799672L19.0357 0.642511H19.3045V1.46141H19.0316L19.0109 1.37869C18.9737 1.2298 18.862 1.08504 18.6924 0.977513C18.5684 0.894796 18.4277 0.853438 18.283 0.849302C17.9769 0.841031 17.8239 0.977513 17.8239 1.14295C17.8239 1.25875 17.8984 1.38282 18.0307 1.44486L18.9323 1.87085C19.015 1.90807 19.0895 1.95357 19.1556 2.01147C19.4038 2.21826 19.5031 2.43332 19.4989 2.71043C19.4865 3.30185 19.0853 3.68648 18.4071 3.69062C18.13 3.69062 17.9066 3.64099 17.6171 3.5045L17.4351 3.42179L17.3855 3.65339H17.1167V2.67734L17.1125 2.6732Z" fill="black"/>
<path d="M21.3063 3.08687C21.3063 3.21095 21.2526 3.27712 21.0954 3.32261C21.0706 3.33089 21.0458 3.33502 21.0209 3.33502C20.8597 3.33916 20.7356 3.20268 20.7521 3.03311C20.7687 2.89249 20.839 2.82218 21.0995 2.71878L21.3022 2.6402V3.08274L21.3063 3.08687ZM21.0458 2.42927L20.5246 2.55335C20.1772 2.67742 20.0366 2.85113 20.0366 3.12823C20.0366 3.4715 20.2806 3.70725 20.6818 3.70725C20.9382 3.70725 21.1285 3.6328 21.2815 3.48391L21.3353 3.43842L21.4014 3.50045C21.5421 3.64107 21.724 3.70725 21.9681 3.69897C22.3196 3.68657 22.5057 3.52113 22.5636 3.21095L22.576 3.12823H22.2989V3.182C22.2865 3.30607 22.2203 3.37224 22.1542 3.37638C22.1128 3.37638 22.0756 3.34743 22.059 3.2978C22.0508 3.28539 22.0508 3.27298 22.0508 3.26058V2.28866C22.0508 1.88748 21.8564 1.68069 21.3353 1.62692C21.2774 1.61865 21.2236 1.61865 21.1657 1.61865C21.1078 1.61865 21.054 1.61865 21.0003 1.62279C20.4171 1.66415 20.1814 1.89162 20.1772 2.11909C20.1772 2.25971 20.2889 2.36724 20.4916 2.35069C20.657 2.33829 20.7438 2.25557 20.7728 2.08187C20.7976 1.94538 20.8762 1.88335 21.0375 1.89162C21.2112 1.89989 21.298 1.99501 21.3022 2.16458V2.36724L21.0458 2.43341V2.42927Z" fill="black"/>
<path d="M22.8862 0.687918C23.2336 0.663103 23.5852 0.617609 23.9284 0.563843V3.18182C23.9284 3.31003 23.9698 3.34726 24.1187 3.35553H24.2138V3.62849H22.8986V3.35966H22.9855C23.1675 3.35966 23.2047 3.31831 23.2047 3.12392V1.11804C23.2047 1.02292 23.1633 0.97329 23.0765 0.956747L22.8821 0.940203V0.687918H22.8862Z" fill="black"/>
<path d="M24.7971 3.4176C24.8137 3.37625 24.8343 3.33489 24.855 3.3018L24.9708 3.16946L25.8807 1.9742L25.5168 1.96593C25.3182 1.96593 25.2479 1.99902 25.1983 2.11895L25.1528 2.23062L25.099 2.37124H24.8302L24.8592 1.68469H26.7699V1.95352L25.9055 3.0702C25.8021 3.20254 25.769 3.25217 25.7194 3.34316H26.1413C26.3026 3.3473 26.3729 3.31007 26.4225 3.19013L26.4639 3.09501L26.5507 2.87581H26.8195L26.7947 3.63267H24.8095V3.42174H24.8137L24.7971 3.4176Z" fill="black"/>
<path d="M28.3042 2.92959V2.44569C28.3042 2.26785 28.3828 2.13964 28.5317 2.0652C28.5937 2.03211 28.664 2.01557 28.7302 2.01143C28.9701 2.00316 29.1314 2.18927 29.1397 2.64835C29.1479 3.16946 29.0032 3.36385 28.7633 3.36385C28.6682 3.36385 28.5648 3.3349 28.4738 3.27286C28.3414 3.18601 28.3042 3.10743 28.3042 2.93372V2.92959ZM27.2703 0.936117H27.3488L27.4357 0.95266C27.5391 0.969203 27.5722 1.0271 27.5722 1.21322V3.62027H28.0064C28.0313 3.57891 28.0561 3.53755 28.085 3.49619L28.1471 3.42175L28.2877 3.5086C28.5151 3.65749 28.6889 3.70712 28.9494 3.70299C29.545 3.69885 29.9379 3.29768 29.9379 2.65249C29.9379 1.99075 29.5574 1.58958 29.0156 1.58544C28.7881 1.58544 28.5813 1.65575 28.4035 1.8005L28.3042 1.87909V0.543213C28.2174 0.559756 28.1305 0.5763 28.0437 0.588707C27.7831 0.630065 27.5267 0.659016 27.2703 0.675559V0.936117Z" fill="black"/>
<path d="M30.397 1.69714H31.3689V2.79727C31.3647 3.11987 31.4599 3.23981 31.646 3.24808C31.89 3.25635 32.072 3.08265 32.072 2.87585V2.18517C32.072 2.03628 32.0017 1.97011 31.8445 1.97011H31.7701V1.69714H32.8247V3.0082C32.8247 3.26462 32.8536 3.32252 32.9612 3.33907L33.0522 3.35148L33.1597 3.36388V3.62444C32.8123 3.62444 32.4731 3.63685 32.1299 3.67407L32.0968 3.38456L32.0513 3.43006C31.8735 3.6079 31.7039 3.68234 31.4433 3.70302C31.3896 3.70716 31.3317 3.70716 31.2779 3.70302C30.856 3.68234 30.6451 3.4466 30.6451 3.00407V2.1769C30.6451 2.04869 30.6038 2.00319 30.4879 1.98665C30.4755 1.98665 30.4673 1.98665 30.459 1.98665H30.3928V1.70128L30.397 1.69714Z" fill="black"/>
<path d="M33.5857 3.34316H33.6643C33.8669 3.34316 33.9124 3.30594 33.9248 3.16532C33.9248 3.14878 33.9248 3.13223 33.9248 3.11569V2.37537C33.9248 2.3547 33.9248 2.33402 33.9248 2.31334C33.9041 2.09 33.8545 2.02797 33.6932 2.02797H33.6146V1.76327C33.8793 1.75086 34.144 1.72605 34.4046 1.68056C34.4749 1.66815 34.5452 1.65574 34.6155 1.6392L34.6569 1.92457L34.7727 1.82945C34.9464 1.68469 35.0663 1.63093 35.2276 1.61852C35.4427 1.60611 35.604 1.755 35.604 1.98661C35.604 2.18926 35.4592 2.32988 35.2607 2.32161C35.1697 2.32161 35.1242 2.29679 35.0415 2.21821L34.9712 2.1479C34.9712 2.1479 34.9298 2.11895 34.8926 2.11482C34.8347 2.11482 34.7685 2.15204 34.7106 2.2513L34.6651 2.33402V3.06192C34.6651 3.25631 34.7148 3.32662 34.8388 3.33902L34.9257 3.3473L35.0374 3.35557V3.62026H33.5815V3.33902L33.5857 3.34316Z" fill="black"/>
<path d="M36.7663 2.35895V2.30518C36.7745 2.01981 36.8945 1.8916 37.0558 1.88746C37.2253 1.88746 37.3494 2.02394 37.3411 2.33C37.3329 2.6071 37.2543 2.71876 37.1219 2.76012C37.0971 2.76426 37.0723 2.76839 37.0516 2.76839C36.8986 2.76839 36.7745 2.64432 36.7663 2.35481V2.35895ZM36.4354 2.97105C36.2203 3.04549 36.1128 3.19025 36.1128 3.37222C36.1128 3.57488 36.2493 3.73204 36.5595 3.81062C36.605 3.82303 36.6463 3.8313 36.6918 3.83544L37.0434 3.8892C37.1013 3.89748 37.1592 3.90575 37.2171 3.91815C37.6348 3.9926 37.7051 4.03809 37.7092 4.15803C37.7134 4.34001 37.5273 4.50131 37.0682 4.4889C36.8242 4.4889 36.6918 4.4434 36.6256 4.38137C36.5512 4.31519 36.5098 4.23248 36.514 4.14976C36.514 4.11254 36.5223 4.07532 36.5347 4.03396C36.5512 3.98433 36.5553 3.95124 36.5553 3.92643C36.5553 3.87266 36.5057 3.8313 36.3775 3.8313C36.0839 3.83957 35.9474 3.98019 35.9515 4.18698C35.9681 4.47649 36.2906 4.75773 37.0806 4.74946C37.8623 4.73705 38.2262 4.39791 38.2304 3.95951C38.2304 3.68241 38.0856 3.48803 37.7134 3.36809C37.6555 3.35155 37.5976 3.335 37.5397 3.32673L36.8448 3.22333C36.758 3.21093 36.7166 3.16957 36.7125 3.12407C36.7125 3.09512 36.729 3.06617 36.7621 3.04136C36.7869 3.02481 36.8159 3.01654 36.8655 3.01654H36.9813C37.6886 3.01654 38.0442 2.71049 38.0442 2.33C38.0442 2.23901 38.0236 2.13975 37.9657 2.02394L37.9408 1.96604L38.0277 1.89573L38.0566 1.94123C38.1104 2.02808 38.1766 2.06944 38.2676 2.06944C38.3875 2.06944 38.4702 1.98259 38.4661 1.85438C38.462 1.70962 38.3379 1.59382 38.1724 1.60209C38.0691 1.60209 37.9574 1.65586 37.8581 1.75098L37.8126 1.79647L37.763 1.76752C37.5603 1.64758 37.3039 1.58141 37.002 1.58968C36.3775 1.60623 36.0425 1.95364 36.0549 2.34654C36.059 2.59055 36.2038 2.79321 36.4519 2.88833L36.5305 2.91728L36.4354 2.95451V2.97105Z" fill="black"/>
<path d="M39.5991 2.3714V2.24319C39.6033 2.21424 39.6115 2.18115 39.6157 2.1522C39.6612 1.98263 39.7852 1.88751 39.9465 1.88337C40.1326 1.88337 40.2526 2.00745 40.265 2.25146L40.2733 2.3714H39.5991ZM40.9639 2.52442C40.9309 1.933 40.5545 1.57732 39.9341 1.58559C39.1979 1.59386 38.7554 2.01985 38.7596 2.64436C38.7596 3.28128 39.2145 3.71141 39.9465 3.699C40.4263 3.68659 40.753 3.50462 40.935 3.19856L40.9888 3.10758L40.662 2.99177L40.6041 3.07862C40.4718 3.26887 40.3063 3.35986 40.0872 3.364C39.7728 3.364 39.6033 3.16961 39.6033 2.71881V2.64023H40.9764L40.9681 2.51615L40.9639 2.52442Z" fill="black"/>
<path d="M41.51 3.34327H41.5845C41.7871 3.34327 41.8326 3.30604 41.8491 3.16543V2.37135C41.8491 2.35067 41.8491 2.32999 41.8491 2.30931C41.8285 2.08597 41.7747 2.02394 41.6175 2.02394H41.5348V1.75924C41.7995 1.74684 42.0683 1.72202 42.3248 1.67653C42.3992 1.66412 42.4695 1.65171 42.5398 1.63517L42.5812 1.92054L42.697 1.82542C42.8707 1.68066 42.9906 1.6269 43.1519 1.61449C43.367 1.60208 43.5283 1.75097 43.5283 1.98258C43.5283 2.18523 43.3835 2.32585 43.1809 2.31758C43.094 2.31758 43.0444 2.29277 42.9658 2.21419L42.8955 2.14388C42.8955 2.14388 42.8542 2.11493 42.8211 2.11079C42.7673 2.11079 42.697 2.14801 42.6432 2.24727L42.5936 2.32999V3.05789C42.5936 3.25228 42.6432 3.32259 42.7673 3.33499L42.8542 3.34327L42.9658 3.35154V3.61623H41.5141V3.33499L41.51 3.34327Z" fill="black"/>
</svg>
