<svg width="70" height="53" viewBox="0 0 70 53" fill="none" xmlns="http://www.w3.org/2000/svg">
<path d="M22.704 50.3287C29.4474 49.9392 36.2075 49.8521 42.9591 50.0583C43.7484 50.0829 45.4599 52.1073 45.4539 52.2493C45.4478 52.3916 45.2063 52.6484 45.0468 52.6417C44.8343 52.6327 43.3903 51.6714 42.5527 51.6464C36.0501 51.4581 29.5401 51.5465 23.0447 51.9129C22.2077 51.961 19.6419 50.2727 19.3023 49.357C18.904 48.2837 17.9783 44.9544 17.5929 43.8693C17.5197 43.6638 17.3584 43.4776 17.1808 43.3488C16.8792 43.4869 16.7282 43.5568 16.4277 43.6956C16.4277 43.6956 15.7261 47.1985 15.5826 47.4436C15.2174 48.0646 13.4779 49.3513 12.7034 49.4301C11.8207 49.5193 9.21149 47.1065 9.16745 46.718C9.13512 46.4355 9.94363 45.5566 10.3465 45.512C10.4932 45.4956 10.5923 45.5594 10.6587 45.6575C11.1521 46.3873 12.3994 48.2276 12.8164 48.1859C13.0153 48.1656 13.7233 47.7211 13.8736 47.1896C14.205 46.0178 15.102 40.4648 15.4114 39.3918C15.5695 38.8449 16.0636 38.3384 16.0636 38.3384C16.0636 38.3384 13.8207 39.0622 12.6182 39.898C12.4075 40.0439 12.2828 40.341 12.2985 40.5005C12.3386 40.9071 12.9216 42.065 12.9454 42.3129C12.9642 42.5077 12.426 42.9361 12.1852 42.96C11.815 42.9971 10.4175 41.4811 10.3706 41.0388C10.3045 40.4202 11.5827 38.642 12.0988 38.4658C13.3517 38.0373 14.4416 37.7398 16.2743 37.1787C16.4956 37.111 17.1648 36.3586 17.3744 36.3422C17.6217 36.3233 18.4501 36.9404 18.4664 37.1709C18.4778 37.3303 17.5659 38.3323 17.4288 38.8178C17.286 39.3247 16.6462 42.5423 16.6497 42.5348C16.7549 42.3408 17.4725 42.0761 17.6263 41.887C18.9698 40.2322 20.5616 37.4716 21.2333 36.6312C21.3758 36.4532 22.2283 36.0212 22.4756 36.0076C22.6852 35.9959 23.4972 36.5577 23.5068 36.7528C23.5143 36.8948 22.8503 37.3043 22.7264 37.4709C21.7711 38.7647 20.1708 40.8964 18.7833 42.3718C18.6966 42.4638 18.4497 42.6265 18.449 42.6461C18.4472 42.6932 18.8071 42.9408 18.914 43.1644C19.5534 44.4982 20.6031 47.8613 21.0458 48.8826C21.3235 49.5218 22.0049 50.369 22.704 50.3287Z" fill="black"/>
<path d="M24.8321 39.0917C25.4335 39.0642 25.7912 38.16 25.7628 37.485C25.7447 37.0409 25.1443 36.7641 24.6694 36.7862C24.0435 36.8151 23.7081 37.723 23.7415 38.3979C23.7639 38.8413 24.3618 39.1138 24.8321 39.0921V39.0917ZM60.7793 45.1923C60.5409 45.1666 60.3423 45.4669 60.3423 45.4669C59.2788 46.9644 58.1853 48.2704 57.6425 48.219C57.4433 48.2001 57.2138 47.9108 57.2447 47.5744C57.3307 46.6359 58.8923 43.2471 58.9729 42.4156C59.0368 41.7603 58.1726 40.9452 57.6312 40.8952C56.5108 40.7932 55.1858 41.5944 55.1858 41.5944C55.1858 41.5944 54.5673 40.6348 54.2497 40.6102C53.9694 40.5892 53.7272 40.7001 53.6234 40.9384C53.3577 41.5488 52.7226 43.4037 52.1858 45.0653C51.0793 46.7557 49.9418 47.6012 49.0331 47.5491C48.2164 47.5031 47.199 46.927 47.2456 45.7634C47.252 45.605 47.2608 45.4255 47.2882 45.249C47.2882 45.249 48.1003 45.5368 48.9237 45.5832C50.113 45.6503 51.5546 43.287 51.6366 42.0449C51.6839 41.3354 50.5087 40.3491 49.3116 40.2817C47.9432 40.205 46.112 42.3121 45.5245 44.659C44.6097 46.1065 43.684 47.3258 43.1703 47.3094C42.9707 47.3029 42.7249 47.0268 42.7348 46.6897C42.7622 45.748 44.1074 42.269 44.1362 41.4339C44.1586 40.7765 43.2478 40.0174 42.7046 40.0017C41.581 39.9696 40.3306 40.8524 40.3306 40.8524C40.3306 40.8524 40.8272 39.2672 41.2727 37.7957C41.3149 37.6563 41.3544 37.5307 41.3576 37.3887C41.3636 37.1219 40.369 36.5679 40.0844 36.5629C39.9135 36.5597 39.7452 36.6699 39.6624 36.9293C39.3441 37.9281 38.2709 41.6304 37.5271 44.3836C36.3186 46.1593 35.0571 47.1759 34.1271 47.1831C33.2007 47.1899 32.6103 46.5421 32.5964 45.5818C32.5737 43.9466 33.9492 40.9249 34.8998 40.9206C35.0863 40.9199 35.2916 41.0611 35.292 41.2388C35.293 41.6301 34.8135 42.3788 34.8149 42.7523C34.8167 43.0541 35.4277 43.4422 35.8887 43.4422C36.2582 43.4422 36.7427 41.9508 36.7445 41.4532C36.747 40.7954 35.5328 39.9029 34.4469 39.9093C32.7971 39.9196 31.2444 42.2757 30.8171 44.5038C29.9922 46.0113 29.14 47.2926 28.6253 47.309C28.2256 47.3211 27.8647 46.8713 27.8477 46.3737C27.8377 46.0719 28.443 43.4172 28.9759 41.2142C29.6018 41.1952 29.9151 41.187 30.5407 41.1735C30.8391 41.1667 31.0302 40.5232 31.026 40.2917C31.0238 40.185 30.9105 40.1347 30.7979 40.1369C30.1695 40.1501 29.8551 40.1572 29.2267 40.1754C29.4452 39.2793 29.6423 38.558 29.7038 38.3305C29.7407 38.1921 29.7723 38.0619 29.7684 37.9195C29.762 37.6523 28.7446 37.1472 28.4605 37.1558C28.2899 37.1611 28.123 37.2739 28.0558 37.5432C27.7798 38.6194 27.6434 39.1577 27.3745 40.2343C27.1649 40.2417 27.0605 40.2457 26.8512 40.2539C26.5521 40.2653 26.3902 40.9131 26.3987 41.1271C26.4026 41.2331 26.5173 41.2994 26.6104 41.2951C26.8115 41.288 26.9116 41.283 27.1131 41.2755C26.8299 42.4195 26.5521 43.6391 26.3475 44.6547C25.5536 46.1732 24.728 47.4635 24.2151 47.4895C24.0151 47.5002 23.7472 47.2462 23.7295 46.9084C23.6957 46.2513 24.7 42.1737 24.8797 41.3686C24.9113 41.2259 24.9412 41.0986 24.9348 40.957C24.9227 40.6905 23.9064 40.2054 23.6257 40.2196C23.457 40.2278 23.2932 40.3445 23.2335 40.6138C22.9891 41.7253 21.9377 46.2435 22.0059 47.3793C22.0439 48.0192 23.4737 48.596 24.0882 48.5643C24.879 48.5236 25.4882 47.8958 26.0555 47.0026C26.2815 47.7877 27.6729 48.407 28.4782 48.3809C29.4256 48.3506 30.1283 47.4735 30.8174 46.3063C31.2448 47.3807 32.7524 48.2814 33.7914 48.2718C34.9538 48.2611 35.9871 47.6265 36.9594 46.576C36.8457 47.0507 36.7779 47.3828 36.7768 47.4995C36.7761 47.8551 37.6422 48.2689 37.9495 48.2714C38.202 48.2739 38.2766 48.0956 38.3331 47.8658C38.4663 47.3176 39.3409 44.1003 39.8514 42.605C40.1082 41.852 41.2347 41.2095 41.6812 41.2202C41.9238 41.2266 42.2517 41.501 42.2435 41.8027C42.2261 42.4784 41.002 45.8818 40.9771 47.0194C40.9633 47.6593 42.3419 48.351 42.9558 48.3699C43.9049 48.3991 44.6627 47.5641 45.425 46.4383C45.8282 47.5469 47.5049 48.5518 48.6278 48.6146C49.6697 48.672 50.6217 48.1869 51.4718 47.3721C51.378 47.7021 51.3194 47.9329 51.3141 48.0124C51.291 48.3667 52.13 48.835 52.4366 48.8564C52.6892 48.8743 52.7741 48.7006 52.8462 48.4755C53.0071 47.9714 54.1716 44.329 54.7019 43.18C55.0415 42.4448 56.1999 42.0014 56.6461 42.04C56.8873 42.061 57.1335 42.2272 57.1069 42.5279C57.0472 43.2011 55.5644 46.6569 55.4689 47.7913C55.4149 48.4295 56.7484 49.2078 57.3612 49.2645C58.6589 49.3865 59.6986 47.8662 60.8919 46.206C60.8919 46.206 61.1736 45.8251 61.1963 45.6132C61.219 45.4009 61.0162 45.2183 60.7778 45.193L60.7793 45.1923ZM49.6985 41.3893C49.8473 41.3982 50.15 41.6661 50.1382 41.8609C50.0921 42.6417 47.7095 44.828 47.4708 44.5284C47.3404 44.3643 48.8978 41.3426 49.6985 41.3893Z" fill="black"/>
<path d="M9.68167 16.4201C9.85289 16.5449 9.9211 16.7914 9.80209 16.9987C9.21347 18.0043 8.92182 18.5072 8.34457 19.5157C8.2277 19.7233 7.96376 19.8093 7.76589 19.6455C7.07532 19.0733 6.31903 18.8301 5.46149 18.92C4.24269 19.048 3.59723 19.6145 3.70273 20.5626C3.70593 20.5919 3.7077 20.6069 3.7109 20.6358C3.82706 21.6813 4.72403 21.9702 6.9993 22.2046C10.0241 22.5164 11.6241 23.9614 11.8521 26.6675C11.8553 26.7064 11.8571 26.726 11.8603 26.7645C12.1459 30.1533 9.91648 32.4909 6.39505 32.8683C4.56986 33.0634 2.51909 32.4374 1.03919 31.4739C0.849138 31.3497 0.789814 31.0608 0.89816 30.8749C1.42675 29.8312 1.69459 29.3107 2.23526 28.2695C2.32691 28.1104 2.58374 28.0305 2.75355 28.1585C3.62849 28.8167 4.93326 29.2601 6.00003 29.1459C7.76305 28.9576 8.32183 28.1461 8.23622 27.2693C8.23232 27.23 8.2309 27.2104 8.22699 27.1712C8.10372 25.9048 7.02275 25.7611 4.89596 25.476C3.28888 25.2606 0.554649 25.0993 0.060519 21.118C0.0555457 21.0792 0.053059 21.0599 0.048441 21.021C-0.343382 17.8648 1.68287 15.504 5.06789 15.148C6.73749 14.9725 8.29626 15.4099 9.68167 16.4201Z" fill="black"/>
<path d="M10.8902 14.8177C12.0987 14.7164 12.7033 14.6693 13.9125 14.5808C14.1416 14.564 14.3594 14.7196 14.4453 14.9589C15.8517 18.8418 16.5362 20.7877 17.8659 24.6866C17.9206 24.8549 18.0986 24.8685 18.1987 24.6912C19.4545 20.9289 20.1063 19.0505 21.4594 15.3028C21.5205 15.1284 21.631 15.0499 21.7678 15.0438C21.7951 15.0428 21.809 15.0417 21.8363 15.0406C21.9738 15.0342 22.0914 15.102 22.1674 15.2703C23.8466 18.8789 24.6629 20.6892 26.2469 24.3206C26.3172 24.4404 26.5172 24.4836 26.5776 24.286C27.5467 20.2815 28.0515 18.281 29.0973 14.2855C29.1612 14.0393 29.3637 13.8642 29.5929 13.8599C30.795 13.8374 31.396 13.8292 32.5988 13.8192C32.828 13.8174 33.0361 14.0611 32.9459 14.3061C31.3012 19.7689 29.7481 25.2591 28.2863 30.7739C28.2273 31.0208 28.0373 31.1724 27.8217 31.1785C27.243 31.1934 26.9542 31.202 26.3759 31.2202C26.1815 31.2266 25.984 31.11 25.9126 30.9166C24.5084 27.6933 23.7866 26.0863 22.3052 22.8816C22.2797 22.8092 22.2111 22.7881 22.1443 22.7913C22.0775 22.7946 22.0118 22.8217 21.993 22.8959C20.8097 26.223 20.2378 27.8902 19.1323 31.2287C19.057 31.4292 18.8918 31.5616 18.6978 31.5737C18.1202 31.6079 17.8311 31.6258 17.2535 31.6643C17.0382 31.6782 16.8346 31.5448 16.7536 31.3044C14.7938 25.9476 12.747 20.6229 10.6102 15.3342C10.4983 15.0984 10.6607 14.8384 10.8894 14.8191L10.8902 14.8177Z" fill="black"/>
<path d="M34.8016 13.8082C35.9582 13.8082 36.5365 13.8114 37.6932 13.8232C37.8999 13.8253 38.0807 14.0226 38.0783 14.2431C38.0154 19.7233 37.9518 25.2035 37.8893 30.6834C37.8868 30.9038 37.712 31.0979 37.5181 31.0954C36.43 31.0847 35.8865 31.0818 34.7984 31.0815C34.6041 31.0815 34.4318 30.8856 34.4314 30.6663C34.4247 25.1853 34.4172 19.7044 34.4126 14.2238C34.4122 14.0033 34.5955 13.8079 34.8016 13.8079V13.8082Z" fill="black"/>
<path d="M41.8175 13.8948C41.9553 13.898 42.0242 13.8998 42.1617 13.9033C42.2995 13.9069 42.4363 13.959 42.5248 14.0596C45.2309 17.097 47.8693 20.1951 50.4376 23.3502C50.5207 23.4533 50.7225 23.4398 50.7335 23.2447C50.9278 19.8248 51.0248 18.1147 51.2191 14.6952C51.2315 14.4751 51.402 14.2889 51.6312 14.3025C52.7768 14.3696 53.3502 14.4056 54.4958 14.4841C54.7249 14.4998 54.8944 14.7081 54.8791 14.9278C54.5022 20.3952 54.1178 25.8619 53.7402 31.3296C53.7253 31.5486 53.5395 31.7327 53.3239 31.7181C53.1775 31.7077 53.1036 31.7027 52.9573 31.6928C52.8066 31.6824 52.6614 31.5993 52.5615 31.4698C50.142 28.3154 47.6529 25.2148 45.097 22.1709C44.9897 22.0443 44.788 22.086 44.7808 22.2815C44.659 25.7046 44.5979 27.4157 44.4761 30.8388C44.4686 31.0589 44.3112 31.2494 44.0952 31.2419C43.0164 31.2051 42.4768 31.1898 41.3976 31.1627C41.1816 31.1577 41.0136 30.9579 41.0189 30.7375C41.144 25.2587 41.269 19.7795 41.3955 14.3004C41.4008 14.0799 41.5877 13.8887 41.8171 13.8944L41.8175 13.8948Z" fill="black"/>
<path d="M56.5896 22.6104C56.8443 18.1746 60.3597 14.657 64.8914 15.1408C66.5805 15.3213 68.1507 16.1246 69.3165 17.2657C69.491 17.4366 69.4927 17.7059 69.3368 17.8593C68.5738 18.6933 68.1947 19.1117 67.4416 19.9507C67.3095 20.1077 67.0764 20.1548 66.8736 19.9347C66.2644 19.2744 65.4203 18.8367 64.5166 18.7418C62.1906 18.4975 60.4446 20.1622 60.1959 22.9154C60.1448 23.4808 60.1195 23.7636 60.0684 24.329C59.8176 27.1068 61.078 28.9599 63.3415 29.1964C64.1248 29.2781 64.9163 29.1119 65.6875 28.6888C65.9131 28.5647 65.9852 28.4024 66.0129 28.1591C66.0658 27.6922 66.0914 27.4589 66.1443 26.9923C66.1606 26.8467 66.0654 26.7119 65.9333 26.6969C65.1426 26.6081 64.7468 26.5646 63.9557 26.4808C63.7355 26.4576 63.5802 26.2443 63.603 26.0252C63.6875 25.2076 63.7294 24.7988 63.814 23.9812C63.8392 23.738 64.0346 23.586 64.2569 23.6095C66.4242 23.8389 67.5073 23.9638 69.6707 24.2356C69.8927 24.2634 70.0263 24.4532 69.9958 24.6957C69.5865 27.9486 69.3826 29.5749 68.9734 32.8274C68.946 33.0454 68.7709 33.2209 68.556 33.1938C68.41 33.1749 68.3361 33.167 68.1905 33.1485C68.0185 33.1267 67.8601 33.0087 67.767 32.8738C67.442 32.3908 67.2782 32.1497 66.95 31.6671C66.8566 31.5329 66.723 31.5169 66.5827 31.6239C65.3585 32.5581 63.9479 32.9049 62.452 32.7443C58.1906 32.2863 56.0862 27.9847 56.4795 24.0255C56.5235 23.4597 56.5452 23.1761 56.5892 22.6104H56.5896Z" fill="black"/>
<path d="M13.4018 2.48668H11.0498V3.417H13.1446C13.4451 3.417 13.649 3.473 13.7567 3.58572C13.8643 3.69702 13.918 3.90463 13.918 4.20712V4.58168C13.918 4.88774 13.8647 5.09642 13.7567 5.20557C13.649 5.3158 13.4455 5.37073 13.1446 5.37073H11.205C10.9041 5.37073 10.6988 5.3158 10.5898 5.20557C10.48 5.09535 10.4253 4.88667 10.4253 4.58025V4.49L10.9411 4.36693V4.90379H13.4149V3.90178H11.3279C11.032 3.90178 10.8292 3.8472 10.7194 3.73662C10.61 3.6271 10.555 3.41842 10.555 3.11236V2.822C10.555 2.5113 10.6097 2.3019 10.7194 2.19453C10.8292 2.08609 11.032 2.03223 11.3287 2.03223H13.1009C13.3844 2.03223 13.5851 2.08395 13.7034 2.18811C13.8213 2.29192 13.8807 2.48419 13.8807 2.76492V2.83662L13.4025 2.97253V2.48668H13.4018Z" fill="black"/>
<path d="M18.4113 2.48669H16.1047V4.9038H18.4113V4.0698L18.9647 4.18644V4.58062C18.9647 4.89167 18.9107 5.10071 18.8038 5.20951C18.6962 5.31795 18.4922 5.37145 18.1917 5.37145H16.3307C16.0301 5.37145 15.8244 5.31652 15.715 5.2063C15.6056 5.09678 15.5513 4.8881 15.5513 4.5824V2.82236C15.5513 2.51559 15.6056 2.30762 15.715 2.19775C15.8244 2.08717 16.0301 2.03259 16.3307 2.03259H18.1917C18.4919 2.03259 18.6958 2.08681 18.8038 2.1949C18.9107 2.30334 18.9647 2.51309 18.9647 2.82415V3.14091L18.4113 3.24436V2.48741V2.48669Z" fill="black"/>
<path d="M20.4285 5.37108V2.03186H20.9819V3.40022H23.6025V2.03186H24.1559V5.37108H23.6025V3.85967H20.9819V5.37108H20.4285Z" fill="black"/>
<path d="M25.8835 5.37108V2.03186H26.437V5.37108H25.8835Z" fill="black"/>
<path d="M28.7174 0.471924H28.1636V7.11968H28.7174V0.471924Z" fill="black"/>
<path d="M30.9968 0.471924H30.4434V7.11968H30.9968V0.471924Z" fill="black"/>
<path d="M32.7234 5.37108V2.03186H33.2768V5.37108H32.7234Z" fill="black"/>
<path d="M35.0026 5.37108V2.03186H35.3507L37.8366 4.26455C37.9563 4.37192 38.0835 4.51246 38.216 4.68476C38.1823 4.47822 38.1648 4.20426 38.1648 3.8636V2.03186H38.6725V5.37108H38.3638L35.8072 3.04779C35.7134 2.96182 35.6594 2.91188 35.6466 2.89975C35.5773 2.83019 35.5201 2.75457 35.4722 2.67217C35.4981 2.87121 35.5098 3.11521 35.5098 3.40343V5.37072H35.0022L35.0026 5.37108Z" fill="black"/>
<path d="M43.5121 2.48668H40.9078V4.90379H43.5121V3.9271H42.1661V3.5019H44.0652V4.58203C44.0652 4.88809 44.0112 5.09677 43.901 5.20593C43.7913 5.31615 43.587 5.37109 43.2865 5.37109H41.1341C40.8339 5.37109 40.6283 5.31615 40.5185 5.20593C40.4094 5.09642 40.3547 4.88774 40.3547 4.58203V2.822C40.3547 2.51522 40.4094 2.30725 40.5185 2.19739C40.6283 2.0868 40.8339 2.03223 41.1341 2.03223H43.2865C43.5781 2.03223 43.7806 2.08538 43.895 2.19132C44.0087 2.29762 44.0652 2.4956 44.0652 2.7849V2.86837L43.5121 2.97859V2.48668Z" fill="black"/>
<path d="M45.6621 5.37108V2.03186H48.8631V2.47847H46.2156V3.41342H47.8326V3.85147H46.2156V4.91234H48.8887V5.37108H45.6621Z" fill="black"/>
<path d="M50.2104 5.37108V2.03186H52.8886C53.1333 2.03186 53.3113 2.08251 53.4232 2.18382C53.5344 2.28584 53.5901 2.45029 53.5901 2.6793V3.42234C53.5901 3.65135 53.5344 3.8158 53.4232 3.91782C53.3109 4.01948 53.133 4.07014 52.8886 4.07014H52.3994L53.9198 5.37108H53.0953L51.7426 4.07014H50.7643V5.37108H50.2104ZM52.6676 2.46598H50.7639V3.63637H52.6676C52.8012 3.63637 52.8942 3.61283 52.9479 3.56574C53.0012 3.51794 53.0282 3.42733 53.0282 3.29356V2.80914C53.0282 2.67966 53.0008 2.59012 52.9479 2.54089C52.8942 2.4906 52.8012 2.46598 52.6676 2.46598Z" fill="black"/>
<path d="M55.62 2.03442C55.7102 2.03442 55.7657 2.04477 55.7848 2.06653C55.8037 2.08793 55.8129 2.13537 55.8129 2.2085V2.69328L55.3625 3.38602H55.0793L55.4598 2.68079H55.2399C55.1891 2.68079 55.1529 2.66974 55.1344 2.64548C55.1149 2.62194 55.1056 2.57521 55.1056 2.50636V2.20886C55.1056 2.13573 55.1149 2.08864 55.1344 2.06688C55.1532 2.04513 55.2079 2.03478 55.2982 2.03478H55.6204L55.62 2.03442Z" fill="black"/>
<path d="M59.0718 3.03857H57.1602V3.75022H58.9119C59.1698 3.75022 59.3442 3.79552 59.4366 3.88612C59.5293 3.97637 59.5755 4.14617 59.5755 4.39623V4.72512C59.5755 4.97553 59.5293 5.14497 59.4355 5.23522C59.3432 5.32619 59.168 5.37113 58.9094 5.37113H57.248C56.9858 5.37113 56.8089 5.32619 56.7169 5.23522C56.6246 5.14569 56.5784 4.97553 56.5784 4.72583V4.64807L57.048 4.55069V4.95877H59.1091V4.18791H57.3531C57.0952 4.18791 56.9208 4.1426 56.8281 4.05164C56.7368 3.96139 56.6903 3.79088 56.6903 3.54154V3.28256C56.6903 3.02894 56.7364 2.85629 56.8281 2.76568C56.9208 2.67543 57.0949 2.63013 57.3531 2.63013H58.8728C59.1165 2.63013 59.2888 2.67329 59.39 2.75961C59.4906 2.84594 59.5417 3.00361 59.5417 3.23226V3.29754L59.0721 3.40063V3.03857H59.0718Z" fill="black"/>
</svg>
