<svg width="22" height="83" viewBox="0 0 22 83" fill="none" xmlns="http://www.w3.org/2000/svg">
<g clip-path="url(#clip0_328_5834)">
<path d="M11.8412 32.0685L11.6378 32.2818V34.8397L11.8412 35.053H16.9195C18.7478 35.053 19.5593 35.9064 19.5593 37.3976C19.5593 38.6755 18.7478 39.1021 17.731 39.1021H11.8392L11.6358 39.3155V41.8733L11.8392 42.0867H17.9324C20.3708 42.0867 21.9958 40.5954 21.9958 38.0376C21.9958 36.5464 21.3857 35.693 20.9809 35.2685V35.0551L21.5911 34.8418L21.7944 34.6285V32.2839L21.5911 32.0706H11.8412V32.0685ZM1.01466 61.9765V62.1899L0.404546 62.4032L0.201174 62.6165V64.9611L0.404546 65.1744H10.1544L10.3578 64.9611V62.4032L10.1544 62.1899H4.87274C3.45113 62.1899 2.43427 61.5499 2.43427 60.0587C2.43427 58.7808 3.24776 58.3541 4.26262 58.3541H10.1544L10.3578 58.1408V55.5829L10.1544 55.3696H4.06124C1.62278 55.3696 -0.00219727 56.8608 -0.00219727 59.4187C-0.00219727 61.3366 1.01267 61.9765 1.01267 61.9765M10.1564 19.3942L10.3598 19.1809V16.4118L10.1564 16.1984L4.06324 14.4939V14.2806L10.1564 12.576L10.3598 12.3627V9.59357L10.1564 9.38024L2.43627 6.82238H0.406539L0.203168 7.03571V8.95358L0.406539 9.16691L6.09496 10.8715V11.0848L0.406539 12.7893L0.203168 13.0027V15.7718L0.406539 15.9851L6.09496 17.6897V17.903L0.406539 19.6075L0.203168 19.8209V21.7387L0.406539 21.9521H2.43826L10.1584 19.3942H10.1564ZM10.1564 32.6395L10.3598 32.4262V29.8683L10.1564 29.655H4.87473C3.45312 29.655 2.43627 29.015 2.43627 27.5238C2.43627 26.2459 3.24975 25.8192 4.26461 25.8192H10.1564L10.3598 25.6059V23.048L10.1564 22.8347H4.06324C1.62477 22.8347 -0.000203429 24.3259 -0.000203429 26.8838C-0.000203429 28.8016 1.01466 29.4416 1.01466 29.4416V29.655L0.404546 29.8683L0.201174 30.0816V32.4262L0.404546 32.6395H10.1544H10.1564ZM10.5631 38.5333C10.5631 35.3375 9.14154 34.0596 7.51656 34.0596C5.0781 34.0596 4.46998 36.8287 4.26661 38.1087C4.06324 39.3866 4.06324 40.2399 3.25174 40.2399C2.64163 40.2399 2.43826 39.5999 2.43826 38.5353C2.43826 37.4708 2.64163 36.8308 3.45312 36.8308L3.65649 36.6175V34.0596L3.45312 33.8463C1.4214 33.8463 -0.000203429 35.5508 -0.000203429 38.5333C-0.000203429 41.9423 1.62477 43.2223 3.24975 43.2223C5.68622 43.2223 6.09296 40.8778 6.29633 39.5999C6.49971 38.322 6.49971 37.042 7.3112 37.042C7.92131 37.042 8.12269 37.4687 8.12269 38.5333C8.12269 39.5978 7.91932 40.0245 7.51257 40.0245L7.3092 40.2378V42.7957L7.51257 43.009C9.5443 43.009 10.5592 41.0911 10.5592 38.5333M8.12468 49.1579C8.12468 50.8625 6.70308 51.0758 6.49971 51.0758L6.29633 50.8625V47.4534L6.49971 47.24C6.70308 47.24 8.12468 47.4534 8.12468 49.1579ZM10.5631 49.1579C10.5631 45.7488 8.12468 44.0443 5.28147 44.0443C2.43826 44.0443 -0.000203429 45.7488 -0.000203429 49.3713C-0.000203429 52.567 1.82815 53.6337 3.04638 53.847L3.24975 53.6337V51.0758L3.04638 50.8625C2.63964 50.6491 2.43627 50.0091 2.43627 49.3713C2.43627 47.6667 3.6545 47.24 4.06124 47.24L4.26461 47.4534V54.0582L4.46799 54.2716H5.28147C8.12468 54.2716 10.5631 52.567 10.5631 49.1579ZM9.14154 75.7551V75.5418C9.75165 75.1152 10.5631 74.2639 10.5631 72.5594C10.5631 70.6415 9.54828 70.0015 9.54828 70.0015V69.7882L10.1584 69.5749L10.3618 69.3615V67.017L10.1584 66.8037H0.406539L0.203168 67.017V69.5749L0.406539 69.7882H5.89159C7.31319 69.7882 8.12668 70.4282 8.12668 71.7061C8.12668 72.9839 7.31519 73.4106 6.29833 73.4106H0.406539L0.203168 73.6239V76.1818L0.406539 76.3951H5.89159C7.31319 76.3951 8.12668 77.0351 8.12668 78.313C8.12668 79.5909 7.31519 80.0176 6.29833 80.0176H0.406539L0.203168 80.2309V82.7888L0.406539 83.0021H6.49971C9.14154 83.0021 10.5631 81.5109 10.5631 78.953C10.5631 76.6085 9.14154 75.7572 9.14154 75.7572M21.5931 15.1297L21.7964 14.9164V12.9985L21.5931 12.7852L15.9046 11.0806V10.8673L21.5931 9.16273L21.7964 8.9494V6.18029L21.5931 5.96697L15.9046 4.26242V4.04909L21.5931 2.34454L21.7964 2.13121V0.21333L21.5931 0H19.5613L11.8412 2.55787L11.6378 2.7712V5.54031L11.8412 5.75363L17.9344 7.45818V7.67151L11.8412 9.37606L11.6378 9.58939V12.3585L11.8412 12.5718L19.5613 15.1297H21.5931ZM21.5931 19.2834L21.7964 19.07V16.5122L21.5931 16.2988H11.8432L11.6398 16.5122V19.07L11.8432 19.2834H21.5931ZM19.5613 25.677C19.5613 27.3815 18.1397 27.5949 17.9364 27.5949L17.733 27.3815V23.9724L17.9364 23.7591C18.1397 23.7591 19.5613 23.9724 19.5613 25.677ZM21.9998 25.677C21.9998 22.2679 19.5613 20.5633 16.7181 20.5633C13.8749 20.5633 11.4364 22.2679 11.4364 25.8903C11.4364 29.0861 13.2648 30.1527 14.483 30.364L14.6864 30.1506V27.5928L14.483 27.3794C14.0763 27.1661 13.8729 26.5261 13.8729 25.8882C13.8729 24.1837 15.0912 23.757 15.4979 23.757L15.7013 23.9703V30.5752L15.9046 30.7885H16.7161C19.5593 30.7885 21.9978 29.084 21.9978 25.6749" fill="black"/>
</g>
<defs>
<clipPath id="clip0_328_5834">
<rect width="22" height="83" fill="white"/>
</clipPath>
</defs>
</svg>
