<svg width="89" height="26" viewBox="0 0 89 26" fill="none" xmlns="http://www.w3.org/2000/svg">
<g clip-path="url(#clip0_328_5874)">
<path d="M4.03137 22.9868H3.25236L2.84604 24.5575L2.33791 22.9868H1.76162L1.2535 24.5575L0.812648 22.9868H0L0.880811 25.9682H1.52438L2.03251 24.4939L2.54063 25.9682H3.15056L4.03137 22.9868Z" fill="black"/>
<path d="M4.84497 25.9682H5.62398V22.9868H4.84497V25.9682Z" fill="black"/>
<path fill-rule="evenodd" clip-rule="evenodd" d="M9.24903 25.9682L8.57182 24.7501C9.05605 24.4527 9.149 24.0942 9.01267 23.5958C8.70195 22.7497 7.398 23.0119 6.74292 22.9867V25.9682H7.52193V24.8783H7.79281L8.3691 25.9682H9.24991H9.24903ZM8.33458 23.9484L8.30094 24.0448L8.09733 24.2374L7.96189 24.2693H7.52104V23.6284H7.96189L8.09733 23.6603L8.19914 23.7566L8.30094 23.8529L8.33458 23.9493" fill="black"/>
<path d="M12.2642 23.6284V22.9875H9.92627V23.6284H10.7398V25.969H11.5188V23.6284H12.2642Z" fill="black"/>
<path d="M15.3473 25.0392C15.2845 24.1914 14.7259 24.2015 13.9584 24.0775L13.8902 24.013L13.8221 23.8848L13.8557 23.7885L14.0248 23.6285L14.2284 23.5967L14.4656 23.6285L14.6692 23.6603L14.8047 23.7885L15.2792 23.3395L15.1101 23.1468L14.8392 23.0505L14.5347 22.986H13.9584L13.5521 23.1141L13.383 23.2423L13.2812 23.3705L13.1457 23.5305L13.0776 23.7231V24.0758L13.1112 24.2685L13.1794 24.3967L13.3148 24.493C13.769 25.0032 14.2824 24.5893 14.5683 24.9738C14.6577 25.5762 13.7017 25.3198 13.4166 25.1665L12.9421 25.6155C13.5273 26.2095 15.4049 26.176 15.3473 25.0384" fill="black"/>
<path d="M18.6335 25.0064H17.8545L17.8208 25.1664L17.719 25.2628L17.6172 25.3273L17.4481 25.3591L17.2445 25.3273L17.0754 25.1673L17.0418 25.0073V24.8146L17.0082 24.4938L17.0418 24.1411V23.9484L17.0754 23.8202L17.2445 23.6602C17.5526 23.558 17.7845 23.646 17.8545 23.9484H18.6335L18.5653 23.7239L18.4971 23.4994L18.3617 23.3712L18.1926 23.2431C17.8801 22.8778 17.6057 23.0144 17.1764 22.9867C16.4133 23.1291 16.1442 23.8278 16.2274 24.4938C15.9459 26.3066 18.4777 26.49 18.6326 25.0064" fill="black"/>
<path d="M21.9194 25.9682V22.9868H21.1403V24.1412H20.2932V22.9868H19.5142V25.9682H20.2932V24.8139H21.1403V25.9682H21.9194Z" fill="black"/>
<path fill-rule="evenodd" clip-rule="evenodd" d="M25.6462 25.9682L24.4608 22.9868H23.8846L22.6992 25.9682H23.5464L23.7155 25.5192H24.6644L24.7999 25.9682H25.6471H25.6462ZM24.4608 24.911H23.9191L24.2236 24.1093L24.4608 24.911Z" fill="black"/>
<path d="M28.5594 23.6284V22.9875H26.4587V25.969H27.2041V24.8146H28.3894V24.2056H27.2041V23.6284H28.5594Z" fill="black"/>
<path d="M31.711 23.6284V22.9875H29.373V23.6284H30.1521V25.969H30.9311V23.6284H31.7101" fill="black"/>
<path d="M34.7935 25.0391C34.7554 24.2207 34.1021 24.1763 33.4045 24.0774C33.2691 23.966 33.1823 23.894 33.3709 23.7248L33.4727 23.6284L33.6418 23.5966L33.9127 23.6284L34.0817 23.6603L34.2508 23.7884L34.7253 23.3394C33.8985 22.5302 31.8775 23.068 32.6928 24.4938C33.3585 25.0266 33.841 24.6186 33.9799 24.9746L34.0136 25.071L33.9799 25.1991L33.9118 25.2955L33.7763 25.3273L33.5391 25.3591L33.37 25.3273L33.1664 25.2955L32.9973 25.231L32.8619 25.1665L32.3538 25.6155C32.8884 26.1709 34.8103 26.2304 34.7935 25.0383" fill="black"/>
<path d="M38.4529 25.9682L37.3012 24.2048L38.4193 22.9868H37.4703L36.5559 24.0448V22.9868H35.7769V25.9682H36.5559V25.0384L36.7931 24.7502L37.5385 25.9682H38.4529Z" fill="black"/>
<path fill-rule="evenodd" clip-rule="evenodd" d="M41.8062 25.9682L40.6881 22.9868H40.0446L38.9265 25.9682H39.74L39.9091 25.5192H40.8581L41.0272 25.9682H41.8062ZM40.6881 24.911H40.1118L40.3827 24.1093L40.6872 24.911" fill="black"/>
<path d="M45.6014 25.9682V22.9868H44.8223L44.1106 24.333L43.3989 22.9868H42.6199V25.9682H43.4334V24.5257L43.8743 25.2955H44.3487L44.8232 24.5257V25.9682H45.6022" fill="black"/>
<path d="M49.6662 25.9682V22.9868H48.9208L48.1755 24.333L47.4982 22.9868H46.7192V25.9682H47.4982V24.5257L47.9391 25.2955H48.4472L48.8881 24.5257V25.9682H49.6671" fill="black"/>
<path d="M52.9521 25.9681V25.3273H51.5632V24.8146H52.7149V24.1411H51.5632V23.6284H52.9521V22.9875H50.7842V25.969H52.9521" fill="black"/>
<path fill-rule="evenodd" clip-rule="evenodd" d="M56.5101 25.9682L55.7984 24.7502C56.2906 24.4561 56.4154 24.1102 56.2392 23.5958C55.9312 22.7514 54.6184 23.0169 53.9695 22.9868V25.9682H54.7485V24.8783H55.0194L55.5957 25.9682H56.5101ZM55.5611 23.9485C55.2708 24.374 55.3505 24.2442 54.7476 24.2693V23.6285C55.3496 23.6536 55.2699 23.5229 55.5611 23.9493" fill="black"/>
<path fill-rule="evenodd" clip-rule="evenodd" d="M60.1686 22.6986H60.7449V22.0896H60.1686V22.6986ZM59.1188 22.6986H59.7287V22.0896H59.1188V22.6986ZM61.1513 24.4938C61.4443 22.4691 58.438 22.4389 58.7461 24.4938C58.4415 26.5202 61.4434 26.4851 61.1513 24.4938ZM60.3722 24.4938C60.2439 25.004 60.5555 25.1975 59.9314 25.3592L59.8296 25.3273L59.7614 25.2955L59.5924 25.231L59.5587 25.1665L59.5251 25.0065L59.4914 24.8138V24.1403L59.5251 23.9476L59.5587 23.8513L59.5924 23.755L59.7614 23.6586L59.8296 23.6268H59.9314C60.4599 23.6126 60.305 24.1897 60.3722 24.4922" fill="black"/>
<path d="M64.3019 25.0392C64.2187 24.2107 63.6424 24.1822 62.913 24.0775L62.7775 23.9493L62.7439 23.8848L62.7775 23.7885L62.8794 23.724L62.9812 23.6276L63.1502 23.5958L63.4211 23.6276L63.5902 23.6595L63.7593 23.7876L64.2674 23.3386L64.0302 23.1459L63.7929 23.0496L63.4884 22.9851H62.9121L62.6749 23.0496L62.5058 23.1141L62.3022 23.2423L62.2004 23.3705L62.0986 23.5305L62.0304 23.7231V24.0758L62.064 24.2685L62.1322 24.3966L62.234 24.493C62.8528 25.035 63.1927 24.5734 63.5211 24.9738C63.6159 25.5694 62.6456 25.3299 62.3695 25.1665L61.8613 25.6155C62.5111 26.2019 64.3143 26.1885 64.301 25.0383" fill="black"/>
<path d="M67.4524 23.6284V22.9875H65.1145V23.6284H65.8599V25.969H66.6389V23.6284H67.4524Z" fill="black"/>
<path d="M70.502 25.9681V25.3273H69.1467V24.8146H70.332V24.1411H69.1467V23.6284H70.502V22.9875H68.3677V25.969H70.502" fill="black"/>
<path fill-rule="evenodd" clip-rule="evenodd" d="M74.0588 25.9681L73.3816 24.7501C73.8499 24.4041 74.0093 24.2148 73.8225 23.5957C73.5188 22.7656 72.1874 22.9976 71.5527 22.9867V25.9681H72.3317V24.8783H72.6026L73.1444 25.9681H74.0588ZM73.1108 23.9484C72.9912 24.4217 72.7841 24.2131 72.3317 24.2693V23.6284C72.785 23.6837 72.9921 23.476 73.1108 23.9493" fill="black"/>
<path fill-rule="evenodd" clip-rule="evenodd" d="M77.4468 25.9681L76.7696 24.7501L76.9732 24.5901L77.1086 24.4619L77.2104 24.2374L77.2441 24.0774L77.2777 23.9492L77.2441 23.7892L77.2104 23.5966C76.7474 22.6835 75.8392 23.104 74.9407 22.9875V25.969H75.7197V24.8791H75.9569L76.5669 25.969H77.4477L77.4468 25.9681ZM76.4987 23.9484V24.0447L76.3969 24.1411L76.2951 24.2374L76.1596 24.2692H75.7188V23.6284H76.1596L76.2951 23.6602L76.4987 23.8529V23.9492" fill="black"/>
<path d="M80.4619 25.9681V25.3273H79.1066V24.8146H80.292V24.1411H79.1066V23.6284H80.4619V22.9875H78.3276V25.969H80.4619" fill="black"/>
<path d="M81.5127 25.9682H82.2917V22.9868H81.5127V25.9682Z" fill="black"/>
<path d="M85.7131 25.0064H84.9341C84.8447 25.3113 84.6615 25.4211 84.3242 25.3273L84.1551 25.1673L84.1215 25.0073L84.0878 24.8146V24.1411L84.1215 23.9484L84.1551 23.8202L84.3242 23.6602C84.7641 23.5639 84.7394 23.6091 84.9341 23.9484H85.7131C85.5715 22.5896 83.0308 22.5193 83.3416 24.4937C83.0007 26.4314 85.6715 26.3845 85.7131 25.0064Z" fill="black"/>
<path d="M89.0001 25.9682V22.9868H88.1874V24.1412H87.4084V22.9868H86.6294V25.9682H87.4084V24.8139H88.1874V25.9682H89.0001Z" fill="black"/>
<path d="M43.5342 0V19.877H22.3936V0H43.5342ZM27.4756 16.543H30.9307V12.3105L32.1514 10.9971L35.4717 16.543H39.6387L34.5225 8.49609L39.4346 3.01367H35.1328L30.9307 7.82324V3.01367H27.4756V16.543Z" fill="black"/>
<path d="M21.3096 0V19.877H0.168945V0H21.3096ZM5.55664 16.542H8.43652L10.7393 9.87402L13.0771 16.542H15.9912L19.8867 3.01367H16.1934L14.3301 10.1621L11.9922 3.01367H9.48535L7.14746 10.1621L5.28418 3.01367H1.59277L5.55664 16.542Z" fill="black"/>
<path d="M67.7915 6.63634H88.9655V0H67.7915V6.63634Z" fill="black"/>
<path d="M67.7915 19.8772H88.9655V13.2727H67.7915V19.8772Z" fill="black"/>
<path d="M65.7246 0V19.877H44.5508V0H65.7246ZM55.1523 2.5918C44.9889 2.85232 44.9969 16.6375 55.1523 16.9248C65.3277 16.5844 65.3206 2.89703 55.1523 2.5918ZM55.166 5.91797C56.3166 5.95985 57.1957 6.4585 57.7773 7.17285C58.3589 7.88739 58.6515 8.81013 58.6533 9.73828C58.6551 10.6663 58.3725 11.5952 57.792 12.3164C57.2113 13.0377 56.3239 13.5435 55.166 13.5996H55.1523C53.9891 13.5426 53.0898 13.0402 52.5117 12.3164C51.9339 11.5927 51.6597 10.6534 51.665 9.72461C51.6704 8.79572 51.9595 7.87379 52.541 7.16016C53.1226 6.44648 54.0096 5.95399 55.1523 5.91797H55.166Z" fill="black"/>
</g>
<defs>
<clipPath id="clip0_328_5874">
<rect width="89" height="26" fill="white"/>
</clipPath>
</defs>
</svg>
