<svg width="222" height="55" viewBox="0 0 222 55" fill="none" xmlns="http://www.w3.org/2000/svg">
<g clip-path="url(#clip0_2_19)">
<path d="M16.2358 34.5535C14.3289 36.0974 11.9946 36.7509 9.63505 36.7509C3.99819 36.7509 0 33.6141 0 27.3897C0 22.1047 4.21193 18 9.87393 18C11.9946 18 14.3289 18.7066 15.9927 20.2994C17.6314 21.8678 15.2677 24.1958 13.6584 22.8113C12.6651 21.8678 11.2695 21.1653 9.87393 21.1653C6.62593 21.1653 3.48689 23.7016 3.48689 27.3897C3.48689 31.2616 6.11882 33.6141 9.63085 33.6141C11.2695 33.6141 12.6651 33.1445 13.6542 32.4379V29.2195H9.63085C7.242 29.2195 7.48508 26.0297 9.63085 26.0297H14.9995C15.9928 26.0297 16.9064 26.7607 16.9064 27.5735V33.1445C16.9064 33.6141 16.6926 34.0593 16.2358 34.5576V34.5535Z" fill="black"/>
<path d="M21.8977 36.5671C20.9589 36.5671 20.2339 35.8605 20.2339 34.9456V20.0911C20.2339 19.1518 20.9589 18.4697 21.8977 18.4697H31.5327C34.0012 18.4697 33.9467 21.8678 31.5327 21.8678H23.8046V25.7887H30.5688C32.9577 25.7887 32.9577 29.2154 30.5688 29.2154H23.8046V33.1363H31.9896C34.4329 33.1363 34.6215 36.563 31.9896 36.563H21.8977V36.5671Z" fill="black"/>
<path d="M37.8359 36.5671C36.872 36.5671 36.1973 35.8605 36.1973 34.9456V20.0911C36.1973 19.1518 36.8678 18.4697 37.8359 18.4697H45.3755C48.8917 18.4697 50.7986 20.7977 50.7986 23.4648C50.7986 24.641 50.4508 25.7928 49.3234 26.7608C51.444 27.5694 52.3828 29.1664 52.3828 31.1023C52.3828 34.1083 50.2915 36.5671 46.264 36.5671H37.8359ZM45.3755 21.6595H39.7135V25.5559H45.3755C46.528 25.5559 47.253 24.8493 47.253 23.4648C47.253 22.603 46.528 21.6595 45.3755 21.6595ZM39.7135 33.3773H46.2598C49.3737 33.3773 49.3737 28.7498 46.2598 28.7498H39.7135V33.3773Z" fill="black"/>
<path d="M58.5771 34.868C58.5771 37.143 55.0063 37.2206 55.0063 34.9211V20.0666C55.0063 19.1518 55.7314 18.4697 56.6157 18.4697H63.7529C70.5674 18.4697 71.963 27.3611 66.2759 29.583L69.8466 33.8184C71.2422 35.8319 68.451 37.7678 66.8417 35.7788L62.789 30.1303H58.5771V34.8639V34.868ZM58.5771 27.1283H63.7571C67.244 27.1283 67.4619 21.635 63.7571 21.635H58.5771V27.1283Z" fill="black"/>
<path d="M85.2486 25.5559C85.2486 23.2279 88.7648 23.0441 88.7648 25.5559V29.6606C88.7648 39.4424 72.5835 39.4424 72.5835 29.6606V20.1973C72.5835 17.8448 76.0997 17.7386 76.0997 20.1973V29.6647C76.0997 34.8149 85.2528 35.1294 85.2528 29.6647V25.56L85.2486 25.5559Z" fill="black"/>
<path d="M93.8109 36.5671C92.9266 36.5671 91.9585 36.0974 91.9585 34.9456V20.0911C91.9585 19.1518 92.9266 18.4697 93.8109 18.4697H99.9549C112.218 18.4697 111.949 36.5671 100.198 36.5671H93.8109ZM95.4999 21.6595V33.3773H99.9549C107.201 33.3773 107.524 21.6595 99.9549 21.6595H95.4999Z" fill="black"/>
<path d="M113.32 36.5671C112.381 36.5671 111.656 35.8605 111.656 34.9456V20.0911C111.656 19.1518 112.381 18.4697 113.32 18.4697H122.955C125.423 18.4697 125.369 21.8678 122.955 21.8678H115.226V25.7887H121.991C124.38 25.7887 124.38 29.2154 121.991 29.2154H115.226V33.1363H123.411C125.855 33.1363 126.043 36.563 123.411 36.563H113.32V36.5671Z" fill="black"/>
<path d="M131.215 34.868C131.215 37.143 127.645 37.2206 127.645 34.9211V20.0666C127.645 19.1518 128.37 18.4697 129.254 18.4697H136.391C143.206 18.4697 144.601 27.3611 138.914 29.583L142.485 33.8184C143.88 35.8319 141.089 37.7678 139.48 35.7788L135.427 30.1303H131.215V34.8639V34.868ZM131.215 27.1283H136.395C139.882 27.1283 140.1 21.635 136.395 21.635H131.215V27.1283Z" fill="black"/>
<path d="M152.577 20.038C152.577 19.1763 153.272 18.2328 154.4 18.2328H160.598C164.085 18.2328 167.228 20.5077 167.228 24.8738C167.228 29.0071 164.089 31.3065 160.598 31.3065H156.118V34.7577C156.118 35.9095 155.368 36.563 154.4 36.563C153.515 36.563 152.577 35.9095 152.577 34.7577V20.038ZM156.118 21.5288V28.0391H160.598C162.396 28.0391 163.817 26.4953 163.817 24.8738C163.817 23.0441 162.396 21.5247 160.598 21.5247H156.118V21.5288Z" fill="black"/>
<path d="M169.722 20.038C169.722 17.8938 173.263 17.8162 173.263 20.038V34.9701C173.263 37.1389 169.722 37.192 169.722 34.9701V20.038Z" fill="black"/>
<path d="M183.569 24.7472L188.237 19.0456C189.633 17.2689 192.345 19.5438 190.815 21.2429C189.206 23.1012 187.512 25.1148 185.903 27.1814L191.377 33.8224C192.852 35.7829 189.901 37.6657 188.451 35.7298L183.514 29.5585L178.657 35.8605C177.286 37.7678 174.256 35.6236 175.786 33.8469L181.18 27.1773C179.491 25.1107 177.852 23.0972 176.214 21.2388C174.525 19.2784 177.664 17.2648 178.896 19.0946L183.565 24.7431L183.569 24.7472Z" fill="black"/>
<path d="M195.107 36.5671C194.168 36.5671 193.443 35.8605 193.443 34.9456V20.0911C193.443 19.1518 194.168 18.4697 195.107 18.4697H204.742C207.21 18.4697 207.156 21.8678 204.742 21.8678H197.014V25.7887H203.778C206.167 25.7887 206.167 29.2154 203.778 29.2154H197.014V33.1363H205.199C207.642 33.1363 207.83 36.563 205.199 36.563H195.107V36.5671Z" fill="black"/>
<path d="M209.436 20.038C209.436 19.1763 210.186 18.4411 211.125 18.4411C211.984 18.4411 212.709 19.1722 212.709 20.038V33.1404H220.009C222.641 33.1404 222.692 36.5671 220.009 36.5671H211.125C210.186 36.5671 209.436 35.9136 209.436 34.9701V20.038Z" fill="black"/>
<path d="M80.6761 22.509C81.8381 22.509 82.78 21.5911 82.78 20.4587C82.78 19.3264 81.8381 18.4084 80.6761 18.4084C79.5142 18.4084 78.5723 19.3264 78.5723 20.4587C78.5723 21.5911 79.5142 22.509 80.6761 22.509Z" fill="black"/>
</g>
<defs>
<clipPath id="clip0_2_19">
<rect width="222" height="55" fill="white"/>
</clipPath>
</defs>
</svg>
