<svg width="53" height="60" viewBox="0 0 53 60" fill="none" xmlns="http://www.w3.org/2000/svg">
<path d="M49.44 24.5456V21.8188H46.3503V19.091H40.1704V16.3638H30.9002V13.6366H24.72V2.72733H21.6299V0.000762939H15.4498V2.72733H12.36V27.2731H9.26993V24.546H0V32.7275H3.08977V35.455H6.18016V40.9093H9.26993V46.364H12.36V51.8186H15.4498V60.0002H46.3503V51.8186H49.44V43.6365H52.5301V24.5456H49.44Z" fill="#231F20"/>
<path d="M46.35 21.8183H43.2599V30.0001H40.1702V19.0911H33.99V27.273H30.8999V16.364H24.7201V27.273H21.63V2.72748H15.4502V38.182H12.3601V30.0001H9.27V27.273H3.08984V32.7276H6.17992V35.4548H9.27V40.9092H12.3601V46.3638H15.4502V51.8185H18.5399V57.2728H43.2599V51.8185H46.35V43.6363H49.4401V24.5458H46.35V21.8183Z" fill="white"/>
</svg>
